<?xml version="1.0" standalone="no"?>
<!DOCTYPE svg PUBLIC "-//W3C//DTD SVG 1.1//EN" "http://www.w3.org/Graphics/SVG/1.1/DTD/svg11.dtd" >
<svg xmlns="http://www.w3.org/2000/svg" xmlns:xlink="http://www.w3.org/1999/xlink" version="1.1">
<metadata></metadata>
<defs>
<font id="kawkab_monobold" horiz-adv-x="518" >
<font-face units-per-em="1000" ascent="800" descent="-200" />
<missing-glyph horiz-adv-x="500" />
<glyph unicode="&#xfedf;&#xfe82;" arabic-form="isolated" d="M468.5 79.5q3.5 -15.5 3.5 -30.5q0 -49 -42 -49h-274q-15 0 -20 6.5t-3 14.5l17 60q7 23 28 23h6q92 36 139 164q-64 110 -144 163l-10 -8q-9 -5 -16 -5t-11 4l-41 31q-8 6 -12.5 16t-4.5 20q0 8 3 13l28 56q3 6 9 9.5t12 3.5q9 0 14 -6l82 -71q23 -20 54 -57t62 -83 q18 91 22 200q1 24 3.5 37.5t13.5 36.5q7 15 12.5 21t14.5 6h14q11 0 14 -9t3 -35q0 -109 -13 -184.5t-44 -141.5q49 -90 73 -182q4 -8 7.5 -23.5zM272 104h123q-20 60 -44 111q-31 -49 -79 -111zM24 693q9 29 25 50.5t34 32.5t32 11q10 0 16.5 -3.5t17.5 -13.5 q15 -12 29 -19t37 -7q21 0 48.5 9t78.5 34q5 0 8.5 -6.5t3.5 -16t-4 -19.5t-10 -18q-10 -10 -31 -23.5t-46 -23.5t-45 -10q-32 0 -65 24t-51 56q-30 -16 -52 -83z" />
<glyph unicode="&#xfee0;&#xfe82;" arabic-form="final" d="M479.5 134q15.5 -30 38.5 -30v-104q-21 0 -39.5 12.5t-35.5 66t-23 164.5q-8 -88 -27 -140t-45 -78t-65 -42l-31 -13q-35 -16 -85.5 -28t-86.5 -9v46q133 62 200 93q-11 58 -31 112.5t-44 100.5t-62 114l-9 15l73 88l14 -40q37 -113 59.5 -198t33.5 -171q25 20 43 45.5 t21 48.5l8 394l78 78v-420q0 -75 15.5 -105zM29 597q9 29 25 50.5t33.5 32.5t32.5 11q10 0 16 -3.5t18 -13.5q15 -12 29 -19t37 -7q20 0 47.5 9t78.5 34q6 0 9 -6.5t3 -16t-3.5 -19.5t-10.5 -18q-10 -10 -31 -23.5t-46 -23.5t-45 -10q-32 0 -65 24t-50 55q-31 -15 -52 -82z " />
<glyph unicode="&#xfedf;&#xfe84;" arabic-form="isolated" d="M262 741q0 -5 -5 -8.5t-11 -5.5q-49 -11 -80.5 -19t-48 -15t-43.5 -22q-1 -1 -2 -1q-5 0 -8 12q-1 6 -3.5 13t-2.5 9q0 6 3.5 9.5t11.5 8.5l45 26q-48 17 -48 63q0 26 13 53.5t35 45.5t48 18q23 0 33 -15.5t12 -46.5v-2q0 -7 -2.5 -10.5t-7.5 -3.5q-1 0 -22.5 10 t-37.5 10q-31 0 -31 -25t15 -49t49 -24l47 1q15 0 20.5 -2.5t10.5 -10.5l8 -14q2 -3 2 -5zM468.5 79.5q3.5 -15.5 3.5 -30.5q0 -49 -42 -49h-274q-15 0 -20 6.5t-3 14.5l17 60q7 23 28 23h6q92 36 139 164q-64 110 -144 163l-10 -8q-9 -5 -16 -5t-11 4l-41 31q-8 6 -12.5 16 t-4.5 20q0 8 3 13l28 56q3 6 9 9.5t12 3.5q9 0 14 -6l82 -71q23 -20 54 -57t62 -83q18 91 22 200q1 24 3.5 37.5t13.5 36.5q7 15 12.5 21t14.5 6h14q11 0 14 -9t3 -35q0 -109 -13 -184.5t-44 -141.5q49 -90 73 -182q4 -8 7.5 -23.5zM272 104h123q-20 60 -44 111 q-31 -49 -79 -111z" />
<glyph unicode="&#xfee0;&#xfe84;" arabic-form="final" d="M87 604q-6 0 -8 12q-1 6 -3.5 12.5t-2.5 9.5q0 5 3.5 8.5t10.5 8.5l46 27q-48 17 -48 62q0 26 13 53.5t35 45.5t48 18q23 0 33 -15.5t12 -46.5v-2q0 -7 -2.5 -10.5t-7.5 -3.5q-1 0 -22.5 10t-38.5 10q-31 0 -31 -25t15.5 -49t49.5 -24l47 1q15 0 20.5 -2t10.5 -11l8 -14 q2 -3 2 -5q0 -5 -5 -8.5t-12 -4.5q-48 -11 -79.5 -19.5t-48 -15.5t-43.5 -21q-1 -1 -2 -1zM479.5 134q15.5 -30 38.5 -30v-104q-21 0 -39.5 12.5t-35.5 66t-23 164.5q-8 -88 -27 -140t-45 -78t-65 -42l-31 -13q-35 -16 -85.5 -28t-86.5 -9v46q133 62 200 93 q-11 58 -31 112.5t-44 100.5t-62 114l-9 15l73 88l14 -40q37 -113 59.5 -198t33.5 -171q25 20 43 45.5t21 48.5l8 394l78 78v-420q0 -75 15.5 -105z" />
<glyph unicode="&#xfedf;&#xfe88;" arabic-form="isolated" d="M468.5 79.5q3.5 -15.5 3.5 -30.5q0 -49 -42 -49h-274q-15 0 -20 6.5t-3 14.5l17 60q7 23 28 23h6q92 36 139 164q-64 110 -144 163l-10 -8q-9 -5 -16 -5t-11 4l-41 31q-8 6 -12.5 16t-4.5 20q0 8 3 13l28 56q3 6 9 9.5t12 3.5q9 0 14 -6l82 -71q23 -20 54 -57t62 -83 q18 91 22 200q1 24 3.5 37.5t13.5 36.5q7 15 12.5 21t14.5 6h14q11 0 14 -9t3 -35q0 -109 -13 -184.5t-44 -141.5q49 -90 73 -182q4 -8 7.5 -23.5zM272 104h123q-20 60 -44 111q-31 -49 -79 -111zM242 -395q-5 0 -7 12q-7 21 -7 25q0 6 3.5 10t11.5 9l51 29q-54 18 -54 70 q0 28 14.5 58t38.5 50t53 20q25 0 36.5 -17.5t13.5 -51.5v-2q0 -7 -3.5 -11t-7.5 -4q-2 0 -25 11t-42 11q-34 0 -34 -28q0 -15 6.5 -34t22.5 -32.5t42 -13.5q13 0 21 1h31q16 0 22 -2.5t12 -11.5l9 -15q4 -8 -1.5 -13.5t-14.5 -7.5q-71 -16 -97 -23t-44 -14.5t-48 -23.5 q-1 -1 -3 -1z" />
<glyph unicode="&#xfee0;&#xfe88;" arabic-form="final" d="M479.5 134q15.5 -30 38.5 -30v-104q-21 0 -39.5 12.5t-35.5 66t-23 164.5q-8 -88 -27 -140t-45 -78t-65 -42l-31 -13q-35 -16 -85.5 -28t-86.5 -9v46q133 62 200 93q-11 58 -31 112.5t-44 100.5t-62 114l-9 15l73 88l14 -40q37 -113 59.5 -198t33.5 -171q25 20 43 45.5 t21 48.5l8 394l78 78v-420q0 -75 15.5 -105zM244 -411q-5 0 -7 12q-7 21 -7 25q0 5 4 9.5t12 9.5l50 29q-53 18 -53 69q0 28 14 58.5t38.5 50.5t52.5 20q25 0 37 -17.5t13 -51.5v-2q0 -7 -3.5 -11.5t-7.5 -4.5q-1 0 -24.5 11.5t-42.5 11.5q-34 0 -34 -28q0 -15 7 -34 t23 -32.5t41 -13.5h21l31 1q17 0 22.5 -2.5t11.5 -11.5l9 -16q4 -7 -1.5 -12.5t-14.5 -7.5q-71 -17 -97 -23.5t-44 -14t-48 -24.5h-3z" />
<glyph unicode="&#xfedf;&#xfe8e;" arabic-form="isolated" d="M468.5 79.5q3.5 -15.5 3.5 -30.5q0 -49 -42 -49h-274q-15 0 -20 6.5t-3 14.5l17 60q7 23 28 23h6q92 36 139 164q-64 110 -144 163l-10 -8q-9 -5 -16 -5t-11 4l-41 31q-8 6 -12.5 16t-4.5 20q0 8 3 13l28 56q3 6 9 9.5t12 3.5q9 0 14 -6l82 -71q23 -20 54 -57t62 -83 q18 91 22 200q1 24 3.5 37.5t13.5 36.5q7 15 12.5 21t14.5 6h14q11 0 14 -9t3 -35q0 -109 -13 -184.5t-44 -141.5q49 -90 73 -182q4 -8 7.5 -23.5zM272 104h123q-20 60 -44 111q-31 -49 -79 -111z" />
<glyph unicode="&#xfee0;&#xfe8e;" arabic-form="final" d="M479.5 134q15.5 -30 38.5 -30v-104q-21 0 -39.5 12.5t-35.5 66t-23 164.5q-8 -88 -27 -140t-45 -78t-65 -42l-31 -13q-35 -16 -85.5 -28t-86.5 -9v46q133 62 200 93q-11 58 -31 112.5t-44 100.5t-62 114l-9 15l73 88l14 -40q37 -113 59.5 -198t33.5 -171q25 20 43 45.5 t21 48.5l8 394l78 78v-420q0 -75 15.5 -105z" />
<glyph unicode="&#xfedf;&#xfb51;" d="M159.5 666.5q-21.5 4.5 -27.5 17.5q-27 -16 -42 -19.5t-52 -2.5v31q43 9 60 17.5t17 22.5v24l29 19q-3 -17 -3 -32q0 -11 1 -16q2 -9 4 -9q3 0 24 26q34 42 63.5 69t58.5 27q25 0 41 -25.5t16 -65.5q0 -38 -15 -57.5t-41.5 -25t-68.5 -5.5q-43 0 -64.5 4.5zM231 768.5 q-22 -18.5 -50 -49.5q20 -9 55 -9q37 0 58 10t21 25q0 13 -11.5 27.5t-30.5 14.5q-20 0 -42 -18.5zM468.5 79.5q3.5 -15.5 3.5 -30.5q0 -49 -42 -49h-274q-15 0 -20 6.5t-3 14.5l17 60q7 23 28 23h6q92 36 139 164q-64 110 -144 163l-10 -8q-9 -5 -16 -5t-11 4l-41 31 q-8 6 -12.5 16t-4.5 20q0 8 3 13l28 56q3 6 9 9.5t12 3.5q9 0 14 -6l82 -71q23 -20 54 -57t62 -83q18 91 22 200q1 24 3.5 37.5t13.5 36.5q7 15 12.5 21t14.5 6h14q11 0 14 -9t3 -35q0 -109 -13 -184.5t-44 -141.5q49 -90 73 -182q4 -8 7.5 -23.5zM272 104h123 q-20 60 -44 111q-31 -49 -79 -111z" />
<glyph unicode="&#xfee0;&#xfb51;" d="M145 588q-21 5 -27 18q-28 -16 -43 -20t-52 -3v32q44 9 60.5 17.5t16.5 21.5v25l29 18q-2 -16 -2 -31v-16q2 -9 4 -9q4 0 24 26q34 41 63.5 68t58.5 27q26 0 41.5 -25.5t15.5 -64.5t-15 -58t-41 -25t-69 -6t-64 5zM216.5 690.5q-21.5 -18.5 -50.5 -50.5q20 -9 55 -9 q37 0 58 10t21 26q0 13 -11.5 27.5t-30.5 14.5q-20 0 -41.5 -18.5zM479.5 134q15.5 -30 38.5 -30v-104q-21 0 -39.5 12.5t-35.5 66t-23 164.5q-8 -88 -27 -140t-45 -78t-65 -42l-31 -13q-35 -16 -85.5 -28t-86.5 -9v46q133 62 200 93q-11 58 -31 112.5t-44 100.5t-62 114 l-9 15l73 88l14 -40q37 -113 59.5 -198t33.5 -171q25 20 43 45.5t21 48.5l8 394l78 78v-420q0 -75 15.5 -105z" />
<glyph unicode="&#x671;" arabic-form="final" d="M58 708q44 9 60.5 17.5t16.5 21.5v25l29 18q-2 -16 -2 -31q0 -12 1 -16q1 -9 3 -9q4 0 25 26q34 41 63 68t58 27q26 0 42 -25.5t16 -64.5q0 -38 -15 -57.5t-41.5 -25.5t-68.5 -6q-44 0 -65 5t-27 18q-27 -16 -42.5 -19.5t-52.5 -3.5v32zM315 734q21 10 21 26 q0 13 -12 27.5t-30 14.5q-20 0 -42 -18.5t-50 -50.5q19 -9 55 -9q37 0 58 10zM187.5 35q-38.5 35 -40.5 109l-3 85q-3 131 -5.5 181.5t-8.5 148.5l92 71v-443q0 -45 16.5 -64t57.5 -19h222v-104h-235q-57 0 -95.5 35z" />
<glyph unicode="&#x67e;" arabic-form="final" d="M75 15q-36 15 -55.5 43t-19.5 64q0 42 17 90t44 86l38 -5q-26 -69 -26 -117q0 -35 14 -53.5t41 -18.5h204q29 0 54 19t36 51q12 39 15 57l54 33q-11 -42 -18 -76q-2 -12 -2 -23q0 -28 12.5 -44.5t34.5 -16.5v-104h-4q-53 0 -70 124q-14 -124 -157 -124h-129q-47 0 -83 15 zM119 -165l62 66l60 -66l-60 -67zM255 -165l62 66l60 -66l-60 -67zM186 -303l61 65l61 -65l-61 -67z" />
<glyph unicode="&#x67e;" arabic-form="initial" d="M0 104h360q23 0 38 9.5t15 29.5q0 15 -14 74t-25 86l75 74q14 -36 32.5 -106t18.5 -107t-21 -75.5t-57.5 -63.5t-83.5 -25h-338v104zM145 -165l61 66l61 -66l-61 -67zM281 -165l62 66l60 -66l-60 -67zM212 -303l61 65l61 -65l-61 -67z" />
<glyph unicode="&#x67e;" arabic-form="medial" d="M518 0q-56 0 -90.5 10.5t-56.5 36.5t-37 74q-14 -45 -33 -71t-48.5 -38t-75.5 -12h-177v104h170q51 0 76.5 4.5t39.5 23.5t14 60q0 29 -8 78l96 62q-1 -18 -1 -100q0 -77 1 -89q1 -18 16 -26.5t40.5 -10.5t73.5 -2v-104zM129 -165l61 66l61 -66l-61 -67zM265 -165l61 66 l61 -66l-61 -67zM195 -303l62 65l60 -65l-60 -67z" />
<glyph unicode="&#x679;" arabic-form="final" d="M75 15q-36 15 -55.5 43t-19.5 64q0 42 17 90t44 86l38 -5q-26 -69 -26 -117q0 -35 14 -53.5t41 -18.5h204q29 0 54 19t36 51q12 39 15 57l54 33q-11 -42 -18 -76q-2 -12 -2 -23q0 -28 12.5 -44.5t34.5 -16.5v-104h-4q-53 0 -70 124q-14 -124 -157 -124h-129q-47 0 -83 15 zM352.5 504.5q13.5 -23.5 13.5 -56.5q0 -42 -23 -59.5t-71 -17.5h-118q0 26 6 36.5t13.5 10.5t12.5 2q6 7 8 18t1 30q-2 58 -5 90.5t-10 44.5l37 33l18 -47q-11 -11 -14.5 -36t-5.5 -68l-3 -39q26 37 53 59.5t50 22.5q24 0 37.5 -23.5zM325 426q11 5 11 19.5t-11 25.5 t-25 11q-15 0 -34.5 -16.5t-45.5 -44.5h70q24 0 35 5z" />
<glyph unicode="&#x679;" arabic-form="initial" d="M0 104h360q23 0 38 9.5t15 29.5q0 15 -14 74t-25 86l75 74q14 -36 32.5 -106t18.5 -107t-21 -75.5t-57.5 -63.5t-83.5 -25h-338v104zM315.5 541.5q13.5 -23.5 13.5 -56.5q0 -42 -23 -59.5t-71 -17.5h-118q0 26 6.5 36.5t13.5 10.5t12 2q6 7 8 18t1 30q-2 58 -5 90.5 t-10 44.5l37 33l18 -47q-11 -11 -14.5 -36t-5.5 -68l-3 -39q26 37 53 59.5t50 22.5q24 0 37.5 -23.5zM288 463q11 5 11 19.5t-10.5 25.5t-25.5 11t-34.5 -16.5t-45.5 -44.5h70q24 0 35 5z" />
<glyph unicode="&#x679;" arabic-form="medial" d="M518 0q-56 0 -90.5 10.5t-56.5 36.5t-37 74q-14 -45 -33 -71t-48.5 -38t-75.5 -12h-177v104h170q51 0 76.5 4.5t39.5 23.5t14 60q0 29 -8 78l96 62q-1 -18 -1 -100q0 -77 1 -89q1 -18 16 -26.5t40.5 -10.5t73.5 -2v-104zM285.5 519q13.5 -23 13.5 -57q0 -41 -23 -58.5 t-70 -17.5h-119q0 25 6.5 36t14 11t11.5 1q6 8 8.5 19t1.5 29q-2 59 -5 91t-11 45l37 32l18 -46q-10 -11 -14 -36t-6 -68l-2 -39q25 37 52.5 59t50.5 22t36.5 -23zM258 441q11 5 11 19t-10.5 25.5t-24.5 11.5q-16 0 -35.5 -16.5t-45.5 -44.5h70q24 0 35 5z" />
<glyph unicode="&#x6a4;" arabic-form="final" d="M498.5 112.5q12.5 -8.5 19.5 -8.5v-104q-13 0 -33.5 15t-38.5 33t-23 25q-22 -35 -58.5 -54t-94.5 -19h-112q-81 0 -119.5 31.5t-38.5 93.5q0 29 8.5 61.5t28.5 61.5l19 -8q-20 -56 -20 -81q0 -28 19 -41.5t73 -13.5h166q66 0 89 3q-67 43 -98.5 75.5t-31.5 64.5 q0 29 15 68.5t39.5 68t49.5 28.5q33 0 64 -33t50.5 -80.5t19.5 -85.5q0 -22 -3 -40.5t-9 -44.5q7 -7 19.5 -15.5zM326.5 229q22.5 -23 75.5 -66l24 -19v17q0 33 -11 74t-28.5 70t-35.5 29q-12 0 -23 -10t-17.5 -24.5t-6.5 -25.5q0 -22 22.5 -45zM287 682l65 69l63 -69 l-63 -69zM224 543l65 69l63 -69l-63 -69zM374 543l64 69l64 -69l-64 -69z" />
<glyph unicode="&#x6a4;" arabic-form="initial" d="M402.5 458.5q34.5 -44.5 56 -115t21.5 -144.5q0 -78 -27 -121.5t-80 -60.5t-138 -17h-235v104h273q58 0 89 5.5t44.5 20.5t13.5 44v5q-91 -7 -121 -7q-53 0 -73 17t-20 60q0 46 17 107t46 104t64 43t69.5 -44.5zM403 277q-17 60 -42 103t-52 43q-26 0 -35.5 -36t-9.5 -73 q0 -17 4 -25t18 -11t45 -3q23 0 72 2zM240 764l65 68l64 -68l-64 -70zM178 625l64 68l64 -68l-64 -70zM327 625l64 68l64 -68l-64 -70z" />
<glyph unicode="&#x6a4;" arabic-form="medial" d="M518 104v-104h-41q-25 0 -63 19.5t-74 53.5q-20 -33 -61 -53t-109 -20h-170v104h142q49 0 75.5 1t42.5 4q-49 26 -82 53q-23 19 -33 37.5t-10 38.5q0 29 14.5 74t41 78.5t61.5 33.5q37 0 71.5 -35.5t56.5 -87.5t22 -96q0 -23 -6 -40.5t-17 -36.5q1 -3 14 -8.5t31 -9.5 q15 -4 27 -5t42 -1h25zM218.5 223.5q26.5 -26.5 91.5 -72.5q10 29 10 62q0 36 -14.5 67.5t-35.5 50.5t-35 19q-17 0 -30 -23.5t-13 -46.5q0 -30 26.5 -56.5zM178 702l64 68l64 -68l-64 -70zM115 562l64 69l64 -69l-64 -69zM264 562l65 69l63 -69l-63 -69z" />
<glyph unicode="&#x686;" arabic-form="final" d="M456 0q-57 0 -93 40.5t-40 116.5q-91 -38 -154 -105t-63 -162q0 -75 43 -112t120 -37q51 0 104 15t87 35l11 -13q-34 -62 -89.5 -100t-138.5 -38q-68 0 -117.5 28t-75.5 79t-26 119q0 87 43 158t125 118t196 65q-59 26 -92.5 37t-72.5 11t-80.5 -12t-77.5 -34l-6 5 l32 100q30 23 66.5 34t73.5 11q36 0 62 -8t59 -25q36 -19 66 -28t73 -9q1 -18 -6 -40.5t-14 -38.5t-9 -21q-17 2 -44.5 -3t-58.5 -16q8 -35 26 -50.5t40 -15.5h93v-104h-62zM232 10l48 -53l-48 -53l-49 53zM340 -96l-48 53l48 53l49 -53zM285 -207l-49 53l49 53l49 -53z" />
<glyph unicode="&#x686;" arabic-form="initial" d="M0 104h137q57 0 123.5 11.5t116.5 49.5q22 16 34 33t14 25q-124 53 -206 53q-38 0 -71 -10.5t-67 -35.5l-6 5l32 98q64 44 134 44q37 0 69 -10t83 -30q38 -17 64.5 -26t53.5 -13l-19 -96q-19 -1 -29 -10t-24 -30q-14 -22 -30 -41.5t-43 -42.5q-41 -34 -79.5 -51t-71 -22 t-71.5 -5h-144v104zM138 -165l61 66l61 -66l-61 -67zM274 -165l61 66l61 -66l-61 -67zM204 -303l62 65l60 -65l-60 -67z" />
<glyph unicode="&#x686;" arabic-form="medial" d="M518 104v-104h-16q-43 0 -59.5 43.5t-17.5 97.5q-23 -31 -59 -63q-41 -34 -79.5 -51t-71 -22t-71.5 -5h-144v104h137q57 0 123.5 11.5t116.5 49.5q22 16 34 33t14 25q-124 53 -206 53q-38 0 -71 -10.5t-67 -35.5l-6 5l32 98q64 44 134 44q37 0 69 -10t83 -30 q38 -17 64.5 -26t53.5 -13l-19 -96q-21 -2 -33 -14v-4q0 -29 2 -44.5t11.5 -25.5t29.5 -10h16zM138 -165l61 66l61 -66l-61 -67zM274 -165l61 66l61 -66l-61 -67zM204 -303l62 65l60 -65l-60 -67z" />
<glyph unicode="&#x688;" arabic-form="final" d="M103 4.5q-15 3.5 -25 16t-10 39.5q0 23 5.5 46.5t18.5 23.5q6 0 15 -7q14 -9 27.5 -14t34.5 -5h38q34 0 52.5 3t29.5 16t11 41q0 22 -5.5 48t-19.5 73l-24 87l82 83q20 -94 44 -228q11 -61 15 -75q5 -23 20 -35.5t44 -12.5h62v-104h-62q-131 0 -144 104 q-13 -43 -31 -65.5t-44.5 -31t-69.5 -8.5l-23 1q-26 1 -41 4.5zM347 667q13 -23 13 -57q0 -41 -23 -58.5t-70 -17.5h-118q0 25 6 36t13.5 11t12.5 1q5 8 7.5 19t1.5 29q-2 59 -5 91t-10 45l37 32l17 -46q-10 -11 -13.5 -36t-6.5 -68l-2 -39q25 37 52.5 59t50.5 22 q24 0 37 -23zM320 589q11 5 11 19t-11 25.5t-25 11.5q-15 0 -35 -16.5t-45 -44.5h70q24 0 35 5z" />
<glyph unicode="&#x698;" arabic-form="final" d="M86.5 -259.5q-23.5 6.5 -45.5 24.5v38q64 0 99 14t66 42q46 41 85.5 97t39.5 98q0 52 -36.5 109.5t-39.5 60.5l75 75q3 -5 17 -41q16 -44 31.5 -75.5t39 -55t53.5 -23.5h47v-104h-32q-32 0 -60 10.5t-57 34.5q2 -13 2 -29q0 -40 -13.5 -88t-38 -90t-54.5 -66 q-25 -19 -59 -28.5t-69 -9.5q-27 0 -50.5 6.5zM198 591l65 69l63 -69l-63 -69zM135 452l65 69l63 -69l-63 -69zM285 452l64 69l64 -69l-64 -69z" />
<glyph unicode="&#x691;" arabic-form="final" d="M86.5 -259.5q-23.5 6.5 -45.5 24.5v38q64 0 99 14t66 42q46 41 85.5 97t39.5 98q0 52 -36.5 109.5t-39.5 60.5l75 75q3 -5 17 -41q16 -44 31.5 -75.5t39 -55t53.5 -23.5h47v-104h-32q-32 0 -60 10.5t-57 34.5q2 -13 2 -29q0 -40 -13.5 -88t-38 -90t-54.5 -66 q-25 -19 -59 -28.5t-69 -9.5q-27 0 -50.5 6.5zM374.5 579.5q13.5 -23.5 13.5 -56.5q0 -41 -23 -58.5t-70 -17.5h-119q0 25 6.5 36t14 11t11.5 1q6 7 8 18.5t2 29.5q-3 59 -6 91t-10 45l37 32l18 -46q-11 -12 -14.5 -36.5t-5.5 -68.5l-2 -38q25 37 52 59t50 22 q24 0 37.5 -23.5zM347 502q11 5 11 19t-10.5 25t-24.5 11q-16 0 -35.5 -16t-45.5 -44h70q24 0 35 5z" />
<glyph unicode="&#x6a9;" arabic-form="final" d="M518 104v-104h-9q-15 0 -33.5 29t-40.5 85q-21 -48 -61 -81t-96 -33h-167q-50 0 -80.5 26t-30.5 69q0 40 11.5 75t30.5 52q7 -3 7 -24q0 -6 -2 -22v-11q0 -28 17 -44.5t47 -16.5l107 -1q58 0 98.5 4t60.5 15q9 10 9 22q0 30 -49.5 68.5t-109 68.5t-70.5 28q-11 0 -17 6.5 t-6 24.5q0 30 15 83q29 46 91 94t130 86.5t115 55.5l-10 -94l-283 -168q54 -17 106.5 -47t91 -65.5t53.5 -67.5q17 -31 31 -59q15 -31 22.5 -42.5t12.5 -11.5h9z" />
<glyph unicode="&#x6a9;" arabic-form="initial" d="M475 565l-283 -168q59 -18 116 -52.5t95.5 -73.5t44.5 -72q2 -5 2 -18q0 -35 -20.5 -78t-59 -73t-92.5 -30h-278v104h111l107 -1q58 0 98.5 4t60.5 15q9 10 9 22q0 30 -49.5 68.5t-109 68.5t-70.5 28q-11 0 -17 6.5t-6 24.5q0 30 15 83q29 46 91 94t130 86.5t115 55.5z " />
<glyph unicode="&#x6a9;" arabic-form="medial" d="M518 104v-104h-28q-29 0 -59.5 31t-54.5 84q-20 -48 -60.5 -81.5t-97.5 -33.5h-218v104h52l106 -1q59 0 99 4t61 15q9 10 9 22q0 30 -49.5 68.5t-109 68.5t-70.5 28q-11 0 -17 6.5t-6 24.5q0 30 15 83q28 46 90.5 94t130.5 86.5t115 55.5l-10 -94l-284 -168 q53 -17 105 -46.5t90.5 -64t53.5 -65.5q5 -9 10.5 -21t8.5 -18q8 -19 15 -31t16 -21q14 -12 30.5 -19t31.5 -7h25z" />
<glyph unicode="&#x6af;" arabic-form="final" d="M256.5 645q-75.5 -51 -121.5 -98l-11 51q56 48 132 99.5t158 96.5l11 -52q-93 -46 -168.5 -97zM518 104v-104h-9q-15 0 -33.5 29t-40.5 85q-21 -48 -61 -81t-96 -33h-167q-50 0 -80.5 26t-30.5 69q0 40 11.5 75t30.5 52q7 -3 7 -24q0 -6 -2 -22v-11q0 -28 17 -44.5 t47 -16.5l107 -1q58 0 98.5 4t60.5 15q9 10 9 22q0 30 -49.5 68.5t-109 68.5t-70.5 28q-11 0 -17 6.5t-6 24.5q0 30 15 83q29 46 91 94t130 86.5t115 55.5l-10 -94l-283 -168q54 -17 106.5 -47t91 -65.5t53.5 -67.5q17 -31 31 -59q15 -31 22.5 -42.5t12.5 -11.5h9z" />
<glyph unicode="&#x6af;" arabic-form="initial" d="M263.5 653q-75.5 -51 -121.5 -98l-10 51q55 48 131 99.5t159 96.5l10 -52q-93 -46 -168.5 -97zM475 565l-283 -168q59 -18 116 -52.5t95.5 -73.5t44.5 -72q2 -5 2 -18q0 -35 -20.5 -78t-59 -73t-92.5 -30h-278v104h111l107 -1q58 0 98.5 4t60.5 15q9 10 9 22 q0 30 -49.5 68.5t-109 68.5t-70.5 28q-11 0 -17 6.5t-6 24.5q0 30 15 83q29 46 91 94t130 86.5t115 55.5z" />
<glyph unicode="&#x6af;" arabic-form="medial" d="M211.5 653q-75.5 -51 -121.5 -98l-10 51q55 48 131 99.5t159 96.5l10 -52q-93 -46 -168.5 -97zM518 104v-104h-28q-29 0 -59.5 31t-54.5 84q-20 -48 -60.5 -81.5t-97.5 -33.5h-218v104h52l106 -1q59 0 99 4t61 15q9 10 9 22q0 30 -49.5 68.5t-109 68.5t-70.5 28 q-11 0 -17 6.5t-6 24.5q0 30 15 83q28 46 90.5 94t130.5 86.5t115 55.5l-10 -94l-284 -168q53 -17 105 -46.5t90.5 -64t53.5 -65.5q5 -9 10.5 -21t8.5 -18q8 -19 15 -31t16 -21q14 -12 30.5 -19t31.5 -7h25z" />
<glyph unicode="&#x6ba;" arabic-form="final" d="M42 -189.5q-42 59.5 -42 146.5q0 18 3 49q6 56 15 87.5t27 58.5l25 -16q-6 -15 -10.5 -42t-4.5 -61q0 -88 30 -130.5t101 -54.5q15 -2 30 -2q49 0 93.5 23.5t71.5 64.5t27 89q0 17 -3 31q-8 36 -33.5 90t-42.5 80l75 75q9 -18 23 -60q21 -64 39.5 -99.5t39.5 -35.5h12 v-104h-12q-9 0 -15 1.5t-14 9t-21 23.5q0 -104 -36 -169.5t-91 -95t-117 -29.5q-8 0 -25 1q-103 10 -145 69.5z" />
<glyph unicode="&#x6c1;" arabic-form="final" d="M89 13q0 45 20.5 114.5t51.5 120t62 50.5q20 0 40 -15t30 -34l16 -31q5 -9 16.5 -31t20.5 -36q14 -22 31 -32t39.5 -12.5t63.5 -2.5h38v-104h-87q-54 0 -92 22t-58 49t-41 66q-6 12 -11 17t-15 5q-11 0 -16.5 -5t-10 -14t-15.5 -45q-19 -57 -34 -90t-31 -35 q-18 -1 -18 43z" />
<glyph unicode="&#x6c1;" arabic-form="initial" d="M474.5 80.5q-25.5 -42.5 -67.5 -63.5q-33 -35 -51.5 -63t-18.5 -48q0 -22 25 -31q33 -11 51 -25t18 -44q0 -32 -19.5 -50.5t-47.5 -18.5q-43 0 -61.5 34t-18.5 77q0 9 2 22q8 57 72 131q-13 -1 -20 -1h-338v104h360q23 0 38 9.5t15 29.5q0 15 -14 74t-25 86l75 74 q14 -36 32.5 -106t18.5 -107q0 -41 -25.5 -83.5z" />
<glyph unicode="&#x6c1;" arabic-form="medial" d="M145 -276q-7 10 -13 44q-6 33 -9.5 73.5t-3.5 74.5q0 54 13 114q4 18 4 23t-4 5q-1 0 -17.5 -16t-36.5 -29t-40 -13h-38v104h28q33 0 56 15t49 42q20 22 35.5 32.5t32.5 10.5q13 0 19 -7t6 -25q0 -28 -19 -139q-2 -18 -23 -153q39 82 82 132.5t79.5 71t61.5 20.5h111 v-104h-44q-88 0 -153.5 -48t-90.5 -128q-4 -13 -6 -23q-12 -43 -23.5 -65t-36.5 -22q-12 0 -19 10z" />
<glyph unicode="&#x6be;" arabic-form="final" d="M518 0h-167q-10 -2 -20 -2q-29 0 -64 6t-54 25l-172 -108q-10 -7 -19.5 -7t-15.5 13t-6 25q0 15 17.5 32t69.5 47l27 16q-24 8 -33 24t-9 42q0 51 25 88t61 56.5t68 20.5q26 94 58.5 159t74.5 65q39 0 72 -58t52.5 -133t19.5 -115q0 -44 -28 -92h43v-104zM309 99.5 q17 -1.5 31 -1.5q85 0 85 63q0 29 -13.5 88.5t-34.5 106t-45 46.5q-15 0 -27.5 -19.5t-33.5 -61.5q-19 -38 -23 -45q32 -7 52.5 -35t20.5 -66q0 -23 -8 -38.5t-29 -33.5q8 -2 25 -3.5zM247 115q18 11 18 30q0 16 -11 37.5t-28 37.5t-33 16q-13 0 -27 -12t-23 -30.5t-9 -37.5 q0 -25 17.5 -38.5t48.5 -13.5q29 0 47 11z" />
<glyph unicode="&#x6be;" arabic-form="initial" d="M431 444q33 -58 52.5 -133t19.5 -115q0 -46 -29.5 -91.5t-74.5 -75t-87 -29.5h-312v104h72q0 60 26 98.5t61.5 56.5t66.5 19q26 94 58.5 159t74.5 65q39 0 72 -58zM425 161q0 29 -13.5 88.5t-34.5 106t-45 46.5q-15 0 -28 -19.5t-33 -60.5q-19 -38 -23 -45 q32 -7 52.5 -35t20.5 -67q0 -23 -8 -38.5t-29 -33.5q8 -2 25 -3.5t31 -1.5q85 0 85 63zM247 115q18 11 18 30q0 16 -11 37.5t-28 37.5t-33 16q-13 0 -27 -12t-23 -30.5t-9 -37.5q0 -25 17.5 -38.5t48.5 -13.5q29 0 47 11z" />
<glyph unicode="&#x6be;" arabic-form="medial" d="M518 104v-104h-204h-2h-312v104h72q0 60 26 98.5t61.5 56.5t66.5 19q26 94 58.5 159t74.5 65q39 0 72 -58t52.5 -133t19.5 -115q0 -45 -30 -92h45zM309 99.5q17 -1.5 31 -1.5q85 0 85 63q0 29 -13.5 88.5t-34.5 106t-45 46.5q-15 0 -28 -19.5t-33 -60.5q-19 -38 -23 -45 q32 -7 52.5 -35t20.5 -67q0 -23 -8 -38.5t-29 -33.5q8 -2 25 -3.5zM247 115q18 11 18 30q0 16 -11 37.5t-28 37.5t-33 16q-13 0 -27 -12t-23 -30.5t-9 -37.5q0 -25 17.5 -38.5t48.5 -13.5q29 0 47 11z" />
<glyph unicode="&#x6d2;" arabic-form="final" d="M88 -219q-67 24 -67 91q0 41 25 90.5t66 80.5q46 34 106 47.5t119 13.5h181v-104h-224q-53 0 -84.5 -7.5t-60.5 -25.5q-19 -13 -38.5 -31t-19.5 -34q0 -25 50.5 -33.5t136.5 -8.5q63 0 155 3q41 2 72 2l-3 -66q-77 -26 -130 -34t-109 -8q-108 0 -175 24z" />
<glyph unicode="&#x6d3;" arabic-form="final" d="M184 230q-3 0 -4.5 5l-1.5 5q-5 16 -5 20q0 8 12 15l41 24q-43 15 -43 55q0 23 11.5 47.5t31 40t41.5 15.5q20 0 29.5 -13.5t10.5 -40.5v-3q0 -6 -2.5 -9t-6.5 -3q-3 0 -20.5 9t-32.5 9q-27 0 -27 -21.5t13.5 -43t43.5 -21.5h41q13 0 18 -1.5t9 -9.5l8 -12q1 -2 1 -5 q0 -8 -15 -12q-76 -17 -96.5 -24t-54.5 -25q0 -1 -2 -1zM88 -219q-67 24 -67 91q0 41 25 90.5t66 80.5q46 34 106 47.5t119 13.5h181v-104h-224q-53 0 -84.5 -7.5t-60.5 -25.5q-19 -13 -38.5 -31t-19.5 -34q0 -25 50.5 -33.5t136.5 -8.5q63 0 155 3q41 2 72 2l-3 -66 q-77 -26 -130 -34t-109 -8q-108 0 -175 24z" />
<glyph unicode="&#x6cc;" arabic-form="final" d="M43.5 -210q-43.5 49 -43.5 150q0 64 20.5 117t75.5 114l11 -16q-34 -57 -47 -97t-13 -82q0 -50 15 -77.5t45.5 -38.5t84.5 -11q72 0 141.5 15t69.5 47q0 16 -15.5 34t-30 31.5t-18.5 16.5q-8 8 -20 19q-24 22 -53 46l29 72q105 -26 223 -26v-104q-36 -1 -58.5 1.5 t-45.5 13.5q59 -58 59 -133q0 -45 -21.5 -68t-65.5 -37q-39 -13 -95 -24.5t-107 -11.5q-97 0 -140.5 49z" />
<glyph unicode="&#x6cc;" arabic-form="initial" d="M0 104h360q23 0 38 9.5t15 29.5q0 15 -14 74t-25 86l75 74q14 -36 32.5 -106t18.5 -107t-21 -75.5t-57.5 -63.5t-83.5 -25h-338v104zM267 -189l63 69l64 -67l-62 -70zM101 -191l63 69l64 -67l-62 -70z" />
<glyph unicode="&#x6cc;" arabic-form="medial" d="M518 0q-56 0 -90.5 10.5t-56.5 36.5t-37 74q-14 -45 -33 -71t-48.5 -38t-75.5 -12h-177v104h170q51 0 76.5 4.5t39.5 23.5t14 60q0 29 -8 78l96 62q-1 -18 -1 -100q0 -77 1 -89q1 -18 16 -26.5t40.5 -10.5t73.5 -2v-104zM267 -189l63 69l64 -67l-62 -70zM101 -191l63 69 l64 -67l-62 -70z" />
<glyph unicode="&#xfccc;" arabic-form="initial" d="M493 44q0 -11 -13 -26l-31 -36q-16 -20 -33 -20q-12 0 -27 11l-60 42q-17 12 -27 32q-34 -23 -82 -35t-96 -12h-124v104h216q40 0 53.5 21t13.5 60q0 53 -13.5 174t-29.5 215l97 85l67 -116q-21 -20 -48 -50q0 -33 1 -53q1 -67 1 -146v-150q0 -9 -1 -14q26 -22 84 -47 q25 -11 36 -18q16 -9 16 -21z" />
<glyph unicode="&#xfcd1;" arabic-form="initial" d="M417.5 512q39.5 -37 63.5 -78q-1 -42 -18.5 -79.5t-39.5 -57.5q-21 -18 -51 -28.5t-79 -22.5l-56 -14q-42 -17 -42 -48t42 -74q32 -22 97 -52q39 -17 47 -22q16 -10 16 -21t-14 -27l-30 -35q-10 -11 -17.5 -15.5t-15.5 -4.5q-12 0 -27 10l-75 57q-15 12 -25 28 q-28 -28 -76 -28h-117v104h139l-9 23q-6 14 -6 35q0 18 4 36.5t10 30.5q12 24 50 50.5t82.5 46.5t73.5 26q-44 10 -66 34.5t-22 55.5q0 12 5.5 25t21.5 35q19 26 31.5 36.5t28.5 10.5q35 0 74.5 -37z" />
<glyph unicode="&#xfdf2;" horiz-adv-x="2072" arabic-form="isolated" d="M1822 659v-555l-55 -132h-12l-29 593zM1385 619l67 -115q-19 -19 -28 -40t-13.5 -60t-4.5 -110v-150q0 -91 -56 -125t-145 -34q-95 0 -153.5 33t-68.5 103q-26 -65 -84 -100.5t-158 -35.5q-79 0 -127.5 22t-71.5 53.5t-41 76.5l-30 -43q-24 -16 -70 -16q-29 0 -58.5 6 t-49.5 16q-18 9 -25 19.5t-7 29.5q0 66 73 143q60 63 144 110v56l61 44q3 -146 7 -209.5t8 -87.5q9 -46 33.5 -71t67 -35t111.5 -10q64 0 99.5 11t53.5 44.5t18 100.5q0 68 -22 248l-3 26l106 78l6 -1q2 -17 2 -38q0 -53 -6 -159q0 -22 -2.5 -79t-2.5 -90q0 -32 3 -45 q3 -23 24 -45t62.5 -36.5t100.5 -14.5q55 0 84 12.5t39 34.5t10 54q0 45 -13 144.5t-29 199.5zM499 194q1 11 1 31q0 38 -8 105q-43 -27 -74.5 -49.5t-57.5 -51.5q-17 -20 -17 -31q0 -9 13 -12.5t41 -3.5q51 0 102 12z" />
<glyph unicode="&#x622;" arabic-form="final" d="M13 701q9 29 25 50.5t34 32.5t32 11q10 0 16.5 -4t17.5 -13q15 -13 29 -20t37 -7q21 0 48.5 9.5t78.5 34.5q5 0 8.5 -7t3.5 -16.5t-4 -19.5t-10 -17q-10 -11 -31 -24t-46.5 -23t-45.5 -10q-31 0 -64 23.5t-51 55.5q-30 -16 -52 -83zM187.5 35q-38.5 35 -40.5 109l-3 85 q-3 131 -5.5 181.5t-8.5 148.5l92 71v-443q0 -45 16.5 -64t57.5 -19h222v-104h-235q-57 0 -95.5 35z" />
<glyph unicode="&#x623;" arabic-form="final" d="M81 649q-3 0 -6 11q-2 6 -4 12.5t-2 9.5q0 5 3 9t11 8l45 26q-47 17 -47 63q0 25 12.5 52t34 45.5t47.5 18.5q23 0 33.5 -15.5t12.5 -46.5q0 -8 -3 -12t-8 -4q-3 1 -23 10.5t-37 9.5q-30 0 -30 -24.5t15 -48.5t49 -24q11 0 18 1h28q14 0 19.5 -2.5t10.5 -10.5l9 -13 q1 -3 1 -5q0 -6 -5 -9.5t-11 -5.5q-48 -11 -79 -18.5t-47.5 -14t-43.5 -21.5q0 -1 -3 -1zM187.5 35q-38.5 35 -40.5 109l-3 85q-3 131 -5.5 181.5t-8.5 148.5l92 71v-443q0 -45 16.5 -64t57.5 -19h222v-104h-235q-57 0 -95.5 35z" />
<glyph unicode="&#x624;" arabic-form="final" d="M156 437q-4 0 -5.5 5.5l-1.5 5.5q-5 16 -5 20q0 9 13 16l41 24q-43 15 -43 57q0 23 11.5 48.5t31.5 42t43 16.5q21 0 30.5 -14.5t11.5 -42.5v-2q0 -5 -2.5 -9t-6.5 -4q-4 1 -22.5 10t-33.5 9q-28 0 -28 -22.5t14 -44.5t45 -22l43 1q14 0 18.5 -2t9.5 -10l8 -13q1 -1 1 -4 q0 -8 -15 -13q-45 -9 -73.5 -16.5t-43 -14t-39.5 -20.5q0 -1 -2 -1zM518 0q-58 0 -96 -1q-9 -77 -41 -136t-87.5 -92.5t-130.5 -33.5q-20 0 -41 5t-61 23v38h46q19 0 59 11.5t77 35.5q86 53 102 149h-39q-65 0 -101 14t-50 39.5t-14 63.5q0 52 19.5 107.5t49.5 92t58 36.5 q27 0 58.5 -32t56.5 -83q31 -62 39 -133h96v-104zM212.5 122.5q10.5 -12.5 34 -15.5t82.5 -3h14q-7 42 -24.5 75.5t-37 53t-33.5 23.5q-2 1 -7 1q-18 0 -28.5 -26.5t-10.5 -63.5q0 -32 10.5 -44.5z" />
<glyph unicode="&#x625;" arabic-form="final" d="M187.5 35q-38.5 35 -40.5 109l-3 85q-3 131 -5.5 181.5t-8.5 148.5l92 71v-443q0 -45 16.5 -64t57.5 -19h222v-104h-235q-57 0 -95.5 35zM168 -363q-5 0 -7 12q-6 19 -6 22q0 9 14 17l45 26q-48 17 -48 63q0 25 13 52t34.5 45.5t46.5 18.5q23 0 34 -15.5t12 -46.5 q0 -8 -3 -12t-7 -4q-3 1 -23 10.5t-37 9.5q-30 0 -30 -25t15 -49t48 -24q11 0 19 1l28 1q14 0 19.5 -2.5t10.5 -10.5l8 -14q2 -3 2 -5q0 -4 -5 -8t-11 -5q-64 -15 -87.5 -21t-39.5 -13t-43 -22q-1 -1 -2 -1z" />
<glyph unicode="&#x626;" arabic-form="final" d="M206 295q-4 0 -5 4.5t-1 5.5q-5 15 -5 20q0 7 11 15l41 23q-43 15 -43 56q0 22 11.5 46.5t31 40.5t42.5 16q20 0 29 -14t11 -41v-2q0 -6 -3 -9.5t-6 -3.5q-3 1 -21 9.5t-33 8.5q-27 0 -27 -21.5t13.5 -43t43.5 -21.5l41 1q13 0 18 -2t10 -9l7 -13q1 -1 1 -4q0 -8 -14 -12 q-76 -18 -97 -24.5t-54 -25.5h-2zM43.5 -210q-43.5 49 -43.5 150q0 64 20.5 117t75.5 114l11 -16q-34 -57 -47 -97t-13 -82q0 -50 15 -77.5t45.5 -38.5t84.5 -11q72 0 141.5 15t69.5 47q0 16 -15.5 34t-30 31.5t-18.5 16.5q-8 8 -20 19q-24 22 -53 46l29 72q105 -26 223 -26 v-104q-36 -1 -58.5 1.5t-45.5 13.5q59 -58 59 -133q0 -45 -21.5 -68t-65.5 -37q-39 -13 -95 -24.5t-107 -11.5q-97 0 -140.5 49z" />
<glyph unicode="&#x626;" arabic-form="initial" d="M163 407q-4 0 -5 5l-1 5q-5 16 -5 20q0 8 12 15l40 24q-43 15 -43 55q0 23 11.5 47t31 40t42.5 16q20 0 29 -13.5t11 -41.5v-2q0 -6 -3 -9t-6 -3t-21 8.5t-33 8.5q-27 0 -27 -21.5t13.5 -42.5t43.5 -21h42q12 0 17 -1.5t10 -9.5l7 -12q1 -2 1 -5q0 -8 -14 -12 q-76 -17 -97 -24t-54 -25q-1 -1 -2 -1zM0 104h360q23 0 38 9.5t15 29.5q0 15 -14 74t-25 86l75 74q14 -36 32.5 -106t18.5 -107t-21 -75.5t-57.5 -63.5t-83.5 -25h-338v104z" />
<glyph unicode="&#x626;" arabic-form="medial" d="M172 415q-3 0 -4.5 5t-1.5 6q-5 15 -5 19q0 8 12 15l41 24q-43 15 -43 55q0 23 11.5 47t31 40t41.5 16q20 0 29.5 -13.5t10.5 -40.5v-3q0 -6 -2.5 -9t-6.5 -3q-3 1 -20.5 9.5t-32.5 8.5q-27 0 -27 -21.5t13.5 -43t43.5 -21.5h41q13 0 18 -1.5t10 -9.5l7 -12q1 -2 1 -5 q0 -8 -14 -12q-77 -17 -97.5 -24t-53.5 -25q-1 -1 -3 -1zM518 0q-56 0 -90.5 10.5t-56.5 36.5t-37 74q-14 -45 -33 -71t-48.5 -38t-75.5 -12h-177v104h170q51 0 76.5 4.5t39.5 23.5t14 60q0 29 -8 78l96 62q-1 -18 -1 -100q0 -77 1 -89q1 -18 16 -26.5t40.5 -10.5t73.5 -2 v-104z" />
<glyph unicode="&#x627;" arabic-form="final" d="M187.5 35q-38.5 35 -40.5 109l-3 85q-3 131 -5.5 181.5t-8.5 148.5l92 71v-443q0 -45 16.5 -64t57.5 -19h222v-104h-235q-57 0 -95.5 35z" />
<glyph unicode="&#x628;" arabic-form="final" d="M75 15q-36 15 -55.5 43t-19.5 64q0 42 17 90t44 86l38 -5q-26 -69 -26 -117q0 -35 14 -53.5t41 -18.5h204q29 0 54 19t36 51q12 39 15 57l54 33q-11 -42 -18 -76q-2 -12 -2 -23q0 -28 12.5 -44.5t34.5 -16.5v-104h-4q-53 0 -70 124q-14 -124 -157 -124h-129q-47 0 -83 15 zM195 -192l65 68l63 -68l-63 -70z" />
<glyph unicode="&#x628;" arabic-form="initial" d="M0 104h360q23 0 38 9.5t15 29.5q0 15 -14 74t-25 86l75 74q14 -36 32.5 -106t18.5 -107t-21 -75.5t-57.5 -63.5t-83.5 -25h-338v104zM195 -192l65 68l63 -68l-63 -70z" />
<glyph unicode="&#x628;" arabic-form="medial" d="M518 0q-56 0 -90.5 10.5t-56.5 36.5t-37 74q-14 -45 -33 -71t-48.5 -38t-75.5 -12h-177v104h170q51 0 76.5 4.5t39.5 23.5t14 60q0 29 -8 78l96 62q-1 -18 -1 -100q0 -77 1 -89q1 -18 16 -26.5t40.5 -10.5t73.5 -2v-104zM258 -192l65 68l63 -68l-63 -70z" />
<glyph unicode="&#x629;" arabic-form="final" d="M518 104v-104h-88q-59 0 -93.5 36.5t-45.5 93.5l-31 -43q-23 -15 -69 -15q-29 0 -58.5 6t-49.5 15q-19 9 -25.5 20t-6.5 29q0 64 73 143q37 40 76.5 67.5t67.5 42.5l-15 56l72 29l1 -35q5 -122 6.5 -156.5t7.5 -84.5q6 -48 21 -74t53 -26h104zM231 178q21 3 50 9 q1 11 1 31q0 37 -7 104q-83 -50 -125 -99q-18 -21 -18 -31q0 -9 13 -13t40 -4q25 0 46 3zM269 602l63 69l64 -67l-62 -70zM103 600l62 69l64 -67l-61 -70z" />
<glyph unicode="&#x62a;" arabic-form="final" d="M75 15q-36 15 -55.5 43t-19.5 64q0 42 17 90t44 86l38 -5q-26 -69 -26 -117q0 -35 14 -53.5t41 -18.5h204q29 0 54 19t36 51q12 39 15 57l54 33q-11 -42 -18 -76q-2 -12 -2 -23q0 -28 12.5 -44.5t34.5 -16.5v-104h-4q-53 0 -70 124q-14 -124 -157 -124h-129q-47 0 -83 15 zM297 463l63 69l64 -67l-62 -70zM131 461l62 69l65 -67l-62 -70z" />
<glyph unicode="&#x62a;" arabic-form="initial" d="M0 104h360q23 0 38 9.5t15 29.5q0 15 -14 74t-25 86l75 74q14 -36 32.5 -106t18.5 -107t-21 -75.5t-57.5 -63.5t-83.5 -25h-338v104zM229 463l63 69l65 -67l-62 -70zM64 461l62 69l64 -67l-61 -70z" />
<glyph unicode="&#x62a;" arabic-form="medial" d="M518 0q-56 0 -90.5 10.5t-56.5 36.5t-37 74q-14 -45 -33 -71t-48.5 -38t-75.5 -12h-177v104h170q51 0 76.5 4.5t39.5 23.5t14 60q0 29 -8 78l96 62q-1 -18 -1 -100q0 -77 1 -89q1 -18 16 -26.5t40.5 -10.5t73.5 -2v-104zM229 463l63 69l64 -67l-62 -70zM63 461l62 69 l64 -67l-61 -70z" />
<glyph unicode="&#x62b;" arabic-form="final" d="M75 15q-36 15 -55.5 43t-19.5 64q0 42 17 90t44 86l38 -5q-26 -69 -26 -117q0 -35 14 -53.5t41 -18.5h204q29 0 54 19t36 51q12 39 15 57l54 33q-11 -42 -18 -76q-2 -12 -2 -23q0 -28 12.5 -44.5t34.5 -16.5v-104h-4q-53 0 -70 124q-14 -124 -157 -124h-129q-47 0 -83 15 zM197 542l64 68l64 -68l-64 -70zM134 403l64 68l64 -68l-64 -70zM283 403l65 68l63 -68l-63 -70z" />
<glyph unicode="&#x62b;" arabic-form="initial" d="M0 104h360q23 0 38 9.5t15 29.5q0 15 -14 74t-25 86l75 74q14 -36 32.5 -106t18.5 -107t-21 -75.5t-57.5 -63.5t-83.5 -25h-338v104zM115 582l65 69l63 -69l-63 -69zM53 443l64 69l64 -69l-64 -69zM202 443l64 69l64 -69l-64 -69z" />
<glyph unicode="&#x62b;" arabic-form="medial" d="M518 0q-56 0 -90.5 10.5t-56.5 36.5t-37 74q-14 -45 -33 -71t-48.5 -38t-75.5 -12h-177v104h170q51 0 76.5 4.5t39.5 23.5t14 60q0 29 -8 78l96 62q-1 -18 -1 -100q0 -77 1 -89q1 -18 16 -26.5t40.5 -10.5t73.5 -2v-104zM149 582l64 69l64 -69l-64 -69zM86 443l64 69 l64 -69l-64 -69zM235 443l65 69l63 -69l-63 -69z" />
<glyph unicode="&#x62c;" arabic-form="final" d="M169 52q-63 -67 -63 -162q0 -75 43 -112t120 -37q51 0 104 15t87 35l11 -13q-34 -62 -89.5 -100t-138.5 -38q-68 0 -117.5 28t-75.5 79t-26 119q0 87 43 158t125 118t196 65q-59 26 -92.5 37t-72.5 11t-80.5 -12t-77.5 -34l-6 5l32 100q30 23 66.5 34t73.5 11q36 0 62 -8 t59 -25q36 -19 66 -28t73 -9q1 -18 -6 -40.5t-14 -38.5t-9 -21q-17 2 -44.5 -3t-58.5 -16q8 -35 26 -50.5t40 -15.5h93v-104h-62q-57 0 -93 40.5t-40 116.5q-91 -38 -154 -105zM229 -97l64 69l64 -69l-64 -69z" />
<glyph unicode="&#x62c;" arabic-form="initial" d="M0 104h137q57 0 123.5 11.5t116.5 49.5q22 16 34 33t14 25q-124 53 -206 53q-38 0 -71 -10.5t-67 -35.5l-6 5l32 98q64 44 134 44q37 0 69 -10t83 -30q38 -17 64.5 -26t53.5 -13l-19 -96q-19 -1 -29 -10t-24 -30q-14 -22 -30 -41.5t-43 -42.5q-41 -34 -79.5 -51t-71 -22 t-71.5 -5h-144v104zM195 -192l65 68l63 -68l-63 -70z" />
<glyph unicode="&#x62c;" arabic-form="medial" d="M518 104v-104h-16q-43 0 -59.5 43.5t-17.5 97.5q-23 -31 -59 -63q-41 -34 -79.5 -51t-71 -22t-71.5 -5h-144v104h137q57 0 123.5 11.5t116.5 49.5q22 16 34 33t14 25q-124 53 -206 53q-38 0 -71 -10.5t-67 -35.5l-6 5l32 98q64 44 134 44q37 0 69 -10t83 -30 q38 -17 64.5 -26t53.5 -13l-19 -96q-21 -2 -33 -14v-4q0 -29 2 -44.5t11.5 -25.5t29.5 -10h16zM195 -192l65 68l63 -68l-63 -70z" />
<glyph unicode="&#x62d;" arabic-form="final" d="M169 52q-63 -67 -63 -162q0 -75 43 -112t120 -37q51 0 104 15t87 35l11 -13q-34 -62 -89.5 -100t-138.5 -38q-68 0 -117.5 28t-75.5 79t-26 119q0 87 43 158t125 118t196 65q-59 26 -92.5 37t-72.5 11t-80.5 -12t-77.5 -34l-6 5l32 100q30 23 66.5 34t73.5 11q36 0 62 -8 t59 -25q36 -19 66 -28t73 -9q1 -18 -6 -40.5t-14 -38.5t-9 -21q-17 2 -44.5 -3t-58.5 -16q8 -35 26 -50.5t40 -15.5h93v-104h-62q-57 0 -93 40.5t-40 116.5q-91 -38 -154 -105z" />
<glyph unicode="&#x62d;" arabic-form="initial" d="M0 104h137q57 0 123.5 11.5t116.5 49.5q22 16 34 33t14 25q-124 53 -206 53q-38 0 -71 -10.5t-67 -35.5l-6 5l32 98q64 44 134 44q37 0 69 -10t83 -30q38 -17 64.5 -26t53.5 -13l-19 -96q-19 -1 -29 -10t-24 -30q-14 -22 -30 -41.5t-43 -42.5q-41 -34 -79.5 -51t-71 -22 t-71.5 -5h-144v104z" />
<glyph unicode="&#x62d;" arabic-form="medial" d="M518 104v-104h-16q-43 0 -59.5 43.5t-17.5 97.5q-23 -31 -59 -63q-41 -34 -79.5 -51t-71 -22t-71.5 -5h-144v104h137q57 0 123.5 11.5t116.5 49.5q22 16 34 33t14 25q-124 53 -206 53q-38 0 -71 -10.5t-67 -35.5l-6 5l32 98q64 44 134 44q37 0 69 -10t83 -30 q38 -17 64.5 -26t53.5 -13l-19 -96q-21 -2 -33 -14v-4q0 -29 2 -44.5t11.5 -25.5t29.5 -10h16z" />
<glyph unicode="&#x62e;" arabic-form="final" d="M169 52q-63 -67 -63 -162q0 -75 43 -112t120 -37q51 0 104 15t87 35l11 -13q-34 -62 -89.5 -100t-138.5 -38q-68 0 -117.5 28t-75.5 79t-26 119q0 87 43 158t125 118t196 65q-59 26 -92.5 37t-72.5 11t-80.5 -12t-77.5 -34l-6 5l32 100q30 23 66.5 34t73.5 11q36 0 62 -8 t59 -25q36 -19 66 -28t73 -9q1 -18 -6 -40.5t-14 -38.5t-9 -21q-17 2 -44.5 -3t-58.5 -16q8 -35 26 -50.5t40 -15.5h93v-104h-62q-57 0 -93 40.5t-40 116.5q-91 -38 -154 -105zM195 518l64 69l64 -69l-64 -70z" />
<glyph unicode="&#x62e;" arabic-form="initial" d="M0 104h137q57 0 123.5 11.5t116.5 49.5q22 16 34 33t14 25q-124 53 -206 53q-38 0 -71 -10.5t-67 -35.5l-6 5l32 98q64 44 134 44q37 0 69 -10t83 -30q38 -17 64.5 -26t53.5 -13l-19 -96q-19 -1 -29 -10t-24 -30q-14 -22 -30 -41.5t-43 -42.5q-41 -34 -79.5 -51t-71 -22 t-71.5 -5h-144v104zM195 533l64 69l64 -69l-64 -70z" />
<glyph unicode="&#x62e;" arabic-form="medial" d="M518 104v-104h-16q-43 0 -59.5 43.5t-17.5 97.5q-23 -31 -59 -63q-41 -34 -79.5 -51t-71 -22t-71.5 -5h-144v104h137q57 0 123.5 11.5t116.5 49.5q22 16 34 33t14 25q-124 53 -206 53q-38 0 -71 -10.5t-67 -35.5l-6 5l32 98q64 44 134 44q37 0 69 -10t83 -30 q38 -17 64.5 -26t53.5 -13l-19 -96q-21 -2 -33 -14v-4q0 -29 2 -44.5t11.5 -25.5t29.5 -10h16zM224 533l65 69l63 -69l-63 -70z" />
<glyph unicode="&#x62f;" arabic-form="final" d="M103 4.5q-15 3.5 -25 16t-10 39.5q0 23 5.5 46.5t18.5 23.5q6 0 15 -7q14 -9 27.5 -14t34.5 -5h38q34 0 52.5 3t29.5 16t11 41q0 22 -5.5 48t-19.5 73l-24 87l82 83q20 -94 44 -228q11 -61 15 -75q5 -23 20 -35.5t44 -12.5h62v-104h-62q-131 0 -144 104 q-13 -43 -31 -65.5t-44.5 -31t-69.5 -8.5l-23 1q-26 1 -41 4.5z" />
<glyph unicode="&#x630;" arabic-form="final" d="M103 4.5q-15 3.5 -25 16t-10 39.5q0 23 5.5 46.5t18.5 23.5q6 0 15 -7q14 -9 27.5 -14t34.5 -5h38q34 0 52.5 3t29.5 16t11 41q0 22 -5.5 48t-19.5 73l-24 87l82 83q20 -94 44 -228q11 -61 15 -75q5 -23 20 -35.5t44 -12.5h62v-104h-62q-131 0 -144 104 q-13 -43 -31 -65.5t-44.5 -31t-69.5 -8.5l-23 1q-26 1 -41 4.5zM191 558l64 69l64 -69l-64 -70z" />
<glyph unicode="&#x631;" arabic-form="final" d="M86.5 -259.5q-23.5 6.5 -45.5 24.5v38q64 0 99 14t66 42q46 41 85.5 97t39.5 98q0 52 -36.5 109.5t-39.5 60.5l75 75q3 -5 17 -41q16 -44 31.5 -75.5t39 -55t53.5 -23.5h47v-104h-32q-32 0 -60 10.5t-57 34.5q2 -13 2 -29q0 -40 -13.5 -88t-38 -90t-54.5 -66 q-25 -19 -59 -28.5t-69 -9.5q-27 0 -50.5 6.5z" />
<glyph unicode="&#x632;" arabic-form="final" d="M86.5 -259.5q-23.5 6.5 -45.5 24.5v38q64 0 99 14t66 42q46 41 85.5 97t39.5 98q0 52 -36.5 109.5t-39.5 60.5l75 75q3 -5 17 -41q16 -44 31.5 -75.5t39 -55t53.5 -23.5h47v-104h-32q-32 0 -60 10.5t-57 34.5q2 -13 2 -29q0 -40 -13.5 -88t-38 -90t-54.5 -66 q-25 -19 -59 -28.5t-69 -9.5q-27 0 -50.5 6.5zM195 451l64 69l64 -69l-64 -69z" />
<glyph unicode="&#x633;" arabic-form="final" d="M518 104v-104q-36 0 -57 26q-23 -21 -57 -23l-13 -1q-39 -2 -59 35q-26 -26 -63 -34q-1 -149 -52.5 -224.5t-144.5 -75.5q-85 0 -132.5 60.5t-47.5 163.5q0 60 19 108t65 104l23 -35q0 -2 -15.5 -21.5t-30 -59t-14.5 -79.5q0 -44 17.5 -75t46.5 -46.5t63 -15.5 q57 0 88.5 45t31.5 132q0 49 -8.5 92t-22.5 89l88 32q17 -45 23 -110q18 2 30 11t16 27v12v71q0 21 8.5 35t23 14t24 -15.5t9.5 -33.5v-90q0 -9 4.5 -11.5t12.5 -2.5q17 0 27 6t10 17v163l72 59v-212q0 -19 -3 -33h18z" />
<glyph unicode="&#x633;" arabic-form="initial" d="M485 360v-200q0 -39 -17 -76t-49 -60.5t-74 -23.5q-29 0 -47 13.5t-28 31.5q-41 -48 -97 -48q-27 0 -44 4t-28.5 16.5t-16.5 38.5q-3 -3 -12.5 -21.5t-22 -26.5t-30.5 -8h-19v104h33q23 0 32.5 21t17.5 64q3 17 5 26q4 20 10 28t17 8t14.5 -6.5t3.5 -19.5q0 -21 -3.5 -54 t-10.5 -56q12 -8 22.5 -9.5t29.5 -1.5q36 0 53.5 13t22.5 36t5 65v40q0 9 10 18.5t29 9.5q12 0 18.5 -15.5t10.5 -64.5v-17q0 -42 -16 -85q54 0 76 6q15 4 23 14t8 27v144z" />
<glyph unicode="&#x633;" arabic-form="medial" d="M518 104v-104q-27 0 -44.5 13.5t-30.5 43.5q-20 -27 -46 -42t-55 -15q-25 0 -44 10.5t-27 26.5q-25 -24 -51 -32t-45 -8q-76 0 -84 59q-14 -26 -33.5 -41t-45.5 -15h-12v104h25q20 0 31 11t16.5 27.5t11.5 44.5l4 21q4 19 10 27t17 8t14.5 -6.5t3.5 -18.5t-1.5 -35.5 t-2.5 -35.5q-2 -18 -2 -26q0 -17 49 -17q53 0 72.5 17.5t19.5 53.5q0 16 -6 62l-2 21q-2 13 8 20.5t29 7.5q15 0 19.5 -11.5t8.5 -46.5q0 -5 1.5 -16.5t1.5 -24.5q0 -40 -14 -79l-2 -4q46 1 70 7q41 12 46 38v17q0 29 -8 121q0 11 10.5 19t24.5 8q12 0 20 -6t10 -19 q5 -47 5 -84q0 -27 -3 -45q-3 -20 -13 -50q11 -6 44 -6z" />
<glyph unicode="&#x634;" arabic-form="final" d="M518 104v-104q-36 0 -57 26q-23 -21 -57 -23l-13 -1q-39 -2 -59 35q-26 -26 -63 -34q-1 -149 -52.5 -224.5t-144.5 -75.5q-85 0 -132.5 60.5t-47.5 163.5q0 60 19 108t65 104l23 -35q0 -2 -15.5 -21.5t-30 -59t-14.5 -79.5q0 -44 17.5 -75t46.5 -46.5t63 -15.5 q57 0 88.5 45t31.5 132q0 49 -8.5 92t-22.5 89l88 32q17 -45 23 -110q18 2 30 11t16 27v12v71q0 21 8.5 35t23 14t24 -15.5t9.5 -33.5v-90q0 -9 4.5 -11.5t12.5 -2.5q17 0 27 6t10 17v163l72 59v-212q0 -19 -3 -33h18zM234 579l64 69l64 -69l-64 -70zM171 440l64 68l64 -68 l-64 -70zM320 440l65 68l63 -68l-63 -70z" />
<glyph unicode="&#x634;" arabic-form="initial" d="M485 360v-200q0 -39 -17 -76t-49 -60.5t-74 -23.5q-29 0 -47 13.5t-28 31.5q-41 -48 -97 -48q-27 0 -44 4t-28.5 16.5t-16.5 38.5q-3 -3 -12.5 -21.5t-22 -26.5t-30.5 -8h-19v104h33q23 0 32.5 21t17.5 64q3 17 5 26q4 20 10 28t17 8t14.5 -6.5t3.5 -19.5q0 -21 -3.5 -54 t-10.5 -56q12 -8 22.5 -9.5t29.5 -1.5q36 0 53.5 13t22.5 36t5 65v40q0 9 10 18.5t29 9.5q12 0 18.5 -15.5t10.5 -64.5v-17q0 -42 -16 -85q54 0 76 6q15 4 23 14t8 27v144zM226 601l65 69l63 -69l-63 -70zM164 462l64 69l64 -69l-64 -70zM313 462l64 69l64 -69l-64 -70z" />
<glyph unicode="&#x634;" arabic-form="medial" d="M518 104v-104q-27 0 -44.5 13.5t-30.5 43.5q-20 -27 -46 -42t-55 -15q-25 0 -44 10.5t-27 26.5q-25 -24 -51 -32t-45 -8q-76 0 -84 59q-14 -26 -33.5 -41t-45.5 -15h-12v104h25q20 0 31 11t16.5 27.5t11.5 44.5l4 21q4 19 10 27t17 8t14.5 -6.5t3.5 -18.5t-1.5 -35.5 t-2.5 -35.5q-2 -18 -2 -26q0 -17 49 -17q53 0 72.5 17.5t19.5 53.5q0 16 -6 62l-2 21q-2 13 8 20.5t29 7.5q15 0 19.5 -11.5t8.5 -46.5q0 -5 1.5 -16.5t1.5 -24.5q0 -40 -14 -79l-2 -4q46 1 70 7q41 12 46 38v17q0 29 -8 121q0 11 10.5 19t24.5 8q12 0 20 -6t10 -19 q5 -47 5 -84q0 -27 -3 -45q-3 -20 -13 -50q11 -6 44 -6zM256 601l64 69l64 -69l-64 -70zM193 462l65 69l63 -69l-63 -70zM343 462l64 69l64 -69l-64 -70z" />
<glyph unicode="&#x635;" arabic-form="final" d="M518 104v-104h-187h-8q-39 0 -54 1q-2 -148 -53 -223t-144 -75q-85 0 -132.5 60.5t-47.5 163.5q0 60 19 108t65 104l23 -35q0 -2 -15.5 -21.5t-30 -59t-14.5 -79.5q0 -44 17.5 -75t46.5 -46.5t63 -15.5q57 0 88.5 45t31.5 132q0 49 -8.5 92t-22.5 89l88 32q10 -28 15 -52 q24 65 43 107.5t51 77t73 34.5q51 0 70.5 -53t19.5 -150q0 -31 -11 -57h14zM407 119.5q47 14.5 47 55.5q0 32 -14 63t-37 31q-49 0 -120 -165q77 1 124 15.5z" />
<glyph unicode="&#x635;" arabic-form="initial" d="M0 104h7q9 0 14.5 8.5t5.5 26.5v39q0 21 7 32.5t21.5 11.5t21.5 -11.5t7 -33.5l-1 -44q0 -19 2 -24t12 -5q9 0 18.5 5.5t14.5 14.5q29 52 74 107t94 92t91 37q34 0 61.5 -27t42.5 -70.5t15 -89.5q0 -94 -54 -133.5t-163 -39.5h-161q-13 0 -35 16.5t-28 27.5 q-3 -10 -16 -20t-28.5 -17t-22.5 -7v104zM335 104q59 0 85.5 13.5t26.5 50.5q0 19 -12 39.5t-32 34t-40 13.5q-43 0 -90 -38.5t-112 -112.5h174z" />
<glyph unicode="&#x635;" arabic-form="medial" d="M0 104h14q9 0 14.5 8.5t5.5 26.5v83h58l-2 -89q0 -13 1.5 -17.5t5.5 -4.5q8 0 12.5 3t8.5 10q66 116 134 178t125 62q54 0 83 -53t29 -137q0 -43 -8 -71l37 1v-104h-388q-13 0 -35 16.5t-28 27.5q-3 -10 -16 -20t-28.5 -17t-22.5 -7v104zM306 104q59 0 94 11.5t35 49.5 q0 25 -12 47.5t-32 36t-42 13.5q-41 0 -91 -42t-109 -116h157z" />
<glyph unicode="&#x636;" arabic-form="final" d="M518 104v-104h-187h-8q-39 0 -54 1q-2 -148 -53 -223t-144 -75q-85 0 -132.5 60.5t-47.5 163.5q0 60 19 108t65 104l23 -35q0 -2 -15.5 -21.5t-30 -59t-14.5 -79.5q0 -44 17.5 -75t46.5 -46.5t63 -15.5q57 0 88.5 45t31.5 132q0 49 -8.5 92t-22.5 89l88 32q10 -28 15 -52 q24 65 43 107.5t51 77t73 34.5q51 0 70.5 -53t19.5 -150q0 -31 -11 -57h14zM407 119.5q47 14.5 47 55.5q0 32 -14 63t-37 31q-49 0 -120 -165q77 1 124 15.5zM278 488l65 69l63 -69l-63 -69z" />
<glyph unicode="&#x636;" arabic-form="initial" d="M0 104h7q9 0 14.5 8.5t5.5 26.5v39q0 21 7 32.5t21.5 11.5t21.5 -11.5t7 -33.5l-1 -44q0 -19 2 -24t12 -5q9 0 18.5 5.5t14.5 14.5q29 52 74 107t94 92t91 37q34 0 61.5 -27t42.5 -70.5t15 -89.5q0 -94 -54 -133.5t-163 -39.5h-161q-13 0 -35 16.5t-28 27.5 q-3 -10 -16 -20t-28.5 -17t-22.5 -7v104zM335 104q59 0 85.5 13.5t26.5 50.5q0 19 -12 39.5t-32 34t-40 13.5q-43 0 -90 -38.5t-112 -112.5h174zM195 488l64 69l64 -69l-64 -69z" />
<glyph unicode="&#x636;" arabic-form="medial" d="M0 104h14q9 0 14.5 8.5t5.5 26.5v83h58l-2 -89q0 -13 1.5 -17.5t5.5 -4.5q8 0 12.5 3t8.5 10q66 116 134 178t125 62q54 0 83 -53t29 -137q0 -43 -8 -71l37 1v-104h-388q-13 0 -35 16.5t-28 27.5q-3 -10 -16 -20t-28.5 -17t-22.5 -7v104zM306 104q59 0 94 11.5t35 49.5 q0 25 -12 47.5t-32 36t-42 13.5q-41 0 -91 -42t-109 -116h157zM195 503l64 69l64 -69l-64 -69z" />
<glyph unicode="&#x637;" arabic-form="final" d="M518 104v-104h-258h-260q0 56 13 79.5t27 24.5h9q10 0 25 3q13 20 18.5 44t3.5 63v17q-4 129 -10.5 227t-24.5 127l82 74l42 -105q-41 -43 -41 -271q0 -43 2 -93q52 71 110 120.5t107 49.5q34 0 61 -27t42 -70.5t15 -89.5q0 -41 -10 -69h47zM394 117.5q26 13.5 26 50.5 q0 19 -12 39.5t-31.5 34t-39.5 13.5q-44 0 -91 -38.5t-111 -112.5h174q59 0 85 13.5z" />
<glyph unicode="&#x637;" arabic-form="initial" d="M450.5 333q27.5 -27 42.5 -70.5t15 -89.5q0 -94 -54 -133.5t-163 -39.5h-291v104h75q11 0 20 3q15 18 20 43t3 64v17q-3 129 -10 227t-24 127l81 74l42 -105q-41 -43 -41 -273q0 -46 2 -97q53 74 112 125t109 51q34 0 61.5 -27zM420.5 117.5q26.5 13.5 26.5 50.5 q0 19 -12 39.5t-32 34t-40 13.5q-43 0 -90 -38.5t-112 -112.5h174q59 0 85.5 13.5z" />
<glyph unicode="&#x637;" arabic-form="medial" d="M518 104v-104h-258h-220h-39v104h43h5q10 0 25 3q13 20 18.5 44t3.5 63v17q-4 129 -10.5 227t-24.5 127l82 74l42 -105q-41 -43 -41 -271q0 -43 2 -93q52 71 110 120.5t107 49.5q34 0 61 -27t42 -70.5t15 -89.5q0 -41 -10 -69h47zM394 117.5q26 13.5 26 50.5 q0 19 -12 39.5t-31.5 34t-39.5 13.5q-44 0 -91 -38.5t-111 -112.5h174q59 0 85 13.5z" />
<glyph unicode="&#x638;" arabic-form="final" d="M518 104v-104h-258h-260q0 56 13 79.5t27 24.5h9q10 0 25 3q13 20 18.5 44t3.5 63v17q-4 129 -10.5 227t-24.5 127l82 74l42 -105q-41 -43 -41 -271q0 -43 2 -93q52 71 110 120.5t107 49.5q34 0 61 -27t42 -70.5t15 -89.5q0 -41 -10 -69h47zM394 117.5q26 13.5 26 50.5 q0 19 -12 39.5t-31.5 34t-39.5 13.5q-44 0 -91 -38.5t-111 -112.5h174q59 0 85 13.5zM269 488l64 69l64 -69l-64 -69z" />
<glyph unicode="&#x638;" arabic-form="initial" d="M450.5 333q27.5 -27 42.5 -70.5t15 -89.5q0 -94 -54 -133.5t-163 -39.5h-291v104h75q11 0 20 3q15 18 20 43t3 64v17q-3 129 -10 227t-24 127l81 74l42 -105q-41 -43 -41 -273q0 -46 2 -97q53 74 112 125t109 51q34 0 61.5 -27zM420.5 117.5q26.5 13.5 26.5 50.5 q0 19 -12 39.5t-32 34t-40 13.5q-43 0 -90 -38.5t-112 -112.5h174q59 0 85.5 13.5zM298 500l65 68l63 -68l-63 -70z" />
<glyph unicode="&#x638;" arabic-form="medial" d="M518 104v-104h-258h-220h-39v104h43h5q10 0 25 3q13 20 18.5 44t3.5 63v17q-4 129 -10.5 227t-24.5 127l82 74l42 -105q-41 -43 -41 -271q0 -43 2 -93q52 71 110 120.5t107 49.5q34 0 61 -27t42 -70.5t15 -89.5q0 -41 -10 -69h47zM394 117.5q26 13.5 26 50.5 q0 19 -12 39.5t-31.5 34t-39.5 13.5q-44 0 -91 -38.5t-111 -112.5h174q59 0 85 13.5zM269 500l64 68l64 -68l-64 -70z" />
<glyph unicode="&#x639;" arabic-form="final" d="M272 100q-48 -27 -81.5 -52.5t-59 -66t-25.5 -96.5q0 -144 177 -144q60 0 112.5 15t86.5 35l12 -13q-51 -65 -112.5 -101.5t-143.5 -36.5q-86 0 -150 43.5t-64 152.5q0 75 32.5 134.5t74.5 95.5t81 57q7 3 25.5 12t27 19t8.5 23q0 21 -20 40.5t-42 19.5q-30 0 -42 1.5 t-17 9.5t-5 27q0 55 37 74.5t114 19.5q54 0 84.5 -6.5t44.5 -19t20 -33.5q3 -9 3 -20q0 -30 -24 -68q-19 -29 -41 -46.5t-53 -37.5q9 -17 23.5 -25.5t32.5 -8.5h130v-104h-99q-49 0 -83 29.5t-45 81.5z" />
<glyph unicode="&#x639;" arabic-form="initial" d="M393 125q38 6 72 14l-27 -101q-98 -25 -175.5 -31.5t-209.5 -6.5h-53v104h190q-26 19 -43 52.5t-17 70.5q0 45 26.5 94t67 81t81.5 32q37 0 68.5 -27t43.5 -69l-12 -43q-25 20 -48 28t-54 8q-48 0 -82 -15t-34 -47q0 -25 18 -61t52 -62.5t77 -26.5q21 0 59 6z" />
<glyph unicode="&#x639;" arabic-form="medial" d="M518 104v-104h-31q-41 0 -58.5 3t-32.5 17q-53 51 -70 73q-58 -45 -123.5 -69t-124.5 -24h-78v104h94q181 0 181 62q0 18 -19.5 32t-40.5 14q-30 0 -42 1.5t-17.5 8t-5.5 21.5q0 46 7.5 67.5t37.5 31.5t99 10t99.5 -6t40.5 -19t17 -41q1 -5 6 -23q3 -10 -5.5 -26 t-24.5 -39q-27 -37 -61 -71q6 -6 14 -9t29 -8q14 -5 27 -5.5t42 -0.5h40z" />
<glyph unicode="&#x63a;" arabic-form="final" d="M192 525l65 68l63 -68l-63 -70zM272 100q-48 -27 -81.5 -52.5t-59 -66t-25.5 -96.5q0 -144 177 -144q60 0 112.5 15t86.5 35l12 -13q-51 -65 -112.5 -101.5t-143.5 -36.5q-86 0 -150 43.5t-64 152.5q0 75 32.5 134.5t74.5 95.5t81 57q7 3 25.5 12t27 19t8.5 23 q0 21 -20 40.5t-42 19.5q-30 0 -42 1.5t-17 9.5t-5 27q0 55 37 74.5t114 19.5q54 0 84.5 -6.5t44.5 -19t20 -33.5q3 -9 3 -20q0 -30 -24 -68q-19 -29 -41 -46.5t-53 -37.5q9 -17 23.5 -25.5t32.5 -8.5h130v-104h-99q-49 0 -83 29.5t-45 81.5z" />
<glyph unicode="&#x63a;" arabic-form="initial" d="M393 125q38 6 72 14l-27 -101q-98 -25 -175.5 -31.5t-209.5 -6.5h-53v104h190q-26 19 -43 52.5t-17 70.5q0 45 26.5 94t67 81t81.5 32q37 0 68.5 -27t43.5 -69l-12 -43q-25 20 -48 28t-54 8q-48 0 -82 -15t-34 -47q0 -25 18 -61t52 -62.5t77 -26.5q21 0 59 6zM204 574 l65 69l63 -69l-63 -69z" />
<glyph unicode="&#x63a;" arabic-form="medial" d="M518 104v-104h-31q-41 0 -58.5 3t-32.5 17q-53 51 -70 73q-58 -45 -123.5 -69t-124.5 -24h-78v104h94q181 0 181 62q0 18 -19.5 32t-40.5 14q-30 0 -42 1.5t-17.5 8t-5.5 21.5q0 46 7.5 67.5t37.5 31.5t99 10t99.5 -6t40.5 -19t17 -41q1 -5 6 -23q3 -10 -5.5 -26 t-24.5 -39q-27 -37 -61 -71q6 -6 14 -9t29 -8q14 -5 27 -5.5t42 -0.5h40zM229 519l65 69l63 -69l-63 -70z" />
<glyph unicode="&#x641;" arabic-form="final" d="M498.5 112.5q12.5 -8.5 19.5 -8.5v-104q-13 0 -33.5 15t-38.5 33t-23 25q-22 -35 -58.5 -54t-94.5 -19h-112q-81 0 -119.5 31.5t-38.5 93.5q0 29 8.5 61.5t28.5 61.5l19 -8q-20 -56 -20 -81q0 -28 19 -41.5t73 -13.5h166q66 0 89 3q-67 43 -98.5 75.5t-31.5 64.5 q0 29 15 68.5t39.5 68t49.5 28.5q33 0 64 -33t50.5 -80.5t19.5 -85.5q0 -22 -3 -40.5t-9 -44.5q7 -7 19.5 -15.5zM326.5 229q22.5 -23 75.5 -66l24 -19v17q0 33 -11 74t-28.5 70t-35.5 29q-12 0 -23 -10t-17.5 -24.5t-6.5 -25.5q0 -22 22.5 -45zM292 554l64 69l64 -69 l-64 -69z" />
<glyph unicode="&#x641;" arabic-form="initial" d="M402.5 458.5q34.5 -44.5 56 -115t21.5 -144.5q0 -78 -27 -121.5t-80 -60.5t-138 -17h-235v104h273q58 0 89 5.5t44.5 20.5t13.5 44v5q-91 -7 -121 -7q-53 0 -73 17t-20 60q0 46 17 107t46 104t64 43t69.5 -44.5zM403 277q-17 60 -42 103t-52 43q-26 0 -35.5 -36t-9.5 -73 q0 -17 4 -25t18 -11t45 -3q23 0 72 2zM263 640l64 69l64 -69l-64 -69z" />
<glyph unicode="&#x641;" arabic-form="medial" d="M518 104v-104h-41q-25 0 -63 19.5t-74 53.5q-20 -33 -61 -53t-109 -20h-170v104h142q49 0 75.5 1t42.5 4q-49 26 -82 53q-23 19 -33 37.5t-10 38.5q0 29 14.5 74t41 78.5t61.5 33.5q37 0 71.5 -35.5t56.5 -87.5t22 -96q0 -23 -6 -40.5t-17 -36.5q1 -3 14 -8.5t31 -9.5 q15 -4 27 -5t42 -1h25zM218.5 223.5q26.5 -26.5 91.5 -72.5q10 29 10 62q0 36 -14.5 67.5t-35.5 50.5t-35 19q-17 0 -30 -23.5t-13 -46.5q0 -30 26.5 -56.5zM180 559l64 69l64 -69l-64 -69z" />
<glyph unicode="&#x642;" arabic-form="final" d="M518 104v-104h-24q0 -76 -33 -135t-90.5 -91.5t-131.5 -32.5q-73 0 -127 32t-83 86t-29 119q0 80 47 137l19 -22q-10 -17 -14.5 -34.5t-4.5 -41.5q0 -79 46.5 -125.5t137.5 -46.5q82 0 131 39.5t56 116.5q-75 4 -118 18.5t-60.5 40.5t-17.5 67q0 47 18 100t47 89t59 36 q26 0 50.5 -26t46.5 -68q20 -38 34 -81t17 -73h24zM291.5 132q11.5 -13 40 -19t81.5 -9q-10 69 -31 120t-50 51q-18 0 -29.5 -18.5t-17 -43.5t-5.5 -44q0 -24 11.5 -37zM359 490l63 69l64 -68l-62 -69zM193 488l62 68l65 -66l-62 -70z" />
<glyph unicode="&#x642;" arabic-form="initial" d="M402.5 458.5q34.5 -44.5 56 -115t21.5 -144.5q0 -78 -27 -121.5t-80 -60.5t-138 -17h-235v104h273q58 0 89 5.5t44.5 20.5t13.5 44v5q-91 -7 -121 -7q-53 0 -73 17t-20 60q0 46 17 107t46 104t64 43t69.5 -44.5zM403 277q-17 60 -42 103t-52 43q-26 0 -35.5 -36t-9.5 -73 q0 -17 4 -25t18 -11t45 -3q23 0 72 2zM325 633l63 69l64 -67l-62 -70zM159 631l62 69l65 -67l-62 -70z" />
<glyph unicode="&#x642;" arabic-form="medial" d="M518 104v-104h-41q-25 0 -63 19.5t-74 53.5q-20 -33 -61 -53t-109 -20h-170v104h142q49 0 75.5 1t42.5 4q-49 26 -82 53q-23 19 -33 37.5t-10 38.5q0 29 14.5 74t41 78.5t61.5 33.5q37 0 71.5 -35.5t56.5 -87.5t22 -96q0 -23 -6 -40.5t-17 -36.5q1 -3 14 -8.5t31 -9.5 q15 -4 27 -5t42 -1h25zM218.5 223.5q26.5 -26.5 91.5 -72.5q10 29 10 62q0 36 -14.5 67.5t-35.5 50.5t-35 19q-17 0 -30 -23.5t-13 -46.5q0 -30 26.5 -56.5zM276 561l63 69l64 -68l-62 -69zM110 559l62 69l65 -67l-62 -70z" />
<glyph unicode="&#x643;" arabic-form="final" d="M64 13q-34 13 -49 40.5t-15 72.5q0 43 10.5 74.5t28.5 68.5l11 22l14 -11q-8 -19 -15 -55t-7 -56q0 -29 20.5 -47t65.5 -18h181q43 0 66.5 8t35.5 32t15 73v30q0 113 -25 335l91 77h6q0 -15 -3 -145q-5 -217 -5 -273q0 -39 1 -50q2 -30 9.5 -58.5t17.5 -28.5v-104 q-28 0 -46 45t-18 139q-6 -83 -28.5 -123t-53 -50.5t-77.5 -10.5h-137q-60 0 -94 13zM146 266l19 9q39 17 58.5 28t19.5 20q0 6 -10 11.5t-32 12.5l-21 7q-6 3 -8.5 7t-2.5 14q0 26 14.5 51t36 41t43.5 16q15 0 26 -6l-28 -43q-16 1 -31 -7t-15 -16q0 -5 7 -9.5t23 -11.5 q25 -10 39.5 -21t14.5 -28q0 -33 -47.5 -58t-109.5 -48z" />
<glyph unicode="&#x643;" arabic-form="initial" d="M475 565l-283 -168q59 -18 116 -52.5t95.5 -73.5t44.5 -72q2 -5 2 -18q0 -35 -20.5 -78t-59 -73t-92.5 -30h-278v104h111l107 -1q58 0 98.5 4t60.5 15q9 10 9 22q0 30 -49.5 68.5t-109 68.5t-70.5 28q-11 0 -17 6.5t-6 24.5q0 30 15 83q29 46 91 94t130 86.5t115 55.5z " />
<glyph unicode="&#x643;" arabic-form="medial" d="M518 104v-104h-28q-29 0 -59.5 31t-54.5 84q-20 -48 -60.5 -81.5t-97.5 -33.5h-218v104h52l106 -1q59 0 99 4t61 15q9 10 9 22q0 30 -49.5 68.5t-109 68.5t-70.5 28q-11 0 -17 6.5t-6 24.5q0 30 15 83q28 46 90.5 94t130.5 86.5t115 55.5l-10 -94l-284 -168 q53 -17 105 -46.5t90.5 -64t53.5 -65.5q5 -9 10.5 -21t8.5 -18q8 -19 15 -31t16 -21q14 -12 30.5 -19t31.5 -7h25z" />
<glyph unicode="&#x644;" arabic-form="final" d="M84.5 -235q-40.5 24 -62.5 67.5t-22 100.5q0 65 18 120.5t49 81.5l11 -17q-14 -21 -22.5 -66t-8.5 -98q0 -49 37 -79t97 -30q40 0 71 20t49 56.5t18 83.5q0 56 -11 281t-17 285l97 88q2 -50 3 -135t2 -116q1 -137 3 -206.5t7 -74.5q14 -17 34 -20t53 -3h28v-104h-28 q-24 0 -45.5 9t-42.5 36q0 -90 -28 -159.5t-79 -107t-117 -37.5q-53 0 -93.5 24z" />
<glyph unicode="&#x644;" arabic-form="initial" d="M0 104h216q40 0 53.5 21t13.5 60q0 53 -13.5 174t-29.5 215l97 85l67 -116l-48 -50q0 -33 1 -53q1 -67 1 -146v-150q0 -52 -14.5 -83.5t-49 -46t-92.5 -14.5h-202v104z" />
<glyph unicode="&#x644;" arabic-form="medial" d="M0 104h78q81 0 117.5 10.5t46.5 32.5t10 67q0 61 -6.5 163.5t-16.5 193.5l95 88h8v-442q0 -45 15.5 -69t55 -34t115.5 -10v-104q-73 0 -118.5 13t-73.5 52.5t-36 118.5q-14 -76 -32 -115t-45.5 -54t-75.5 -15h-137v104z" />
<glyph unicode="&#x645;" arabic-form="final" d="M518 104v-104h-22q-14 0 -28 6.5t-36 26.5q-28 25 -40 45q1 -3 1 -10q0 -21 -10.5 -46.5t-25.5 -39.5q-105 19 -197 65q-16 -18 -25 -30.5t-19 -30.5l33 -279l-77 -70l-6 1q0 68 -16 341q-1 8 -1 23q0 26 6.5 41t22 28t49.5 32q6 2 17.5 20t25 42t19.5 33q32 58 53 91.5 t34 39.5q6 3 21 5t30 2q31 0 44 -7q13 -6 23 -29.5t24 -66.5q13 -42 23.5 -67.5t25.5 -43.5t35 -18h16zM293.5 101q38.5 -9 89.5 -13q-12 20 -40 89q-5 10 -18 42t-25 57q-31 -36 -57.5 -81.5t-33.5 -64.5q46 -20 84.5 -29z" />
<glyph unicode="&#x645;" arabic-form="initial" d="M453 110q-19 -38 -44 -77.5t-37 -50.5q-106 19 -197 65q-9 -23 -21.5 -33t-25.5 -12t-34 -2h-94v104h119q17 0 42 33.5t61 94.5q25 43 41.5 67.5t27.5 29.5q6 3 20.5 5t30.5 2q31 0 44 -7q17 -9 32 -40t36 -88l16 -41q2 -12 -17 -50zM308.5 101q37.5 -9 83.5 -12 q-10 24 -17 44q-18 48 -30.5 79t-30.5 64q-29 -35 -54 -77.5t-34 -69.5q45 -19 82.5 -28z" />
<glyph unicode="&#x645;" arabic-form="medial" d="M518 104v-104h-30q-34 0 -51.5 6.5t-41.5 26.5q-28 25 -40 45q1 -3 1 -10q0 -21 -10.5 -46.5t-25.5 -39.5q-105 19 -197 65q-9 -23 -21 -33t-25 -12t-35 -2h-42v104h67q17 0 42 33.5t61 94.5q25 43 42 67.5t27 29.5q6 3 21 5t30 2q31 0 44 -7q12 -6 21 -24.5t22 -55.5 q17 -45 31.5 -74t37.5 -50t56 -21h16zM256.5 101q38.5 -9 89.5 -13q-10 17 -34 73q-32 79 -49 115q-31 -37 -56 -80.5t-34 -65.5q45 -20 83.5 -29z" />
<glyph unicode="&#x646;" arabic-form="final" d="M42 -189.5q-42 59.5 -42 146.5q0 18 3 49q6 56 15 87.5t27 58.5l25 -16q-6 -15 -10.5 -42t-4.5 -61q0 -88 30 -130.5t101 -54.5q15 -2 30 -2q49 0 93.5 23.5t71.5 64.5t27 89q0 17 -3 31q-8 36 -33.5 90t-42.5 80l75 75q9 -18 23 -60q21 -64 39.5 -99.5t39.5 -35.5h12 v-104h-12q-9 0 -15 1.5t-14 9t-21 23.5q0 -104 -36 -169.5t-91 -95t-117 -29.5q-8 0 -25 1q-103 10 -145 69.5zM106 337l64 69l64 -69l-64 -70z" />
<glyph unicode="&#x646;" arabic-form="initial" d="M0 104h360q23 0 38 9.5t15 29.5q0 15 -14 74t-25 86l75 74q14 -36 32.5 -106t18.5 -107t-21 -75.5t-57.5 -63.5t-83.5 -25h-338v104zM169 466l65 69l63 -69l-63 -69z" />
<glyph unicode="&#x646;" arabic-form="medial" d="M518 0q-56 0 -90.5 10.5t-56.5 36.5t-37 74q-14 -45 -33 -71t-48.5 -38t-75.5 -12h-177v104h170q51 0 76.5 4.5t39.5 23.5t14 60q0 29 -8 78l96 62q-1 -18 -1 -100q0 -77 1 -89q1 -18 16 -26.5t40.5 -10.5t73.5 -2v-104zM126 466l64 69l64 -69l-64 -69z" />
<glyph unicode="&#x647;" arabic-form="final" d="M518 104v-104h-88q-59 0 -93.5 36.5t-45.5 93.5l-31 -43q-23 -15 -69 -15q-29 0 -58.5 6t-49.5 15q-19 9 -25.5 20t-6.5 29q0 64 73 143q37 40 76.5 67.5t67.5 42.5l-15 56l72 29l1 -35q5 -122 6.5 -156.5t7.5 -84.5q6 -48 21 -74t53 -26h104zM231 178q21 3 50 9 q1 11 1 31q0 37 -7 104q-83 -50 -125 -99q-18 -21 -18 -31q0 -9 13 -13t40 -4q25 0 46 3z" />
<glyph unicode="&#x647;" arabic-form="initial" d="M431 444q33 -58 52.5 -133t19.5 -115q0 -46 -29.5 -91.5t-74.5 -75t-87 -29.5h-312v104h72q0 60 26 98.5t61.5 56.5t66.5 19q26 94 58.5 159t74.5 65q39 0 72 -58zM425 161q0 29 -13.5 88.5t-34.5 106t-45 46.5q-15 0 -28 -19.5t-33 -60.5q-19 -38 -23 -45 q32 -7 52.5 -35t20.5 -67q0 -23 -8 -38.5t-29 -33.5q8 -2 25 -3.5t31 -1.5q85 0 85 63zM247 115q18 11 18 30q0 16 -11 37.5t-28 37.5t-33 16q-13 0 -27 -12t-23 -30.5t-9 -37.5q0 -25 17.5 -38.5t48.5 -13.5q29 0 47 11z" />
<glyph unicode="&#x647;" arabic-form="medial" d="M518 0h-192q57 -68 57 -135q0 -38 -17 -73t-41.5 -56.5t-46 -21.5t-54 18.5t-55.5 49.5q-14 18 -29.5 53t-21.5 90q-3 37 -3 75h-115v104h138q17 40 23 53q21 51 33.5 74.5t36.5 51.5q64 74 115 74q27 0 39 -21.5t12 -64.5q0 -59 -21.5 -97.5t-69.5 -71.5l212 2v-104z M225 190.5q-19 -34.5 -38 -86.5q46 0 65 3q24 5 47.5 25t38 46.5t14.5 47.5q0 17 -9.5 28.5t-26.5 11.5q-13 0 -28.5 -6t-29.5 -20q-14 -15 -33 -49.5zM316.5 -103q-20.5 30 -41.5 53q-26 29 -44 39.5t-32 10.5q-41 0 -41 -59q0 -30 26.5 -60.5t61.5 -51t59 -20.5 q11 0 21.5 9.5t10.5 25.5q0 23 -20.5 53z" />
<glyph unicode="&#x648;" arabic-form="final" d="M518 0q-58 0 -96 -1q-9 -77 -41 -136t-87.5 -92.5t-130.5 -33.5q-20 0 -41 5t-61 23v38h46q19 0 59 11.5t77 35.5q86 53 102 149h-39q-65 0 -101 14t-50 39.5t-14 63.5q0 52 19.5 107.5t49.5 92t58 36.5q27 0 58.5 -32t56.5 -83q31 -62 39 -133h96v-104zM212.5 122.5 q10.5 -12.5 34 -15.5t82.5 -3h14q-7 42 -24.5 75.5t-37 53t-33.5 23.5q-2 1 -7 1q-18 0 -28.5 -26.5t-10.5 -63.5q0 -32 10.5 -44.5z" />
<glyph unicode="&#x649;" arabic-form="final" d="M43.5 -210q-43.5 49 -43.5 150q0 64 20.5 117t75.5 114l11 -16q-34 -57 -47 -97t-13 -82q0 -50 15 -77.5t45.5 -38.5t84.5 -11q72 0 141.5 15t69.5 47q0 16 -15.5 34t-30 31.5t-18.5 16.5q-8 8 -20 19q-24 22 -53 46l29 72q105 -26 223 -26v-104q-36 -1 -58.5 1.5 t-45.5 13.5q59 -58 59 -133q0 -45 -21.5 -68t-65.5 -37q-39 -13 -95 -24.5t-107 -11.5q-97 0 -140.5 49z" />
<glyph unicode="&#x64a;" arabic-form="final" d="M43.5 -210q-43.5 49 -43.5 150q0 64 20.5 117t75.5 114l11 -16q-34 -57 -47 -97t-13 -82q0 -50 15 -77.5t45.5 -38.5t84.5 -11q72 0 141.5 15t69.5 47q0 16 -15.5 34t-30 31.5t-18.5 16.5q-8 8 -20 19q-24 22 -53 46l29 72q105 -26 223 -26v-104q-36 -1 -58.5 1.5 t-45.5 13.5q59 -58 59 -133q0 -45 -21.5 -68t-65.5 -37q-39 -13 -95 -24.5t-107 -11.5q-97 0 -140.5 49zM307 -400l63 69l64 -67l-62 -70zM141 -402l63 69l64 -67l-62 -70z" />
<glyph unicode="&#x64a;" arabic-form="initial" d="M0 104h360q23 0 38 9.5t15 29.5q0 15 -14 74t-25 86l75 74q14 -36 32.5 -106t18.5 -107t-21 -75.5t-57.5 -63.5t-83.5 -25h-338v104zM267 -189l63 69l64 -67l-62 -70zM101 -191l63 69l64 -67l-62 -70z" />
<glyph unicode="&#x64a;" arabic-form="medial" d="M518 0q-56 0 -90.5 10.5t-56.5 36.5t-37 74q-14 -45 -33 -71t-48.5 -38t-75.5 -12h-177v104h170q51 0 76.5 4.5t39.5 23.5t14 60q0 29 -8 78l96 62q-1 -18 -1 -100q0 -77 1 -89q1 -18 16 -26.5t40.5 -10.5t73.5 -2v-104zM267 -189l63 69l64 -67l-62 -70zM101 -191l63 69 l64 -67l-62 -70z" />
<glyph unicode="&#xd;" horiz-adv-x="246" />
<glyph unicode="!" d="M204 578h110l-4 -104l-15 -259h-72l-15 259zM202.5 129.5q22.5 22.5 56.5 22.5t56.5 -22.5t22.5 -58t-22.5 -58.5t-56.5 -23t-56.5 23t-22.5 58.5t22.5 58z" />
<glyph unicode="&#x22;" d="M84 591h131l-4 -115l-27 -202h-70l-27 202zM304 591h131l-4 -115l-27 -202h-70l-27 202z" />
<glyph unicode="#" d="M380 342l-13 -104h73v-72h-82l-20 -166h-66l21 166h-97l-20 -166h-66l20 166h-65v72h74l13 104h-70v72h79l18 147h64l-17 -147h97l19 147h64l-18 -147h69v-72h-77zM314 342h-97l-12 -104h97z" />
<glyph unicode="$" d="M410 82.5q-39 -38.5 -110 -49.5v-128h-74v126q-45 5 -89.5 23t-75.5 45l49 75q42 -27 79 -41t77 -14q37 0 57 13.5t20 36.5t-24 38t-75 34q-50 19 -82 36t-55 45.5t-23 70.5q0 55 38.5 91.5t103.5 46.5v113h74v-113q43 -4 75.5 -22t62.5 -47l-55 -63q-34 24 -60.5 34.5 t-62.5 10.5q-32 0 -51 -13.5t-19 -36.5q0 -19 21.5 -31.5t70.5 -30.5q52 -19 85 -36t57.5 -46t24.5 -73q0 -56 -39 -94.5z" />
<glyph unicode="%" d="M37.5 492.5q16.5 32.5 45 49.5t65 17t64.5 -17t44.5 -49.5t16.5 -76.5t-16.5 -77t-44.5 -50.5t-64.5 -17.5t-65 17.5t-45 50.5t-16.5 77t16.5 76.5zM182.5 479q-13.5 19 -35.5 19t-35.5 -19t-13.5 -63t14 -64t35.5 -20t35 20.5t13.5 63.5q0 44 -13.5 63zM443 539l59 -57 l-161 -153l-39 37zM178 235l40 -37l-142 -173l-58 56zM261.5 210.5q16.5 32.5 44.5 50t64.5 17.5t65 -17.5t45 -50t16.5 -76t-16.5 -76.5t-45 -50.5t-65 -17.5t-64.5 17.5t-44.5 50.5t-16.5 76.5t16.5 76zM406 197.5q-14 19.5 -35 19.5q-22 0 -35.5 -19.5t-13.5 -63 t13.5 -64t35 -20.5t35.5 21t14 64t-14 62.5z" />
<glyph unicode="&#x26;" d="M477 -10q-60 16 -120 57q-68 -57 -155 -57q-55 0 -95 21t-61 57.5t-21 80.5q0 52 25 88t70 69q-37 71 -37 125q0 39 17 72t47.5 52t70.5 19q60 0 94 -33.5t34 -89.5q0 -34 -15.5 -61.5t-38 -49t-58.5 -49.5q46 -62 113 -117q37 61 53 140h102q-30 -110 -82 -194 q47 -31 84 -41zM194 356q32 24 49 45.5t17 49.5q0 22 -9.5 35.5t-30.5 13.5q-20 0 -32.5 -19t-12.5 -50t19 -75zM154 97q24 -22 62 -22q33 0 69 27q-67 59 -120 130q-35 -38 -35 -77q0 -36 24 -58z" />
<glyph unicode="'" d="M194 591h131l-4 -115l-27 -202h-70l-27 202z" />
<glyph unicode="(" d="M211.5 458.5q48.5 99.5 137.5 174.5l61 -50q-79 -75 -116 -157t-37 -186t37 -186.5t116 -157.5l-61 -50q-89 76 -137.5 175.5t-48.5 218.5t48.5 218.5z" />
<glyph unicode=")" d="M225 53q37 83 37 187t-37 186t-117 157l61 50q89 -75 137.5 -174.5t48.5 -218.5t-48.5 -218.5t-137.5 -175.5l-61 50q80 74 117 157z" />
<glyph unicode="*" d="M195 255l-135 59l18 56l141 -41l10 157h59l9 -157l142 41l18 -56l-134 -59l86 -137l-49 -34l-101 127l-101 -127l-50 34z" />
<glyph unicode="+" d="M64 245v79h154v162h82v-162h153v-79h-153v-161h-82v161h-154z" />
<glyph unicode="," d="M336 134q25 -36 25 -101q0 -80 -44.5 -136t-127.5 -83l-28 65q108 41 111 128h-12q-35 0 -60 21.5t-25 60.5q0 36 25.5 58.5t62.5 22.5q48 0 73 -36z" />
<glyph unicode="-" d="M453 324v-79h-389v79h389z" />
<glyph unicode="." d="M283 -6q-8 0 -17 8l-47 49q-7 7 -7 16q0 8 6 15l48 50q8 9 17 9q10 0 17 -9l46 -50q6 -6 6 -15t-6 -15l-47 -50q-7 -8 -16 -8z" />
<glyph unicode="/" d="M448 613l-284 -751h-94l284 751h94z" />
<glyph unicode="0" d="M77 431q25 63 71.5 95.5t110.5 32.5q96 0 151 -72.5t55 -209.5q0 -92 -25.5 -156.5t-71.5 -97.5t-109 -33t-109.5 33t-72 97.5t-25.5 156.5q0 91 25 154zM337.5 426.5q-28.5 46.5 -78.5 46.5t-78.5 -46.5t-28.5 -149.5q0 -105 29 -153.5t78 -48.5q50 0 78.5 48.5 t28.5 153.5q0 103 -28.5 149.5zM215 325.5q17 17.5 44 17.5q26 0 43.5 -17.5t17.5 -46.5q0 -28 -17.5 -45.5t-43.5 -17.5q-27 0 -44 17.5t-17 45.5q0 29 17 46.5z" />
<glyph unicode="1" d="M221 90v342h-116v70q47 7 81 18t63 28h81v-458h131v-90h-386v90h146z" />
<glyph unicode="2" d="M206 199q55 52 86.5 98t31.5 85q0 43 -25.5 66.5t-73.5 23.5q-32 0 -60.5 -16t-56.5 -43l-60 60q43 44 88 65t104 21q56 0 99 -21t66.5 -59.5t23.5 -90.5q0 -65 -55.5 -136t-161.5 -165q64 6 100 6h146v-93h-404v64q97 83 152 135z" />
<glyph unicode="3" d="M92 138q29 -27 65 -43t75 -16q50 0 80.5 20.5t30.5 55.5q0 43 -40 65t-135 22v79q82 0 120 22.5t38 59.5q0 33 -24.5 51t-66.5 18q-60 0 -122 -50l-56 67q84 70 183 70q88 0 142.5 -39t54.5 -108q0 -43 -28.5 -74.5t-80.5 -50.5v-3q56 -14 91 -49t35 -86q0 -49 -28.5 -85 t-77 -55t-105.5 -19q-68 0 -119 21t-84 56z" />
<glyph unicode="4" d="M478 138h-74v-138h-103v138h-270v74l243 336h130v-326h74v-84zM301 222v115q2 53 5 114h-4q-9 -15 -45 -68l-14 -21l-102 -140h160z" />
<glyph unicode="5" d="M93 136q31 -26 63.5 -41.5t72.5 -15.5q52 0 84.5 26t32.5 72q0 44 -30.5 69.5t-80.5 25.5q-28 0 -47.5 -6t-49.5 -23l-51 32l15 273h329v-93h-233l-11 -120q22 8 40.5 12t40.5 4q52 0 95 -19t68.5 -57.5t25.5 -94.5q0 -59 -29.5 -101.5t-78 -65.5t-104.5 -23 q-121 0 -203 76z" />
<glyph unicode="6" d="M421 297.5q47 -42.5 47 -126.5q0 -54 -26.5 -95t-71 -63.5t-95.5 -22.5q-60 0 -110 29t-79.5 89.5t-29.5 150.5q0 101 32.5 168t86 99.5t116.5 32.5q52 0 94.5 -17.5t73.5 -46.5l-59 -66q-19 18 -46 29t-54 11q-61 0 -100 -46t-42 -146q30 30 67.5 46.5t71.5 16.5 q77 0 124 -42.5zM339.5 98.5q26.5 25.5 26.5 72.5q0 45 -24.5 68t-67.5 23q-28 0 -56.5 -14.5t-56.5 -45.5q9 -67 38.5 -98t73.5 -31q40 0 66.5 25.5z" />
<glyph unicode="7" d="M56 455v93h407v-67q-69 -78 -105.5 -146.5t-51 -143.5t-20.5 -191h-111q5 98 22.5 172t52 141.5t93.5 141.5h-287z" />
<glyph unicode="8" d="M83.5 221.5q28.5 32.5 78.5 56.5v3q-81 56 -81 130q0 44 23.5 77.5t64.5 52t94 18.5q54 0 94 -18.5t61.5 -52.5t21.5 -78q0 -36 -22.5 -68t-57.5 -56v-3q49 -25 76.5 -58t27.5 -84q0 -44 -24 -78t-70.5 -53.5t-110.5 -19.5q-62 0 -108.5 19t-71 53t-24.5 79 q0 48 28.5 80.5zM325 460q-23 22 -65 22q-36 0 -59 -19t-23 -52q0 -36 30 -56.5t90 -40.5q50 41 50 89q0 35 -23 57zM344.5 186.5q-15.5 17.5 -41 28.5t-73.5 28q-3 1 -6 2.5t-8 3.5q-65 -41 -65 -97q0 -38 30.5 -61.5t79.5 -23.5q46 0 72.5 20t26.5 57q0 25 -15.5 42.5z " />
<glyph unicode="9" d="M351.5 529.5q49.5 -29.5 79.5 -89.5t30 -151q0 -100 -32.5 -167.5t-86 -99.5t-116.5 -32q-52 0 -94.5 17t-73.5 46l59 67q19 -18 46 -29.5t55 -11.5q60 0 99 46t43 147q-31 -31 -68 -47.5t-72 -16.5q-76 0 -123 43t-47 126q0 54 26 95.5t70 64t97 22.5q59 0 108.5 -29.5z M300 301.5q29 14.5 56 45.5q-9 67 -38.5 98t-73.5 31q-39 0 -66 -26t-27 -73q0 -45 24 -67.5t68 -22.5q28 0 57 14.5z" />
<glyph unicode=":" d="M283 282q-8 0 -17 8l-47 49q-7 7 -7 16q0 8 6 15l48 50q8 8 17 8q10 0 17 -8l46 -50q6 -6 6 -15t-6 -15l-47 -50q-7 -8 -16 -8zM283 -6q-8 0 -17 8l-47 49q-7 7 -7 16q0 8 6 15l48 50q8 9 17 9q10 0 17 -9l46 -50q6 -6 6 -15t-6 -15l-47 -50q-7 -8 -16 -8z" />
<glyph unicode=";" d="M283 282q-8 0 -17 8l-47 49q-7 7 -7 16q0 8 6 15l48 50q8 8 17 8q10 0 17 -8l46 -50q6 -6 6 -15t-6 -15l-47 -50q-7 -8 -16 -8zM336 134q25 -36 25 -101q0 -80 -44.5 -136t-127.5 -83l-28 65q108 41 111 128h-12q-35 0 -60 21.5t-25 60.5q0 36 25.5 58.5t62.5 22.5 q48 0 73 -36z" />
<glyph unicode="&#x3c;" d="M101 326l330 216v-101l-238 -153v-3l238 -153v-101l-330 216v79z" />
<glyph unicode="=" d="M453 423v-80h-389v80h389zM453 226v-79h-389v79h389z" />
<glyph unicode="&#x3e;" d="M325 285v3l-238 153v101l330 -216v-79l-330 -216v101z" />
<glyph unicode="?" d="M298 482q-20 17 -53 17q-27 0 -50 -11t-46 -32l-61 57q33 35 74.5 55t89.5 20q77 0 125 -36t48 -102q0 -27 -10 -48.5t-24 -37t-38 -37.5q-32 -28 -47.5 -49.5t-15.5 -51.5q0 -8 1 -11h-96q-2 7 -2 21q0 36 18.5 62.5t53.5 58.5q27 23 40 40.5t13 38.5q0 29 -20 46z M189.5 129.5q22.5 22.5 56.5 22.5t57 -22.5t23 -58t-23 -58.5t-57 -23t-56.5 23t-22.5 58.5t22.5 58z" />
<glyph unicode="@" d="M66 404.5q34 75.5 92 112.5t131 37q91 0 138 -58.5t47 -151.5v-257h-60l-8 45h-4q-19 -25 -46.5 -40.5t-60.5 -15.5q-31 0 -56 15.5t-39.5 42.5t-14.5 61q0 65 55.5 99.5t163.5 48.5v13q0 55 -30.5 92.5t-87.5 37.5q-46 0 -86.5 -29t-65 -90.5t-24.5 -151.5 q0 -88 25.5 -149.5t68 -92.5t93.5 -31q36 0 62.5 8.5t54.5 25.5l33 -55q-39 -24 -75.5 -36t-78.5 -12q-71 0 -130.5 39t-95 117t-35.5 189t34 186.5zM393 275q-70 -10 -98.5 -28t-28.5 -50q0 -22 14.5 -35t38.5 -13q37 0 74 38v88z" />
<glyph unicode="A" d="M347 145h-181l-39 -145h-114l180 564h131l181 -564h-118zM323 232l-17 62l-9 32q-26 101 -39 153h-3q-27 -111 -48 -185l-17 -62h133z" />
<glyph unicode="B" d="M251 564q202 0 202 -140q0 -41 -25 -75.5t-72 -45.5v-4q125 -23 125 -133q0 -82 -59 -124t-156 -42h-196v564h181zM345 409q0 36 -24 52t-76 16h-64v-145h62q102 0 102 77zM343 108q29 22 29 65q0 42 -28.5 61t-87.5 19h-75v-167h75q58 0 87 22z" />
<glyph unicode="C" d="M84 436q34 67 94 102.5t136 35.5q49 0 91.5 -20t71.5 -51l-60 -69q-45 44 -103 44q-44 0 -78.5 -23.5t-53 -67.5t-18.5 -104q0 -61 19 -105.5t54 -68t80 -23.5q61 0 109 53l62 -67q-71 -82 -182 -82q-71 0 -129.5 34t-92.5 99.5t-34 155.5t34 157z" />
<glyph unicode="D" d="M216 564q127 0 197 -70.5t70 -209.5t-69.5 -211.5t-192.5 -72.5h-156v564h151zM369 284q0 99 -41 144.5t-119 45.5h-34v-384h34q160 0 160 194z" />
<glyph unicode="E" d="M451 564v-93h-256v-133h217v-93h-217v-152h265v-93h-375v564h366z" />
<glyph unicode="F" d="M463 564v-93h-255v-149h218v-93h-218v-229h-110v564h365z" />
<glyph unicode="G" d="M73.5 437q33.5 67 91.5 102t132 35q93 0 163 -71l-62 -69q-21 21 -44 32.5t-57 11.5q-41 0 -74 -23.5t-51 -68t-18 -103.5q0 -94 37.5 -145.5t108.5 -51.5q21 0 39 5.5t29 15.5v113h-90v90h190v-253q-31 -29 -77 -48t-97 -19q-73 0 -130 33.5t-90.5 99t-33.5 156.5 t33.5 158z" />
<glyph unicode="H" d="M170 564v-223h177v223h111v-564h-111v244h-177v-244h-111v564h111z" />
<glyph unicode="I" d="M204 93v378h-134v93h378v-93h-134v-378h134v-93h-378v93h134z" />
<glyph unicode="J" d="M121 152q25 -33 53.5 -49.5t57.5 -16.5q50 0 73.5 26t23.5 86v273h-225v93h336v-375q0 -90 -48.5 -144.5t-155.5 -54.5q-52 0 -99.5 22.5t-80.5 70.5z" />
<glyph unicode="K" d="M386 0l-134 257l-74 -95v-162h-112v564h112v-247h3l188 247h123l-172 -221l189 -343h-123z" />
<glyph unicode="L" d="M209 564v-471h259v-93h-369v564h110z" />
<glyph unicode="M" d="M169 564l65 -212l23 -82h3l22 82l66 212h116v-564h-93v223q0 39 4.5 108.5t9.5 122.5h-2l-43 -143l-57 -162h-52l-58 162l-40 143h-3q5 -48 10 -119.5t5 -111.5v-223h-92v564h116z" />
<glyph unicode="N" d="M174 564l138 -303l51 -121h3l-6 59q-3 34 -6 71.5t-3 66.5v227h106v-564h-113l-138 303l-51 121h-3q1 -21 6 -58q3 -34 6 -71.5t3 -66.5v-228h-106v564h113z" />
<glyph unicode="O" d="M64 441q28 65 78 99t117 34t117 -34t78 -99t28 -157q0 -93 -28 -159.5t-78 -100.5t-117 -34t-117 34t-78 100.5t-28 159.5q0 92 28 157zM339.5 427.5q-29.5 50.5 -80.5 50.5q-50 0 -80 -51t-30 -143q0 -95 29.5 -146.5t80.5 -51.5t80.5 51.5t29.5 146.5q0 93 -29.5 143.5 z" />
<glyph unicode="P" d="M263 564q100 0 158.5 -41.5t58.5 -135.5q0 -62 -28.5 -104t-77.5 -62t-111 -20h-81v-201h-110v564h191zM341.5 313.5q28.5 24.5 28.5 73.5q0 48 -28 68t-87 20h-73v-186h73q58 0 86.5 24.5z" />
<glyph unicode="Q" d="M496 -133q-33 -17 -77 -17q-77 0 -132 39.5t-81 106.5q-79 18 -124.5 93t-45.5 195q0 92 28 157t78 99t117 34q66 0 116.5 -34t78 -99t27.5 -157q0 -115 -42 -189t-116 -96q14 -31 43 -45t66 -14q21 0 45 10zM178 132.5q29 -51.5 81 -51.5t80.5 51.5t28.5 151.5 q0 93 -29 144t-80 51t-80.5 -51t-29.5 -144q0 -100 29 -151.5z" />
<glyph unicode="R" d="M371 0l-115 213h-78v-213h-110v564h192q97 0 154.5 -40t57.5 -131q0 -61 -28.5 -101.5t-79.5 -60.5l132 -231h-125zM178 302h72q55 0 84 23t29 68q0 44 -28 63t-85 19h-72v-173z" />
<glyph unicode="S" d="M112 148q33 -29 73 -45.5t81 -16.5q45 0 68.5 16.5t23.5 44.5q0 21 -10.5 34.5t-26.5 22t-54 24.5l-75 32q-53 20 -87 57t-34 94q0 46 25.5 83t71.5 58.5t104 21.5q51 0 98.5 -19t83.5 -54l-56 -70q-32 24 -62 35.5t-70 11.5q-37 0 -59.5 -16t-22.5 -44q0 -18 11.5 -31 t29 -21.5t53.5 -22.5l72 -31q58 -22 89.5 -58t31.5 -93q0 -48 -25.5 -86.5t-73.5 -61.5t-113 -23q-58 0 -113.5 21t-98.5 61z" />
<glyph unicode="T" d="M29 471v93h459v-93h-174v-471h-110v471h-175z" />
<glyph unicode="U" d="M59 564h111v-358q0 -120 90 -120q44 0 68 30t24 90v358h106v-348q0 -112 -50.5 -169t-147.5 -57q-98 0 -149.5 57t-51.5 169v348z" />
<glyph unicode="V" d="M137 564l75 -275q4 -17 21 -82q16 -62 27 -100h3q16 54 28 105l8 34l12 43l74 275h113l-172 -564h-133l-173 564h117z" />
<glyph unicode="W" d="M118 564l26 -317l3 -70q1 -24 2 -71h4q8 43 18 80l13 61l45 173h69l45 -173q4 -24 16 -76q10 -39 15 -65h3q2 52 6 141l25 317h105l-73 -564h-118l-44 195q-12 51 -18 106h-2q-7 -57 -18 -106l-42 -195h-114l-79 564h113z" />
<glyph unicode="X" d="M35 564h123l63 -119q11 -22 43 -88h4q13 34 38 88l60 119h117l-154 -279l165 -285h-124l-68 126q-13 22 -36 72l-6 10l-5 10h-3q-21 -49 -43 -92l-66 -126h-118l165 290z" />
<glyph unicode="Y" d="M19 564h119l65 -146l55 -129h3l28 64l29 66l65 145h114l-183 -370v-194h-110v194z" />
<glyph unicode="Z" d="M329 471h-253v93h390v-67l-279 -404h283v-93h-419v67z" />
<glyph unicode="[" d="M429 611v-59h-166v-624h166v-59h-250v742h250z" />
<glyph unicode="\" d="M164 613l284 -751h-94l-284 751h94z" />
<glyph unicode="]" d="M254 -72v624h-165v59h250v-742h-250v59h165z" />
<glyph unicode="^" d="M304 578l133 -339h-92l-45 123l-40 116h-3l-40 -116l-45 -123h-91l133 339h90z" />
<glyph unicode="_" d="M466 -50v-85h-414v85h414z" />
<glyph unicode="`" d="M193 694l130 -154l-55 -54l-150 134z" />
<glyph unicode="a" d="M87 196q29 32 92.5 51t166.5 25q-3 35 -27 55t-70 20q-31 0 -64 -11t-71 -32l-40 73q99 59 196 59q90 0 138.5 -48t48.5 -140v-248h-91l-8 51h-3q-82 -61 -156 -61q-41 0 -73.5 16t-50 45t-17.5 65q0 48 29 80zM346 205q-101 -7 -141.5 -27t-40.5 -54q0 -23 18.5 -36 t49.5 -13q30 0 57.5 12.5t56.5 35.5v82z" />
<glyph unicode="b" d="M163 47l-9 -47h-87v608h111v-154l-5 -71h3q26 24 59 38.5t65 14.5q54 0 93 -26.5t60 -75.5t21 -114q0 -71 -26 -123.5t-69 -79.5t-92 -27q-30 0 -62 14.5t-59 42.5h-3zM270 346q-46 0 -92 -48v-183q20 -18 42.5 -26t42.5 -8q43 0 70 35.5t27 101.5q0 128 -90 128z" />
<glyph unicode="c" d="M94 331q33 51 88.5 78t121.5 27q49 0 89.5 -16t68.5 -43l-51 -69q-50 38 -100 38q-62 0 -99 -36.5t-37 -97.5q0 -60 36.5 -96.5t95.5 -36.5q57 0 117 45l45 -71q-36 -31 -81 -47t-91 -16q-68 0 -121.5 26.5t-84 77t-30.5 118.5t33 119z" />
<glyph unicode="d" d="M69.5 330.5q25.5 50.5 68.5 78t91 27.5q34 0 61 -12.5t52 -35.5h3l-5 69v151h110v-608h-90l-8 47h-3q-26 -26 -58.5 -41.5t-65.5 -15.5q-55 0 -96 26.5t-63 77t-22 118.5t25.5 118.5zM340 311q-38 35 -84 35q-27 0 -49.5 -16t-36 -45.5t-13.5 -70.5q0 -66 24.5 -99.5 t70.5 -33.5q49 0 88 46v184z" />
<glyph unicode="e" d="M465 182h-304q8 -54 44 -80.5t94 -26.5q31 0 59 8t57 24l37 -68q-35 -23 -79 -36t-88 -13q-66 0 -119.5 26.5t-84 77t-30.5 118.5t30.5 118.5t81.5 78t108 27.5q62 0 107 -26t68 -72t23 -105q0 -22 -4 -51zM202 326.5q-30 -24.5 -39 -71.5h208q-5 47 -29.5 71.5 t-66.5 24.5q-43 0 -73 -24.5z" />
<glyph unicode="f" d="M322.5 509.5q-21.5 -21.5 -21.5 -64.5v-19h156v-88h-156v-338h-109v338h-116v83l116 5v18q0 78 46 126t138 48q61 0 127 -24l-22 -81q-44 18 -92 18q-45 0 -66.5 -21.5z" />
<glyph unicode="g" d="M67 -25.5q17 22.5 50 39.5v4q-43 24 -43 71q0 21 13.5 42.5t37.5 37.5v4q-25 16 -40 44.5t-15 64.5q0 48 24 83t65 53t89 18q38 0 67 -10h174v-82h-94q11 -13 18 -30t7 -36q0 -69 -48.5 -106t-123.5 -37q-27 0 -63 10q-23 -15 -23 -35t19 -28.5t58 -8.5h84q85 0 127 -26 t42 -80q0 -43 -30.5 -77.5t-87 -54.5t-131.5 -20q-89 0 -141 28t-52 83q0 26 17 48.5zM300.5 339q-21.5 21 -52.5 21q-32 0 -53 -21t-21 -57q0 -37 21 -58t53 -21q31 0 52.5 21.5t21.5 57.5t-21.5 57zM366.5 -22q-19.5 8 -61.5 8h-62q-41 0 -65 7q-37 -23 -37 -51 q0 -26 31 -41.5t86 -15.5q37 0 66.5 8.5t45.5 23t16 31.5q0 22 -19.5 30z" />
<glyph unicode="h" d="M178 608v-154l-6 -88h2q65 70 146 70q71 0 106 -44.5t35 -128.5v-263h-110v249q0 48 -17 70.5t-56 22.5q-28 0 -50 -13t-50 -41v-288h-111v608h111z" />
<glyph unicode="i" d="M71 338v88h289v-426h-110v338h-179zM243.5 622q21.5 20 54.5 20t54.5 -20t21.5 -52t-21 -51.5t-54.5 -19.5t-55 19.5t-21.5 51.5t21.5 52z" />
<glyph unicode="j" d="M73 -66q45 -21 89 -21q50 0 69 23t19 74v328h-179v88h289v-411q0 -190 -192 -190q-68 0 -128 29zM243.5 622q21.5 20 54.5 20t54.5 -20t21.5 -52t-21 -51.5t-54.5 -19.5t-55 19.5t-21.5 51.5t21.5 52z" />
<glyph unicode="k" d="M382 0l-125 186l-73 -76v-110h-111v608h111v-370h2l178 188h122l-164 -172l180 -254h-120z" />
<glyph unicode="l" d="M188 520h-130v88h240v-454q0 -39 20.5 -57t53.5 -18t70 16l26 -82q-37 -12 -62.5 -17.5t-61.5 -5.5q-75 0 -115.5 44.5t-40.5 124.5v361z" />
<glyph unicode="m" d="M121 426l8 -54h3q31 64 92 64q30 0 49.5 -18t26.5 -52q32 70 97 70q45 0 69.5 -35.5t24.5 -100.5v-300h-105v292q0 25 -7.5 37.5t-22.5 12.5t-26.5 -12t-23.5 -37v-293h-85v292q0 50 -32 50q-14 0 -25 -12t-23 -37v-293h-104v426h84z" />
<glyph unicode="n" d="M158 426l8 -62h3q33 33 69.5 52.5t81.5 19.5q71 0 106 -44.5t35 -128.5v-263h-110v249q0 48 -17 70.5t-56 22.5q-28 0 -50 -13t-50 -41v-288h-111v426h91z" />
<glyph unicode="o" d="M73.5 331q29.5 51 79 78t106.5 27t106 -27t79 -78t30 -119t-30 -118.5t-79 -77t-106 -26.5t-106.5 26.5t-79 77t-29.5 118.5t29.5 119zM333 310q-27 36 -74 36q-48 0 -75 -36t-27 -97.5t27 -97.5t75 -36t74.5 36t26.5 97.5t-27 97.5z" />
<glyph unicode="p" d="M158 426l8 -47h3q27 26 62 41.5t70 15.5q53 0 92.5 -26.5t60 -75.5t20.5 -114q0 -71 -26 -123.5t-69 -79.5t-93 -27q-28 0 -57 12.5t-54 35.5h-3l6 -72v-130h-111v590h91zM270 346q-46 0 -92 -48v-183q20 -18 42.5 -26t42.5 -8q43 0 70 35.5t27 101.5q0 128 -90 128z" />
<glyph unicode="q" d="M345 43h-3q-24 -24 -55.5 -38.5t-62.5 -14.5q-54 0 -95 26.5t-63 77t-22 118.5t25.5 118.5t68.5 78t91 27.5q37 0 65.5 -13.5t56.5 -41.5h3l9 45h87v-590h-110v136zM340 311q-38 35 -84 35q-27 0 -49.5 -16t-36 -45.5t-13.5 -70.5q0 -66 24.5 -99.5t70.5 -33.5 q49 0 88 46v184z" />
<glyph unicode="r" d="M198 426l9 -96h3q31 52 77.5 79t100.5 27q25 0 43.5 -4t38.5 -13l-23 -93q-21 7 -37 9.5t-39 2.5q-97 0 -153 -109v-229h-111v426h91z" />
<glyph unicode="s" d="M98 124q82 -51 175 -51q39 0 59 12.5t20 32.5q0 13 -9 22.5t-33 17.5t-70 18q-85 19 -124 50.5t-39 79.5q0 38 22.5 67.5t65.5 46t102 16.5q50 0 97 -16.5t83 -40.5l-50 -67q-32 20 -68 31t-71 11q-37 0 -54.5 -11.5t-17.5 -30.5q0 -14 10 -22.5t31.5 -15t64.5 -16.5 q66 -15 103 -33t52 -42t15 -59q0 -38 -23.5 -68.5t-69.5 -48t-111 -17.5q-54 0 -109.5 18.5t-98.5 47.5z" />
<glyph unicode="t" d="M158 338h-111v83l116 5l15 132h91v-132h188v-88h-188v-164q0 -51 21.5 -74t72.5 -23q45 0 90 16l21 -80q-34 -11 -67 -17t-71 -6q-94 0 -136 48t-42 135v165z" />
<glyph unicode="u" d="M57 426h110v-249q0 -49 17 -71t56 -22q27 0 49.5 13t47.5 44v285h110v-426h-90l-8 65h-3q-32 -36 -67.5 -55.5t-80.5 -19.5q-141 0 -141 173v263z" />
<glyph unicode="v" d="M143 426l76 -213l30 -93l11 -36h3l12 36q19 62 29 93l76 213h106l-163 -426h-125l-166 426h111z" />
<glyph unicode="w" d="M112 426l35 -211l17 -125h2l3 18q9 62 19 107l33 163h81l35 -163q6 -31 17 -91l6 -34h3q4 28 10 83q2 16 5 42l32 211h104l-74 -426h-129l-31 164q-7 40 -20 124h-3l-5 -33q-5 -46 -12 -92l-31 -163h-127l-78 426h108z" />
<glyph unicode="x" d="M49 426h119l50 -77q14 -22 47 -72h3q4 9 15 26l24 47l45 76h116l-142 -217l151 -209h-119l-55 78l-51 75h-4l-14 -23q-5 -9 -12.5 -22t-16.5 -30l-50 -78h-117l152 221z" />
<glyph unicode="y" d="M78 -78q18 -6 35 -6q69 0 98 66l9 25l-188 419h109l82 -199q15 -39 45 -126h3q9 33 32 100l9 26l71 199h105l-174 -439q-30 -80 -74.5 -119t-119.5 -39q-34 0 -62 8z" />
<glyph unicode="z" d="M303 338h-214v88h368v-59l-242 -280h249v-87h-403v59z" />
<glyph unicode="{" d="M211 70q1 8 2.5 29.5t1.5 43.5q0 27 -27 45t-93 19v65q66 1 93 19.5t27 45.5q0 21 -1.5 43t-2.5 30q-5 49 -5 80q0 67 38 94t123 27h62v-59h-38q-39 0 -59 -6t-27.5 -20t-7.5 -41q0 -33 3 -68q0 -12 1 -35.5t1 -41.5q0 -47 -19.5 -69t-64.5 -30v-3q45 -8 64.5 -30 t19.5 -68q0 -19 -1 -43t-1 -35q-3 -34 -3 -68q0 -27 7.5 -40.5t27.5 -19.5t59 -6h38v-59h-62q-85 0 -123 26.5t-38 94.5q0 32 5 80z" />
<glyph unicode="|" d="M307 647v-862h-98v862h98z" />
<glyph unicode="}" d="M127 -72q38 0 58 6t27.5 19.5t7.5 40.5q0 22 -2 68q-2 37 -2 78q0 46 19 68t65 30v3q-46 8 -65 30t-19 69q0 40 2 77q2 47 2 68q0 27 -7.5 41t-27.5 20t-58 6h-38v59h62q85 0 123 -27t38 -94q0 -31 -5 -80q-4 -46 -4 -73t27 -45.5t93 -19.5v-65q-66 -1 -93 -19t-27 -45.5 t4 -72.5q5 -48 5 -80q0 -68 -38 -94.5t-123 -26.5h-62v59h38z" />
<glyph unicode="~" d="M118 207l-67 31q25 62 59.5 91t74.5 29q26 0 45.5 -10t44.5 -28q21 -16 33.5 -22.5t26.5 -6.5q41 0 65 71l68 -31q-49 -119 -134 -119q-26 0 -45.5 9.5t-45.5 28.5q-20 15 -32.5 22t-26.5 7q-40 0 -66 -72z" />
<glyph unicode="&#xa1;" d="M202.5 413q22.5 23 56.5 23t56.5 -23t22.5 -59t-22.5 -58t-56.5 -22t-56.5 22t-22.5 58t22.5 59zM223 211h72l15 -259l4 -104h-110l4 104z" />
<glyph unicode="&#xa2;" d="M393 67.5q-30 -13.5 -61 -17.5v-83h-63v84q-84 10 -133 67t-49 148q0 87 50.5 143t131.5 70v86h63v-83q33 -3 60.5 -15.5t47.5 -32.5l-51 -69q-29 24 -57 27v-253q34 5 70 33l45 -69q-24 -22 -54 -35.5zM214 190q19 -31 55 -43v237q-36 -13 -55 -43.5t-19 -75t19 -75.5z " />
<glyph unicode="&#xa3;" d="M470 93v-93h-409v68q48 20 75.5 56.5t27.5 82.5q0 14 -3 31h-99v65l76 4q-9 27 -14 45.5t-5 35.5q0 52 24 90.5t68 59.5t101 21q51 0 89.5 -17.5t67.5 -51.5l-61 -60q-18 19 -39 29t-49 10q-45 0 -71 -22.5t-26 -64.5q0 -29 15 -75h152v-69h-133q3 -15 3 -32 q0 -34 -12 -59.5t-39 -49.5v-4h261z" />
<glyph unicode="&#xa4;" d="M107 187q-30 42 -30 97q0 56 30 97l-71 71l56 56l77 -77q43 25 90 25t90 -25l77 77l55 -56l-70 -71q29 -41 29 -97q0 -53 -30 -97l71 -71l-55 -57l-78 78q-41 -24 -89 -24q-49 0 -90 24l-77 -78l-56 57zM318.5 352q-23.5 26 -59.5 26q-35 0 -58.5 -26t-23.5 -67.5 t23.5 -67.5t58.5 -26q36 0 59.5 26t23.5 67.5t-23.5 67.5z" />
<glyph unicode="&#xa5;" d="M54 130v55h150v49h-150v55h124l-145 259h113l60 -123l52 -115h3l53 115l60 123h111l-146 -259h124v-55h-149v-49h149v-55h-149v-130h-110v130h-150z" />
<glyph unicode="&#xa6;" d="M307 647v-380h-98v380h98zM307 164v-379h-98v379h98z" />
<glyph unicode="&#xa7;" d="M432.5 179.5q-18.5 -27.5 -55.5 -48.5q22 -28 22 -68q0 -37 -19 -66.5t-55 -46.5t-84.5 -17t-92.5 17.5t-71 51.5l64 57q44 -44 99 -44q29 0 44 11.5t15 31.5q0 21 -20.5 35.5t-63.5 32.5q-46 20 -75.5 37.5t-51 47.5t-21.5 75q0 33 19 62t53 49q-25 29 -25 71 q0 36 17.5 65t50.5 45t78 16q44 0 82.5 -15.5t69.5 -39.5l-51 -68q-49 40 -95 40q-26 0 -39.5 -10.5t-13.5 -29.5t20.5 -32t63.5 -33q48 -20 78.5 -38.5t53 -48.5t22.5 -74q0 -38 -18.5 -65.5zM174 256.5q13 -15.5 33 -26t55 -25.5q31 -13 57 -27q20 11 29 24.5t9 33.5 q0 22 -14 38t-35 27t-56 26q-11 5 -27 12t-26 13q-38 -22 -38 -59q0 -21 13 -36.5z" />
<glyph unicode="&#xa8;" d="M122 605.5q18 18.5 45 18.5t44.5 -18.5t17.5 -45t-17.5 -45t-44.5 -18.5t-45 18.5t-18 45t18 45zM305.5 605.5q17.5 18.5 45 18.5t45.5 -18.5t18 -45t-18 -45t-45.5 -18.5t-45 18.5t-17.5 45t17.5 45z" />
<glyph unicode="&#xa9;" d="M51 431q32 65 86.5 99.5t121.5 34.5t121.5 -34.5t86.5 -99.5t32 -151t-32.5 -151.5t-87 -101t-120.5 -35.5t-120.5 35.5t-87 101t-32.5 151.5t32 151zM423.5 406q-23.5 54 -66.5 83t-98 29q-56 0 -99 -29t-66.5 -83t-23.5 -126q0 -71 23.5 -126t66.5 -85t99 -30 q55 0 98 30t66.5 85t23.5 126q0 72 -23.5 126zM142.5 365.5q20.5 37.5 54 58t72.5 20.5q30 0 52 -10.5t43 -30.5l-42 -48q-12 12 -22.5 17.5t-23.5 5.5q-33 0 -52.5 -27.5t-19.5 -71.5q0 -48 18 -75.5t50 -27.5q17 0 29 5.5t28 17.5l36 -52q-46 -37 -96 -37q-43 0 -76 20.5 t-52 59t-19 89.5q0 49 20.5 86.5z" />
<glyph unicode="&#xaa;" d="M315 509q-5 46 -58 46q-43 0 -88 -27l-28 53q28 17 62.5 27t68.5 10q58 0 90 -32t32 -93v-164h-65l-5 31h-2q-44 -38 -99 -38q-41 0 -67 24t-26 60q0 93 185 103zM315 464q-57 -5 -83 -17.5t-26 -32.5q0 -17 11 -25t29 -8q19 0 35 7t34 20v56z" />
<glyph unicode="&#xab;" d="M47 272l142 134l49 -42l-111 -146l111 -148l-49 -42l-142 135v109zM267 272l143 134l48 -42l-110 -146l110 -148l-48 -42l-143 135v109z" />
<glyph unicode="&#xac;" d="M64 245v79h389v-240h-82v161h-307z" />
<glyph unicode="&#xad;" d="M453 324v-79h-389v79h389z" />
<glyph unicode="&#xae;" d="M112.5 532.5q22.5 39.5 61 61.5t84.5 22t84.5 -22t61 -61.5t22.5 -89t-22.5 -89t-61 -61.5t-84.5 -22t-84.5 22t-61 61.5t-22.5 89t22.5 89zM367.5 513.5q-15.5 30.5 -44 47.5t-65 17t-65 -17t-44.5 -47.5t-16 -70.5q0 -39 16 -69.5t44.5 -47.5t65 -17t65 17t44 47.5 t15.5 69.5q0 40 -15.5 70.5zM264 531q31 0 50.5 -14.5t19.5 -42.5q0 -15 -8.5 -27.5t-22.5 -19.5l37 -67h-48l-28 54h-28v-54h-45v171h73zM277 453q8 7 8 18t-7.5 18t-21.5 7h-20v-50h19q14 0 22 7z" />
<glyph unicode="&#xaf;" d="M382 585v-72h-247v72h247z" />
<glyph unicode="&#xb0;" d="M156 532.5q16 27.5 43.5 43t60 15.5t60.5 -15.5t44 -43t16 -61.5t-16 -61.5t-44 -42.5t-60.5 -15t-60 15t-43.5 42.5t-16 61.5t16 61.5zM303 518.5q-17 18.5 -43 18.5q-27 0 -44 -18.5t-17 -47.5q0 -28 17 -46.5t44 -18.5q26 0 43 18.5t17 46.5q0 29 -17 47.5z" />
<glyph unicode="&#xb1;" d="M64 256v79h154v151h82v-151h153v-79h-153v-128h-82v128h-154zM453 79v-79h-389v79h389z" />
<glyph unicode="&#xb4;" d="M324 694l75 -74l-150 -134l-54 54z" />
<glyph unicode="&#xb6;" d="M103 519q56 45 149 45h37v-386h-32q-59 0 -106.5 22t-75.5 66t-28 108q0 100 56 145zM444 564v-633h-110v633h110z" />
<glyph unicode="&#xb7;" d="M283 215q-8 0 -17 8l-47 49q-7 7 -7 17q0 7 6 14l48 51q8 8 17 8q10 0 17 -8l46 -51q6 -6 6 -14q0 -10 -6 -16l-47 -50q-7 -8 -16 -8z" />
<glyph unicode="&#xb8;" d="M236.5 -145q19.5 9 19.5 27q0 15 -15 24.5t-51 13.5l41 89h66l-25 -62q33 -8 49 -23t16 -41q0 -80 -162 -87l-9 47q51 3 70.5 12z" />
<glyph unicode="&#xba;" d="M136.5 548q19.5 34 52 52t70.5 18t70.5 -18t52 -52t19.5 -79t-19.5 -78.5t-52 -51t-70.5 -17.5t-70.5 17.5t-52 51t-19.5 78.5t19.5 79zM304 531.5q-15 22.5 -45 22.5t-45.5 -23t-15.5 -62q0 -38 15.5 -61t45.5 -23t45 22.5t15 61.5q0 40 -15 62.5z" />
<glyph unicode="&#xbb;" d="M170 218l-109 146l47 42l144 -134v-109l-144 -135l-47 42zM391 218l-110 146l48 42l143 -134v-109l-143 -135l-48 42z" />
<glyph unicode="&#xbc;" d="M50 469v50q29 3 47 9.5t41 19.5h63v-267h-81v188h-70zM443 539l58 -57l-161 -153l-39 37zM177 235l40 -37l-142 -173l-58 56zM508 56h-45v-56h-72v56h-138v39l87 183l58 -23l-72 -148h65v78h72v-78h45v-51z" />
<glyph unicode="&#xbd;" d="M50 469v50q29 3 47 9.5t41 19.5h63v-267h-81v188h-70zM443 539l58 -57l-161 -153l-39 37zM177 235l40 -37l-142 -173l-58 56zM370.5 118.5q32.5 30.5 32.5 53.5q0 19 -11 29.5t-31 10.5q-13 0 -27 -8.5t-24 -22.5l-48 42q51 55 111 55q50 0 79.5 -24.5t29.5 -67.5 q0 -29 -21 -56.5t-59 -62.5h91v-67h-219v42q64 46 96.5 76.5z" />
<glyph unicode="&#xbe;" d="M55 360q14 -12 34 -20t38.5 -8t30 7t11.5 22q0 17 -17 25.5t-52 8.5v44q58 0 58 32q0 13 -10 20t-27 7q-28 0 -60 -24l-33 48q20 17 48.5 27t61.5 10q43 0 71 -21t28 -54q0 -24 -11 -38.5t-37 -23.5q60 -16 60 -67q0 -38 -32.5 -61t-79.5 -23q-67 0 -116 39zM454 539 l58 -57l-160 -153l-40 37zM188 235l40 -37l-141 -173l-59 56zM508 56h-45v-56h-72v56h-138v39l87 183l58 -23l-72 -148h65v78h72v-78h45v-51z" />
<glyph unicode="&#xbf;" d="M214.5 413q22.5 23 56.5 23t56.5 -23t22.5 -59t-22.5 -58t-56.5 -22t-56.5 22t-22.5 58t22.5 59zM112 40.5q18 26.5 54 57.5q32 29 47 50t15 51q0 8 -1 12h97q2 -7 2 -21q0 -37 -19 -63.5t-54 -57.5q-27 -25 -40 -42t-13 -37q0 -29 20 -46t53 -17q27 0 50 11t46 32 l62 -57q-32 -35 -74.5 -55.5t-90.5 -20.5q-77 0 -124.5 36.5t-47.5 102.5q0 38 18 64.5z" />
<glyph unicode="&#xc0;" d="M347 145h-181l-39 -145h-114l180 564h131l181 -564h-118zM323 232l-17 62l-9 32q-26 101 -39 153h-3q-27 -111 -48 -185l-17 -62h133zM198 764l139 -117l-48 -56l-151 102z" />
<glyph unicode="&#xc1;" d="M347 145h-181l-39 -145h-114l180 564h131l181 -564h-118zM323 232l-17 62l-9 32q-26 101 -39 153h-3q-27 -111 -48 -185l-17 -62h133zM320 764l60 -71l-151 -102l-48 56z" />
<glyph unicode="&#xc2;" d="M347 145h-181l-39 -145h-114l180 564h131l181 -564h-118zM323 232l-17 62l-9 32q-26 101 -39 153h-3q-27 -111 -48 -185l-17 -62h133zM198 721h120l81 -96l-47 -30l-92 74h-3l-91 -74l-48 30z" />
<glyph unicode="&#xc3;" d="M347 145h-181l-39 -145h-114l180 564h131l181 -564h-118zM323 232l-17 62l-9 32q-26 101 -39 153h-3q-27 -111 -48 -185l-17 -62h133zM177 643.5q-9 -11.5 -12 -35.5l-72 5q3 59 30.5 89t72.5 30q25 0 42.5 -8.5t39.5 -24.5q12 -10 21.5 -15t17.5 -5q29 0 35 46l72 -5 q-3 -58 -30.5 -88t-72.5 -30q-24 0 -42.5 8.5t-38.5 24.5q-15 11 -23 15.5t-17 4.5q-14 0 -23 -11.5z" />
<glyph unicode="&#xc4;" d="M347 145h-181l-39 -145h-114l180 564h131l181 -564h-118zM323 232l-17 62l-9 32q-26 101 -39 153h-3q-27 -111 -48 -185l-17 -62h133zM127 706q16 16 41 16t41.5 -16t16.5 -41q0 -24 -16.5 -40.5t-41.5 -16.5q-24 0 -40.5 16.5t-16.5 40.5q0 25 16 41zM308 706 q16 16 41 16t41.5 -16t16.5 -41q0 -24 -16.5 -40.5t-41.5 -16.5q-24 0 -40.5 16.5t-16.5 40.5q0 25 16 41z" />
<glyph unicode="&#xc5;" d="M347 145h-181l-39 -145h-114l180 564h131l181 -564h-118zM323 232l-17 62l-9 32q-26 101 -39 153h-3q-27 -111 -48 -185l-17 -62h133zM191 745q26 23 68 23q41 0 67.5 -23t26.5 -60.5t-26.5 -60t-67.5 -22.5q-42 0 -68 22.5t-26 60t26 60.5zM286 714q-11 11 -27 11 q-17 0 -28 -11t-11 -29.5t11 -29t28 -10.5q16 0 27 10.5t11 29t-11 29.5z" />
<glyph unicode="&#xc6;" d="M512 93v-93h-243v139h-112l-45 -139h-115l201 564h307v-93h-137v-131h109v-94h-109v-153h144zM269 226v254h-2l-27 -85q-12 -36 -26 -83l-28 -86h83z" />
<glyph unicode="&#xc7;" d="M329 -10l-17 -43q32 -8 48 -23t16 -41q0 -80 -161 -87l-9 47q50 3 69.5 12t19.5 27q0 15 -14.5 24.5t-51.5 13.5l34 73q-62 10 -110 46t-75.5 97.5t-27.5 142.5q0 90 34 157t94 102.5t136 35.5q49 0 91.5 -20t71.5 -51l-60 -69q-45 44 -103 44q-44 0 -78.5 -23.5 t-53 -67.5t-18.5 -104q0 -61 19 -105.5t54 -68t80 -23.5q61 0 109 53l62 -67q-63 -74 -159 -82z" />
<glyph unicode="&#xc8;" d="M451 564v-93h-256v-133h217v-93h-217v-152h265v-93h-375v564h366zM220 764l140 -117l-49 -56l-150 102z" />
<glyph unicode="&#xc9;" d="M451 564v-93h-256v-133h217v-93h-217v-152h265v-93h-375v564h366zM343 764l59 -71l-150 -102l-49 56z" />
<glyph unicode="&#xca;" d="M451 564v-93h-256v-133h217v-93h-217v-152h265v-93h-375v564h366zM221 721h119l81 -96l-47 -30l-91 74h-4l-91 -74l-48 30z" />
<glyph unicode="&#xcb;" d="M451 564v-93h-256v-133h217v-93h-217v-152h265v-93h-375v564h366zM149 706q16 16 41 16t41.5 -16t16.5 -41q0 -24 -16.5 -40.5t-41.5 -16.5q-24 0 -40.5 16.5t-16.5 40.5q0 25 16 41zM330 706q16 16 41.5 16t41.5 -16t16 -41q0 -24 -16 -40.5t-42 -16.5q-24 0 -40.5 16.5 t-16.5 40.5q0 25 16 41z" />
<glyph unicode="&#xcc;" d="M204 93v378h-134v93h378v-93h-134v-378h134v-93h-378v93h134zM198 764l139 -117l-48 -56l-151 102z" />
<glyph unicode="&#xcd;" d="M204 93v378h-134v93h378v-93h-134v-378h134v-93h-378v93h134zM320 764l60 -71l-151 -102l-48 56z" />
<glyph unicode="&#xce;" d="M204 93v378h-134v93h378v-93h-134v-378h134v-93h-378v93h134zM198 721h120l81 -96l-47 -30l-92 74h-3l-91 -74l-48 30z" />
<glyph unicode="&#xcf;" d="M204 93v378h-134v93h378v-93h-134v-378h134v-93h-378v93h134zM127 706q16 16 41 16t41.5 -16t16.5 -41q0 -24 -16.5 -40.5t-41.5 -16.5q-24 0 -40.5 16.5t-16.5 40.5q0 25 16 41zM308 706q16 16 41 16t41.5 -16t16.5 -41q0 -24 -16.5 -40.5t-41.5 -16.5q-24 0 -40.5 16.5 t-16.5 40.5q0 25 16 41z" />
<glyph unicode="&#xd0;" d="M4 264v50l61 6v244h152q126 0 196.5 -70.5t70.5 -209.5t-70 -211.5t-192 -72.5h-157v264h-61zM369 284q0 99 -41 144.5t-119 45.5h-34v-154h103v-56h-103v-174h34q160 0 160 194z" />
<glyph unicode="&#xd1;" d="M174 564l138 -303l51 -121h3l-6 59q-3 34 -6 71.5t-3 66.5v227h106v-564h-113l-138 303l-51 121h-3q1 -21 6 -58q3 -34 6 -71.5t3 -66.5v-228h-106v564h113zM186 643.5q-9 -11.5 -12 -35.5l-72 5q3 59 30.5 89t72.5 30q24 0 42 -8.5t39 -24.5q13 -10 22 -15t18 -5 q28 0 35 46l72 -5q-3 -58 -31 -88t-72 -30q-24 0 -42.5 8.5t-38.5 24.5q-15 11 -23 15.5t-17 4.5q-14 0 -23 -11.5z" />
<glyph unicode="&#xd2;" d="M64 441q28 65 78 99t117 34t117 -34t78 -99t28 -157q0 -93 -28 -159.5t-78 -100.5t-117 -34t-117 34t-78 100.5t-28 159.5q0 92 28 157zM339.5 427.5q-29.5 50.5 -80.5 50.5q-50 0 -80 -51t-30 -143q0 -95 29.5 -146.5t80.5 -51.5t80.5 51.5t29.5 146.5q0 93 -29.5 143.5 zM198 764l139 -117l-48 -56l-151 102z" />
<glyph unicode="&#xd3;" d="M64 441q28 65 78 99t117 34t117 -34t78 -99t28 -157q0 -93 -28 -159.5t-78 -100.5t-117 -34t-117 34t-78 100.5t-28 159.5q0 92 28 157zM339.5 427.5q-29.5 50.5 -80.5 50.5q-50 0 -80 -51t-30 -143q0 -95 29.5 -146.5t80.5 -51.5t80.5 51.5t29.5 146.5q0 93 -29.5 143.5 zM320 764l60 -71l-151 -102l-48 56z" />
<glyph unicode="&#xd4;" d="M64 441q28 65 78 99t117 34t117 -34t78 -99t28 -157q0 -93 -28 -159.5t-78 -100.5t-117 -34t-117 34t-78 100.5t-28 159.5q0 92 28 157zM339.5 427.5q-29.5 50.5 -80.5 50.5q-50 0 -80 -51t-30 -143q0 -95 29.5 -146.5t80.5 -51.5t80.5 51.5t29.5 146.5q0 93 -29.5 143.5 zM198 721h120l81 -96l-47 -30l-92 74h-3l-91 -74l-48 30z" />
<glyph unicode="&#xd5;" d="M64 441q28 65 78 99t117 34t117 -34t78 -99t28 -157q0 -93 -28 -159.5t-78 -100.5t-117 -34t-117 34t-78 100.5t-28 159.5q0 92 28 157zM339.5 427.5q-29.5 50.5 -80.5 50.5q-50 0 -80 -51t-30 -143q0 -95 29.5 -146.5t80.5 -51.5t80.5 51.5t29.5 146.5q0 93 -29.5 143.5 zM177 643.5q-9 -11.5 -12 -35.5l-72 5q3 59 30.5 89t72.5 30q25 0 42.5 -8.5t39.5 -24.5q12 -10 21.5 -15t17.5 -5q29 0 35 46l72 -5q-3 -58 -30.5 -88t-72.5 -30q-24 0 -42.5 8.5t-38.5 24.5q-15 11 -23 15.5t-17 4.5q-14 0 -23 -11.5z" />
<glyph unicode="&#xd6;" d="M64 441q28 65 78 99t117 34t117 -34t78 -99t28 -157q0 -93 -28 -159.5t-78 -100.5t-117 -34t-117 34t-78 100.5t-28 159.5q0 92 28 157zM339.5 427.5q-29.5 50.5 -80.5 50.5q-50 0 -80 -51t-30 -143q0 -95 29.5 -146.5t80.5 -51.5t80.5 51.5t29.5 146.5q0 93 -29.5 143.5 zM127 706q16 16 41 16t41.5 -16t16.5 -41q0 -24 -16.5 -40.5t-41.5 -16.5q-24 0 -40.5 16.5t-16.5 40.5q0 25 16 41zM308 706q16 16 41 16t41.5 -16t16.5 -41q0 -24 -16.5 -40.5t-41.5 -16.5q-24 0 -40.5 16.5t-16.5 40.5q0 25 16 41z" />
<glyph unicode="&#xd7;" d="M203 284l-126 128l56 56l126 -128l126 128l56 -56l-127 -128l127 -127l-56 -57l-126 129l-126 -129l-56 57z" />
<glyph unicode="&#xd8;" d="M437 475q45 -73 45 -191q0 -93 -28 -159.5t-78 -100.5t-117 -34q-77 0 -130 44l-47 -67l-59 39l58 84q-45 74 -45 194q0 92 28 157t78 99t117 34q76 0 130 -43l46 65l59 -39zM158 198l171 246q-29 34 -70 34q-50 0 -80 -51t-30 -143q0 -46 9 -86zM361 367l-172 -246 q29 -35 70 -35q51 0 80.5 51.5t29.5 146.5q0 46 -8 83z" />
<glyph unicode="&#xd9;" d="M59 564h111v-358q0 -120 90 -120q44 0 68 30t24 90v358h106v-348q0 -112 -50.5 -169t-147.5 -57q-98 0 -149.5 57t-51.5 169v348zM198 764l139 -117l-48 -56l-151 102z" />
<glyph unicode="&#xda;" d="M59 564h111v-358q0 -120 90 -120q44 0 68 30t24 90v358h106v-348q0 -112 -50.5 -169t-147.5 -57q-98 0 -149.5 57t-51.5 169v348zM320 764l60 -71l-151 -102l-48 56z" />
<glyph unicode="&#xdb;" d="M59 564h111v-358q0 -120 90 -120q44 0 68 30t24 90v358h106v-348q0 -112 -50.5 -169t-147.5 -57q-98 0 -149.5 57t-51.5 169v348zM198 721h120l81 -96l-47 -30l-92 74h-3l-91 -74l-48 30z" />
<glyph unicode="&#xdc;" d="M59 564h111v-358q0 -120 90 -120q44 0 68 30t24 90v358h106v-348q0 -112 -50.5 -169t-147.5 -57q-98 0 -149.5 57t-51.5 169v348zM127 706q16 16 41 16t41.5 -16t16.5 -41q0 -24 -16.5 -40.5t-41.5 -16.5q-24 0 -40.5 16.5t-16.5 40.5q0 25 16 41zM308 706q16 16 41 16 t41.5 -16t16.5 -41q0 -24 -16.5 -40.5t-41.5 -16.5q-24 0 -40.5 16.5t-16.5 40.5q0 25 16 41z" />
<glyph unicode="&#xdd;" d="M19 564h119l65 -146l55 -129h3l28 64l29 66l65 145h114l-183 -370v-194h-110v194zM320 764l60 -71l-151 -102l-48 56z" />
<glyph unicode="&#xde;" d="M181 564v-89h85q217 0 217 -177q0 -92 -60 -138.5t-157 -46.5h-85v-113h-111v564h111zM345.5 225q28.5 24 28.5 73q0 48 -28.5 68.5t-87.5 20.5h-77v-186h77q59 0 87.5 24z" />
<glyph unicode="&#xdf;" d="M261 99q41 -26 79 -26q22 0 35 12.5t13 32.5q0 23 -14.5 37.5t-46.5 34.5q-27 17 -44 30t-28.5 34t-11.5 51q0 24 7.5 42.5t22.5 43.5q15 24 22.5 40.5t7.5 39.5q0 26 -14.5 43t-39.5 17q-39 0 -59.5 -28t-20.5 -78v-425h-110v434q0 53 22 95t64.5 65.5t103.5 23.5 q51 0 86 -19.5t53 -51.5t18 -70q0 -31 -9.5 -52.5t-27.5 -47.5q-12 -18 -18 -30.5t-6 -27.5q0 -18 13 -30.5t42 -29.5q29 -19 47 -33.5t31 -39t13 -59.5q0 -39 -17 -70t-51 -49t-80 -18q-34 0 -62.5 8.5t-57.5 25.5z" />
<glyph unicode="&#xe0;" d="M87 196q29 32 92.5 51t166.5 25q-3 35 -27 55t-70 20q-31 0 -64 -11t-71 -32l-40 73q99 59 196 59q90 0 138.5 -48t48.5 -140v-248h-91l-8 51h-3q-82 -61 -156 -61q-41 0 -73.5 16t-50 45t-17.5 65q0 48 29 80zM346 205q-101 -7 -141.5 -27t-40.5 -54q0 -23 18.5 -36 t49.5 -13q30 0 57.5 12.5t56.5 35.5v82zM210 694l130 -154l-55 -54l-150 134z" />
<glyph unicode="&#xe1;" d="M87 196q29 32 92.5 51t166.5 25q-3 35 -27 55t-70 20q-31 0 -64 -11t-71 -32l-40 73q99 59 196 59q90 0 138.5 -48t48.5 -140v-248h-91l-8 51h-3q-82 -61 -156 -61q-41 0 -73.5 16t-50 45t-17.5 65q0 48 29 80zM346 205q-101 -7 -141.5 -27t-40.5 -54q0 -23 18.5 -36 t49.5 -13q30 0 57.5 12.5t56.5 35.5v82zM341 694l75 -74l-150 -134l-54 54z" />
<glyph unicode="&#xe2;" d="M87 196q29 32 92.5 51t166.5 25q-3 35 -27 55t-70 20q-31 0 -64 -11t-71 -32l-40 73q99 59 196 59q90 0 138.5 -48t48.5 -140v-248h-91l-8 51h-3q-82 -61 -156 -61q-41 0 -73.5 16t-50 45t-17.5 65q0 48 29 80zM346 205q-101 -7 -141.5 -27t-40.5 -54q0 -23 18.5 -36 t49.5 -13q30 0 57.5 12.5t56.5 35.5v82zM219 641h113l94 -115l-43 -40l-105 85h-4l-106 -85l-43 40z" />
<glyph unicode="&#xe3;" d="M87 196q29 32 92.5 51t166.5 25q-3 35 -27 55t-70 20q-31 0 -64 -11t-71 -32l-40 73q99 59 196 59q90 0 138.5 -48t48.5 -140v-248h-91l-8 51h-3q-82 -61 -156 -61q-41 0 -73.5 16t-50 45t-17.5 65q0 48 29 80zM346 205q-101 -7 -141.5 -27t-40.5 -54q0 -23 18.5 -36 t49.5 -13q30 0 57.5 12.5t56.5 35.5v82zM186 502l-70 4q2 62 27.5 94.5t74.5 32.5q20 0 37 -9.5t37 -26.5q14 -12 23 -17.5t18 -5.5q28 0 33 53l69 -5q-1 -62 -26.5 -94t-74.5 -32q-21 0 -37.5 9t-36.5 27q-15 13 -23.5 18.5t-17.5 5.5q-28 0 -33 -54z" />
<glyph unicode="&#xe4;" d="M87 196q29 32 92.5 51t166.5 25q-3 35 -27 55t-70 20q-31 0 -64 -11t-71 -32l-40 73q99 59 196 59q90 0 138.5 -48t48.5 -140v-248h-91l-8 51h-3q-82 -61 -156 -61q-41 0 -73.5 16t-50 45t-17.5 65q0 48 29 80zM346 205q-101 -7 -141.5 -27t-40.5 -54q0 -23 18.5 -36 t49.5 -13q30 0 57.5 12.5t56.5 35.5v82zM139 605.5q18 18.5 45 18.5t44.5 -18.5t17.5 -45t-17.5 -45t-44.5 -18.5t-45 18.5t-18 45t18 45zM322.5 605.5q17.5 18.5 45 18.5t45.5 -18.5t18 -45t-18 -45t-45.5 -18.5t-45 18.5t-17.5 45t17.5 45z" />
<glyph unicode="&#xe5;" d="M87 196q29 32 92.5 51t166.5 25q-3 35 -27 55t-70 20q-31 0 -64 -11t-71 -32l-40 73q99 59 196 59q90 0 138.5 -48t48.5 -140v-248h-91l-8 51h-3q-82 -61 -156 -61q-41 0 -73.5 16t-50 45t-17.5 65q0 48 29 80zM346 205q-101 -7 -141.5 -27t-40.5 -54q0 -23 18.5 -36 t49.5 -13q30 0 57.5 12.5t56.5 35.5v82zM196 640.5q28 24.5 80 24.5q50 0 78.5 -24.5t28.5 -62.5t-28.5 -62.5t-78.5 -24.5q-52 0 -80 24t-28 62.5t28 63zM304.5 609q-11.5 13 -28.5 13q-18 0 -29.5 -12.5t-11.5 -31.5t11.5 -31.5t29.5 -12.5q17 0 28.5 12.5t11.5 31.5 q0 18 -11.5 31z" />
<glyph unicode="&#xe6;" d="M508 182h-208q6 -50 30 -77.5t60 -27.5q38 0 72 24l38 -72q-24 -19 -54.5 -29t-59.5 -10q-42 0 -75 17t-56 49q-61 -66 -127 -66q-50 0 -81.5 33t-31.5 87q0 66 48.5 105t151.5 53q-2 44 -17.5 61.5t-42.5 17.5q-40 0 -89 -31l-39 73q76 47 137 47q34 0 59.5 -16.5 t43.5 -53.5q42 70 113 70q43 0 72.5 -27.5t45 -73.5t15.5 -101q0 -25 -5 -52zM325.5 326.5q-19.5 -24.5 -25.5 -75.5h126q-1 52 -15 76t-41 24q-25 0 -44.5 -24.5zM227 112q-12 40 -12 81v8q-55 -8 -78 -28.5t-23 -49.5q0 -23 13 -35.5t34 -12.5q34 0 66 37z" />
<glyph unicode="&#xe7;" d="M358 -76q16 -15 16 -41q0 -80 -162 -87l-8 47q50 3 69.5 12t19.5 27q0 15 -15 24.5t-51 13.5l33 72q-59 7 -103.5 35t-70 75.5t-25.5 109.5q0 68 33 119t88.5 78t121.5 27q49 0 89.5 -16t68.5 -43l-51 -69q-50 38 -100 38q-62 0 -99 -36.5t-37 -97.5q0 -60 36.5 -96.5 t95.5 -36.5q57 0 117 45l45 -71q-30 -26 -66.5 -41.5t-75.5 -20.5l-18 -44q33 -8 49 -23z" />
<glyph unicode="&#xe8;" d="M465 182h-304q8 -54 44 -80.5t94 -26.5q31 0 59 8t57 24l37 -68q-35 -23 -79 -36t-88 -13q-66 0 -119.5 26.5t-84 77t-30.5 118.5t30.5 118.5t81.5 78t108 27.5q62 0 107 -26t68 -72t23 -105q0 -22 -4 -51zM202 326.5q-30 -24.5 -39 -71.5h208q-5 47 -29.5 71.5 t-66.5 24.5q-43 0 -73 -24.5zM204 694l130 -154l-55 -54l-150 134z" />
<glyph unicode="&#xe9;" d="M465 182h-304q8 -54 44 -80.5t94 -26.5q31 0 59 8t57 24l37 -68q-35 -23 -79 -36t-88 -13q-66 0 -119.5 26.5t-84 77t-30.5 118.5t30.5 118.5t81.5 78t108 27.5q62 0 107 -26t68 -72t23 -105q0 -22 -4 -51zM202 326.5q-30 -24.5 -39 -71.5h208q-5 47 -29.5 71.5 t-66.5 24.5q-43 0 -73 -24.5zM335 694l75 -74l-150 -134l-54 54z" />
<glyph unicode="&#xea;" d="M465 182h-304q8 -54 44 -80.5t94 -26.5q31 0 59 8t57 24l37 -68q-35 -23 -79 -36t-88 -13q-66 0 -119.5 26.5t-84 77t-30.5 118.5t30.5 118.5t81.5 78t108 27.5q62 0 107 -26t68 -72t23 -105q0 -22 -4 -51zM202 326.5q-30 -24.5 -39 -71.5h208q-5 47 -29.5 71.5 t-66.5 24.5q-43 0 -73 -24.5zM213 641h113l94 -115l-43 -40l-105 85h-4l-106 -85l-43 40z" />
<glyph unicode="&#xeb;" d="M465 182h-304q8 -54 44 -80.5t94 -26.5q31 0 59 8t57 24l37 -68q-35 -23 -79 -36t-88 -13q-66 0 -119.5 26.5t-84 77t-30.5 118.5t30.5 118.5t81.5 78t108 27.5q62 0 107 -26t68 -72t23 -105q0 -22 -4 -51zM202 326.5q-30 -24.5 -39 -71.5h208q-5 47 -29.5 71.5 t-66.5 24.5q-43 0 -73 -24.5zM133 605.5q18 18.5 45 18.5t44.5 -18.5t17.5 -45t-17.5 -45t-44.5 -18.5t-45 18.5t-18 45t18 45zM316.5 605.5q17.5 18.5 45 18.5t45.5 -18.5t18 -45t-18 -45t-45.5 -18.5t-45 18.5t-17.5 45t17.5 45z" />
<glyph unicode="&#xec;" d="M71 338v88h289v-426h-110v338h-179zM232 694l130 -154l-55 -54l-150 134z" />
<glyph unicode="&#xed;" d="M71 338v88h289v-426h-110v338h-179zM363 694l75 -74l-149 -134l-55 54z" />
<glyph unicode="&#xee;" d="M71 338v88h289v-426h-110v338h-179zM241 641h113l94 -115l-42 -40l-106 85h-4l-106 -85l-43 40z" />
<glyph unicode="&#xef;" d="M71 338v88h289v-426h-110v338h-179zM161.5 605.5q17.5 18.5 44.5 18.5t45 -18.5t18 -45t-18 -45t-45 -18.5t-44.5 18.5t-17.5 45t17.5 45zM345 605.5q18 18.5 45 18.5t45 -18.5t18 -45t-18 -45t-45 -18.5t-45 18.5t-18 45t18 45z" />
<glyph unicode="&#xf0;" d="M471 228q0 -70 -26 -124t-75 -84t-115 -30q-57 0 -105.5 25.5t-77 72t-28.5 107.5q0 60 25.5 104t70 67.5t96.5 23.5q35 0 66.5 -14t51.5 -42q-22 87 -91 147l-128 -65l-30 49l107 54q-38 26 -88 49l48 68q73 -34 127 -72l117 60l29 -51l-97 -50q123 -115 123 -295z M339.5 116.5q28.5 37.5 28.5 104.5q0 22 -1 33q-46 54 -109 54q-54 0 -83.5 -29.5t-29.5 -83.5q0 -53 32.5 -84.5t81.5 -31.5q52 0 80.5 37.5z" />
<glyph unicode="&#xf1;" d="M158 426l8 -62h3q33 33 69.5 52.5t81.5 19.5q71 0 106 -44.5t35 -128.5v-263h-110v249q0 48 -17 70.5t-56 22.5q-28 0 -50 -13t-50 -41v-288h-111v426h91zM183 502l-71 4q3 62 28.5 94.5t73.5 32.5q21 0 37.5 -9.5t36.5 -26.5q14 -12 23 -17.5t18 -5.5q28 0 33 53l69 -5 q-1 -62 -26.5 -94t-73.5 -32q-22 0 -38 9t-37 27q-15 13 -23.5 18.5t-17.5 5.5q-28 0 -32 -54z" />
<glyph unicode="&#xf2;" d="M73.5 331q29.5 51 79 78t106.5 27t106 -27t79 -78t30 -119t-30 -118.5t-79 -77t-106 -26.5t-106.5 26.5t-79 77t-29.5 118.5t29.5 119zM333 310q-27 36 -74 36q-48 0 -75 -36t-27 -97.5t27 -97.5t75 -36t74.5 36t26.5 97.5t-27 97.5zM193 694l130 -154l-55 -54l-150 134z " />
<glyph unicode="&#xf3;" d="M73.5 331q29.5 51 79 78t106.5 27t106 -27t79 -78t30 -119t-30 -118.5t-79 -77t-106 -26.5t-106.5 26.5t-79 77t-29.5 118.5t29.5 119zM333 310q-27 36 -74 36q-48 0 -75 -36t-27 -97.5t27 -97.5t75 -36t74.5 36t26.5 97.5t-27 97.5zM324 694l75 -74l-150 -134l-54 54z " />
<glyph unicode="&#xf4;" d="M73.5 331q29.5 51 79 78t106.5 27t106 -27t79 -78t30 -119t-30 -118.5t-79 -77t-106 -26.5t-106.5 26.5t-79 77t-29.5 118.5t29.5 119zM333 310q-27 36 -74 36q-48 0 -75 -36t-27 -97.5t27 -97.5t75 -36t74.5 36t26.5 97.5t-27 97.5zM202 641h112l95 -115l-43 -40 l-106 85h-3l-106 -85l-43 40z" />
<glyph unicode="&#xf5;" d="M73.5 331q29.5 51 79 78t106.5 27t106 -27t79 -78t30 -119t-30 -118.5t-79 -77t-106 -26.5t-106.5 26.5t-79 77t-29.5 118.5t29.5 119zM333 310q-27 36 -74 36q-48 0 -75 -36t-27 -97.5t27 -97.5t75 -36t74.5 36t26.5 97.5t-27 97.5zM169 502l-70 4q2 62 27.5 94.5 t74.5 32.5q20 0 37 -9.5t37 -26.5q14 -12 23 -17.5t18 -5.5q28 0 33 53l69 -5q-1 -62 -26.5 -94t-74.5 -32q-21 0 -37.5 9t-36.5 27q-15 13 -23.5 18.5t-17.5 5.5q-28 0 -33 -54z" />
<glyph unicode="&#xf6;" d="M73.5 331q29.5 51 79 78t106.5 27t106 -27t79 -78t30 -119t-30 -118.5t-79 -77t-106 -26.5t-106.5 26.5t-79 77t-29.5 118.5t29.5 119zM333 310q-27 36 -74 36q-48 0 -75 -36t-27 -97.5t27 -97.5t75 -36t74.5 36t26.5 97.5t-27 97.5zM122 605.5q18 18.5 45 18.5 t44.5 -18.5t17.5 -45t-17.5 -45t-44.5 -18.5t-45 18.5t-18 45t18 45zM305.5 605.5q17.5 18.5 45 18.5t45.5 -18.5t18 -45t-18 -45t-45.5 -18.5t-45 18.5t-17.5 45t17.5 45z" />
<glyph unicode="&#xf7;" d="M213.5 483q18.5 17 45.5 17t45 -17t18 -43t-18 -43.5t-45 -17.5t-45.5 17.5t-18.5 43.5t18.5 43zM453 324v-79h-389v79h389zM213.5 172q18.5 17 45.5 17t45 -17t18 -42q0 -27 -18 -44t-45 -17t-45.5 17t-18.5 44q0 25 18.5 42z" />
<glyph unicode="&#xf8;" d="M474 212q0 -68 -30 -118.5t-79 -77t-106 -26.5q-67 0 -122 36l-40 -47l-42 33l41 49q-52 60 -52 151q0 68 29.5 119t79 78t106.5 27q67 0 121 -36l40 48l44 -34l-43 -50q53 -61 53 -152zM167 146l153 182q-26 22 -61 22q-48 0 -75 -37.5t-27 -100.5q0 -37 10 -66z M333 113q27 38 27 99q0 37 -10 67l-152 -181q25 -23 61 -23q47 0 74 38z" />
<glyph unicode="&#xf9;" d="M57 426h110v-249q0 -49 17 -71t56 -22q27 0 49.5 13t47.5 44v285h110v-426h-90l-8 65h-3q-32 -36 -67.5 -55.5t-80.5 -19.5q-141 0 -141 173v263zM189 694l129 -154l-55 -54l-150 134z" />
<glyph unicode="&#xfa;" d="M57 426h110v-249q0 -49 17 -71t56 -22q27 0 49.5 13t47.5 44v285h110v-426h-90l-8 65h-3q-32 -36 -67.5 -55.5t-80.5 -19.5q-141 0 -141 173v263zM320 694l74 -74l-149 -134l-55 54z" />
<glyph unicode="&#xfb;" d="M57 426h110v-249q0 -49 17 -71t56 -22q27 0 49.5 13t47.5 44v285h110v-426h-90l-8 65h-3q-32 -36 -67.5 -55.5t-80.5 -19.5q-141 0 -141 173v263zM198 641h112l95 -115l-43 -40l-106 85h-4l-105 -85l-43 40z" />
<glyph unicode="&#xfc;" d="M57 426h110v-249q0 -49 17 -71t56 -22q27 0 49.5 13t47.5 44v285h110v-426h-90l-8 65h-3q-32 -36 -67.5 -55.5t-80.5 -19.5q-141 0 -141 173v263zM117.5 605.5q17.5 18.5 45.5 18.5q26 0 44 -18.5t18 -45t-18 -45t-44 -18.5q-28 0 -45.5 18.5t-17.5 45t17.5 45z M301 605.5q18 18.5 45.5 18.5t45 -18.5t17.5 -45t-17.5 -45t-45 -18.5t-45.5 18.5t-18 45t18 45z" />
<glyph unicode="&#xfd;" d="M78 -78q18 -6 35 -6q69 0 98 66l9 25l-188 419h109l82 -199q15 -39 45 -126h3q9 33 32 100l9 26l71 199h105l-174 -439q-30 -80 -74.5 -119t-119.5 -39q-34 0 -62 8zM330 694l75 -74l-150 -134l-54 54z" />
<glyph unicode="&#xfe;" d="M178 608v-157l-5 -68h3q26 24 59 38.5t65 14.5q54 0 93 -26.5t60 -75.5t21 -114q0 -71 -26.5 -123t-69.5 -79.5t-92 -27.5q-29 0 -58 13t-52 35h-3l5 -72v-130h-111v772h111zM269 346q-45 0 -91 -48v-183q19 -18 42 -26t43 -8q42 0 69.5 35.5t27.5 101.5q0 128 -91 128z " />
<glyph unicode="&#xff;" d="M78 -78q18 -6 35 -6q69 0 98 66l9 25l-188 419h109l82 -199q15 -39 45 -126h3q9 33 32 100l9 26l71 199h105l-174 -439q-30 -80 -74.5 -119t-119.5 -39q-34 0 -62 8zM128 605.5q18 18.5 45 18.5t44.5 -18.5t17.5 -45t-17.5 -45t-44.5 -18.5t-45 18.5t-18 45t18 45z M311.5 605.5q17.5 18.5 45 18.5t45.5 -18.5t18 -45t-18 -45t-45.5 -18.5t-45 18.5t-17.5 45t17.5 45z" />
<glyph unicode="&#x100;" d="M347 145h-181l-39 -145h-114l180 564h131l181 -564h-118zM323 232l-17 62l-9 32q-26 101 -39 153h-3q-27 -111 -48 -185l-17 -62h133zM386 698v-72h-253v72h253z" />
<glyph unicode="&#x101;" d="M87 196q29 32 92.5 51t166.5 25q-3 35 -27 55t-70 20q-31 0 -64 -11t-71 -32l-40 73q99 59 196 59q90 0 138.5 -48t48.5 -140v-248h-91l-8 51h-3q-82 -61 -156 -61q-41 0 -73.5 16t-50 45t-17.5 65q0 48 29 80zM346 205q-101 -7 -141.5 -27t-40.5 -54q0 -23 18.5 -36 t49.5 -13q30 0 57.5 12.5t56.5 35.5v82zM399 585v-72h-247v72h247z" />
<glyph unicode="&#x102;" d="M347 145h-181l-39 -145h-114l180 564h131l181 -564h-118zM323 232l-17 62l-9 32q-26 101 -39 153h-3q-27 -111 -48 -185l-17 -62h133zM184 730q5 -28 25 -44.5t50 -16.5t49.5 16.5t25.5 44.5l62 -11q-6 -54 -41 -84.5t-96 -30.5t-95.5 30.5t-40.5 84.5z" />
<glyph unicode="&#x103;" d="M87 196q29 32 92.5 51t166.5 25q-3 35 -27 55t-70 20q-31 0 -64 -11t-71 -32l-40 73q99 59 196 59q90 0 138.5 -48t48.5 -140v-248h-91l-8 51h-3q-82 -61 -156 -61q-41 0 -73.5 16t-50 45t-17.5 65q0 48 29 80zM346 205q-101 -7 -141.5 -27t-40.5 -54q0 -23 18.5 -36 t49.5 -13q30 0 57.5 12.5t56.5 35.5v82zM198 638q4 -32 23.5 -53.5t54.5 -21.5q34 0 53.5 21t24.5 54l65 -10q-3 -60 -38.5 -97.5t-104.5 -37.5t-105 38t-38 97z" />
<glyph unicode="&#x104;" d="M528 -164q-17 -14 -40.5 -22.5t-47.5 -8.5q-43 0 -70.5 21.5t-27.5 59.5q0 37 22.5 66.5t51.5 47.5h-29l-40 145h-181l-39 -145h-114l180 564h131l181 -564q-36 -7 -58.5 -31.5t-22.5 -54.5q0 -18 11 -27.5t27 -9.5q22 0 39 16zM323 232l-17 62q-26 94 -48 185h-3 q-32 -130 -48 -185l-17 -62h133z" />
<glyph unicode="&#x105;" d="M312 -47q22 28 55 47l-9 51h-3q-82 -61 -156 -61q-41 0 -73.5 16t-50 45t-17.5 65q0 48 29 80t92.5 51t166.5 25q-3 35 -27 55t-70 20q-31 0 -64 -11t-71 -32l-40 73q99 59 196 59q90 0 138.5 -48t48.5 -140v-248q-46 -16 -68.5 -38.5t-22.5 -48.5q0 -20 13.5 -31 t32.5 -11q24 0 42 14l26 -49q-18 -15 -43 -23t-50 -8q-42 0 -69.5 21.5t-27.5 61.5q0 37 22 65zM346 205q-101 -7 -141.5 -27t-40.5 -54q0 -23 18.5 -36t49.5 -13q30 0 57.5 12.5t56.5 35.5v82z" />
<glyph unicode="&#x106;" d="M84 436q34 67 94 102.5t136 35.5q49 0 91.5 -20t71.5 -51l-60 -69q-45 44 -103 44q-44 0 -78.5 -23.5t-53 -67.5t-18.5 -104q0 -61 19 -105.5t54 -68t80 -23.5q61 0 109 53l62 -67q-71 -82 -182 -82q-71 0 -129.5 34t-92.5 99.5t-34 155.5t34 157zM364 764l59 -71 l-150 -102l-49 56z" />
<glyph unicode="&#x107;" d="M94 331q33 51 88.5 78t121.5 27q49 0 89.5 -16t68.5 -43l-51 -69q-50 38 -100 38q-62 0 -99 -36.5t-37 -97.5q0 -60 36.5 -96.5t95.5 -36.5q57 0 117 45l45 -71q-36 -31 -81 -47t-91 -16q-68 0 -121.5 26.5t-84 77t-30.5 118.5t33 119zM361 694l75 -74l-150 -134l-54 54z " />
<glyph unicode="&#x108;" d="M84 436q34 67 94 102.5t136 35.5q49 0 91.5 -20t71.5 -51l-60 -69q-45 44 -103 44q-44 0 -78.5 -23.5t-53 -67.5t-18.5 -104q0 -61 19 -105.5t54 -68t80 -23.5q61 0 109 53l62 -67q-71 -82 -182 -82q-71 0 -129.5 34t-92.5 99.5t-34 155.5t34 157zM242 721h120l81 -96 l-48 -30l-91 74h-4l-91 -74l-48 30z" />
<glyph unicode="&#x109;" d="M94 331q33 51 88.5 78t121.5 27q49 0 89.5 -16t68.5 -43l-51 -69q-50 38 -100 38q-62 0 -99 -36.5t-37 -97.5q0 -60 36.5 -96.5t95.5 -36.5q57 0 117 45l45 -71q-36 -31 -81 -47t-91 -16q-68 0 -121.5 26.5t-84 77t-30.5 118.5t33 119zM239 641h113l94 -115l-43 -40 l-106 85h-3l-106 -85l-43 40z" />
<glyph unicode="&#x10a;" d="M84 436q34 67 94 102.5t136 35.5q49 0 91.5 -20t71.5 -51l-60 -69q-45 44 -103 44q-44 0 -78.5 -23.5t-53 -67.5t-18.5 -104q0 -61 19 -105.5t54 -68t80 -23.5q61 0 109 53l62 -67q-71 -82 -182 -82q-71 0 -129.5 34t-92.5 99.5t-34 155.5t34 157zM252.5 720.5 q19.5 18.5 50 18.5t50.5 -18.5t20 -47t-20 -47t-50.5 -18.5t-50 18.5t-19.5 47t19.5 47z" />
<glyph unicode="&#x10b;" d="M94 331q33 51 88.5 78t121.5 27q49 0 89.5 -16t68.5 -43l-51 -69q-50 38 -100 38q-62 0 -99 -36.5t-37 -97.5q0 -60 36.5 -96.5t95.5 -36.5q57 0 117 45l45 -71q-36 -31 -81 -47t-91 -16q-68 0 -121.5 26.5t-84 77t-30.5 118.5t33 119zM241.5 622q21.5 20 54.5 20t54 -20 t21 -52t-21 -51.5t-54 -19.5t-54.5 19.5t-21.5 51.5t21.5 52z" />
<glyph unicode="&#x10c;" d="M84 436q34 67 94 102.5t136 35.5q49 0 91.5 -20t71.5 -51l-60 -69q-45 44 -103 44q-44 0 -78.5 -23.5t-53 -67.5t-18.5 -104q0 -61 19 -105.5t54 -68t80 -23.5q61 0 109 53l62 -67q-71 -82 -182 -82q-71 0 -129.5 34t-92.5 99.5t-34 155.5t34 157zM209 733l91 -74h4 l91 74l48 -31l-81 -95h-120l-81 95z" />
<glyph unicode="&#x10d;" d="M94 331q33 51 88.5 78t121.5 27q49 0 89.5 -16t68.5 -43l-51 -69q-50 38 -100 38q-62 0 -99 -36.5t-37 -97.5q0 -60 36.5 -96.5t95.5 -36.5q57 0 117 45l45 -71q-36 -31 -81 -47t-91 -16q-68 0 -121.5 26.5t-84 77t-30.5 118.5t33 119zM188 653l106 -85h3l106 85l43 -41 l-94 -115h-113l-94 115z" />
<glyph unicode="&#x10e;" d="M216 564q127 0 197 -70.5t70 -209.5t-69.5 -211.5t-192.5 -72.5h-156v564h151zM369 284q0 99 -41 144.5t-119 45.5h-34v-384h34q160 0 160 194zM166 733l91 -74h3l92 74l47 -31l-81 -95h-120l-80 95z" />
<glyph unicode="&#x10f;" d="M543 708l-1 -80l-18 -155h-76l-3 235h98zM57.5 330.5q23.5 50.5 62 78t81.5 27.5q31 0 54 -12t48 -36h3l-6 69v151h105v-608h-85l-8 47h-3q-25 -26 -54 -41.5t-57 -15.5q-49 0 -86 26.5t-57.5 77t-20.5 118.5t23.5 118.5zM300 311q-20 18 -37 26.5t-34 8.5 q-37 0 -62.5 -35.5t-25.5 -96.5q0 -66 22 -99.5t61 -33.5q21 0 39 11t37 35v184z" />
<glyph unicode="&#x110;" d="M4 264v50l61 6v244h152q126 0 196.5 -70.5t70.5 -209.5t-70 -211.5t-192 -72.5h-157v264h-61zM369 284q0 99 -41 144.5t-119 45.5h-34v-154h103v-56h-103v-174h34q160 0 160 194z" />
<glyph unicode="&#x111;" d="M508 488l-58 -4v-484h-90l-8 47h-3q-26 -26 -58.5 -41.5t-65.5 -15.5q-55 0 -96 25.5t-63 74t-22 114.5q0 65 25.5 113.5t68.5 75t91 26.5q35 0 61.5 -12.5t51.5 -36.5h3l-5 70v43h-139v56h139v69h110v-69h58v-51zM340 293q-38 35 -81.5 35t-72.5 -32.5t-29 -90.5 q0 -61 24.5 -92.5t70.5 -31.5q49 0 88 46v166z" />
<glyph unicode="&#x112;" d="M451 564v-93h-256v-133h217v-93h-217v-152h265v-93h-375v564h366zM408 698v-72h-253v72h253z" />
<glyph unicode="&#x113;" d="M465 182h-304q8 -54 44 -80.5t94 -26.5q31 0 59 8t57 24l37 -68q-35 -23 -79 -36t-88 -13q-66 0 -119.5 26.5t-84 77t-30.5 118.5t30.5 118.5t81.5 78t108 27.5q62 0 107 -26t68 -72t23 -105q0 -22 -4 -51zM202 326.5q-30 -24.5 -39 -71.5h208q-5 47 -29.5 71.5 t-66.5 24.5q-43 0 -73 -24.5zM393 585v-72h-247v72h247z" />
<glyph unicode="&#x114;" d="M451 564v-93h-256v-133h217v-93h-217v-152h265v-93h-375v564h366zM206 730q6 -28 25.5 -44.5t50 -16.5t49.5 16.5t25 44.5l62 -11q-6 -54 -40.5 -84.5t-96 -30.5t-96 30.5t-40.5 84.5z" />
<glyph unicode="&#x115;" d="M465 182h-304q8 -54 44 -80.5t94 -26.5q31 0 59 8t57 24l37 -68q-35 -23 -79 -36t-88 -13q-66 0 -119.5 26.5t-84 77t-30.5 118.5t30.5 118.5t81.5 78t108 27.5q62 0 107 -26t68 -72t23 -105q0 -22 -4 -51zM202 326.5q-30 -24.5 -39 -71.5h208q-5 47 -29.5 71.5 t-66.5 24.5q-43 0 -73 -24.5zM192 638q4 -32 23.5 -53.5t54.5 -21.5q34 0 53.5 21t25.5 54l64 -10q-3 -60 -38.5 -97.5t-104.5 -37.5t-104.5 38t-38.5 97z" />
<glyph unicode="&#x116;" d="M451 564v-93h-256v-133h217v-93h-217v-152h265v-93h-375v564h366zM231.5 720.5q19.5 18.5 50 18.5t50.5 -18.5t20 -47t-20 -47t-50.5 -18.5t-50 18.5t-19.5 47t19.5 47z" />
<glyph unicode="&#x117;" d="M465 182h-304q8 -54 44 -80.5t94 -26.5q31 0 59 8t57 24l37 -68q-35 -23 -79 -36t-88 -13q-66 0 -119.5 26.5t-84 77t-30.5 118.5t30.5 118.5t81.5 78t108 27.5q62 0 107 -26t68 -72t23 -105q0 -22 -4 -51zM202 326.5q-30 -24.5 -39 -71.5h208q-5 47 -29.5 71.5 t-66.5 24.5q-43 0 -73 -24.5zM215.5 622q21.5 20 54.5 20t54.5 -20t21.5 -52t-21.5 -51.5t-54.5 -19.5t-54.5 19.5t-21.5 51.5t21.5 52z" />
<glyph unicode="&#x118;" d="M314.5 -48q21.5 30 51.5 48h-279v564h364v-93h-253v-133h215v-93h-215v-152h262v-93h-4q-21 -1 -39.5 -14t-30 -32.5t-11.5 -39.5q0 -18 12 -27.5t30 -9.5q17 0 35 16l28 -57q-18 -14 -42 -22.5t-47 -8.5q-43 0 -70.5 21.5t-27.5 59.5q0 36 21.5 66z" />
<glyph unicode="&#x119;" d="M465 182h-304q8 -54 44 -80.5t94 -26.5q59 0 116 32l37 -68q-45 -30 -69.5 -50.5t-34.5 -38t-10 -37.5t14 -31t33 -11q22 0 42 14l25 -49q-17 -15 -41.5 -23t-50.5 -8q-43 0 -70 21.5t-27 61.5q0 31 14.5 55.5t45.5 49.5q-16 -3 -38 -3q-66 0 -119.5 26.5t-84 77 t-30.5 118.5t30.5 118.5t81.5 78t108 27.5q62 0 107 -26t68 -72t23 -105q0 -22 -4 -51zM202 326.5q-30 -24.5 -39 -71.5h208q-5 47 -29.5 71.5t-66.5 24.5q-43 0 -73 -24.5z" />
<glyph unicode="&#x11a;" d="M451 564v-93h-256v-133h217v-93h-217v-152h265v-93h-375v564h366zM188 733l91 -74h4l91 74l47 -31l-81 -95h-119l-81 95z" />
<glyph unicode="&#x11b;" d="M465 182h-304q8 -54 44 -80.5t94 -26.5q31 0 59 8t57 24l37 -68q-35 -23 -79 -36t-88 -13q-66 0 -119.5 26.5t-84 77t-30.5 118.5t30.5 118.5t81.5 78t108 27.5q62 0 107 -26t68 -72t23 -105q0 -22 -4 -51zM202 326.5q-30 -24.5 -39 -71.5h208q-5 47 -29.5 71.5 t-66.5 24.5q-43 0 -73 -24.5zM162 653l106 -85h4l105 85l43 -41l-94 -115h-113l-94 115z" />
<glyph unicode="&#x11c;" d="M73.5 437q33.5 67 91.5 102t132 35q93 0 163 -71l-62 -69q-21 21 -44 32.5t-57 11.5q-41 0 -74 -23.5t-51 -68t-18 -103.5q0 -94 37.5 -145.5t108.5 -51.5q21 0 39 5.5t29 15.5v113h-90v90h190v-253q-31 -29 -77 -48t-97 -19q-73 0 -130 33.5t-90.5 99t-33.5 156.5 t33.5 158zM224 721h120l81 -96l-48 -30l-91 74h-3l-91 -74l-48 30z" />
<glyph unicode="&#x11d;" d="M67 -25.5q17 22.5 50 39.5v4q-43 24 -43 71q0 21 13.5 42.5t37.5 37.5v4q-25 16 -40 44.5t-15 64.5q0 48 24 83t65 53t89 18q38 0 67 -10h174v-82h-94q11 -13 18 -30t7 -36q0 -69 -48.5 -106t-123.5 -37q-27 0 -63 10q-23 -15 -23 -35t19 -28.5t58 -8.5h84q85 0 127 -26 t42 -80q0 -43 -30.5 -77.5t-87 -54.5t-131.5 -20q-89 0 -141 28t-52 83q0 26 17 48.5zM300.5 339q-21.5 21 -52.5 21q-32 0 -53 -21t-21 -57q0 -37 21 -58t53 -21q31 0 52.5 21.5t21.5 57.5t-21.5 57zM366.5 -22q-19.5 8 -61.5 8h-62q-41 0 -65 7q-37 -23 -37 -51 q0 -26 31 -41.5t86 -15.5q37 0 66.5 8.5t45.5 23t16 31.5q0 22 -19.5 30zM206 641h113l95 -115l-43 -40l-106 85h-4l-106 -85l-43 40z" />
<glyph unicode="&#x11e;" d="M73.5 437q33.5 67 91.5 102t132 35q93 0 163 -71l-62 -69q-21 21 -44 32.5t-57 11.5q-41 0 -74 -23.5t-51 -68t-18 -103.5q0 -94 37.5 -145.5t108.5 -51.5q21 0 39 5.5t29 15.5v113h-90v90h190v-253q-31 -29 -77 -48t-97 -19q-73 0 -130 33.5t-90.5 99t-33.5 156.5 t33.5 158zM210 730q5 -28 25 -44.5t50 -16.5t49.5 16.5t25.5 44.5l62 -11q-6 -54 -41 -84.5t-96.5 -30.5t-95.5 30.5t-40 84.5z" />
<glyph unicode="&#x11f;" d="M67 -25.5q17 22.5 50 39.5v4q-43 24 -43 71q0 21 13.5 42.5t37.5 37.5v4q-25 16 -40 44.5t-15 64.5q0 48 24 83t65 53t89 18q38 0 67 -10h174v-82h-94q11 -13 18 -30t7 -36q0 -69 -48.5 -106t-123.5 -37q-27 0 -63 10q-23 -15 -23 -35t19 -28.5t58 -8.5h84q85 0 127 -26 t42 -80q0 -43 -30.5 -77.5t-87 -54.5t-131.5 -20q-89 0 -141 28t-52 83q0 26 17 48.5zM300.5 339q-21.5 21 -52.5 21q-32 0 -53 -21t-21 -57q0 -37 21 -58t53 -21q31 0 52.5 21.5t21.5 57.5t-21.5 57zM366.5 -22q-19.5 8 -61.5 8h-62q-41 0 -65 7q-37 -23 -37 -51 q0 -26 31 -41.5t86 -15.5q37 0 66.5 8.5t45.5 23t16 31.5q0 22 -19.5 30zM185 638q4 -32 24 -53.5t54 -21.5t54 21t25 54l64 -10q-3 -60 -38.5 -97.5t-104 -37.5t-104.5 38t-38 97z" />
<glyph unicode="&#x120;" d="M73.5 437q33.5 67 91.5 102t132 35q93 0 163 -71l-62 -69q-21 21 -44 32.5t-57 11.5q-41 0 -74 -23.5t-51 -68t-18 -103.5q0 -94 37.5 -145.5t108.5 -51.5q21 0 39 5.5t29 15.5v113h-90v90h190v-253q-31 -29 -77 -48t-97 -19q-73 0 -130 33.5t-90.5 99t-33.5 156.5 t33.5 158zM235 720.5q20 18.5 50 18.5t50 -18.5t20 -47t-20 -47t-50 -18.5t-50 18.5t-20 47t20 47z" />
<glyph unicode="&#x121;" d="M67 -25.5q17 22.5 50 39.5v4q-43 24 -43 71q0 21 13.5 42.5t37.5 37.5v4q-25 16 -40 44.5t-15 64.5q0 48 24 83t65 53t89 18q38 0 67 -10h174v-82h-94q11 -13 18 -30t7 -36q0 -69 -48.5 -106t-123.5 -37q-27 0 -63 10q-23 -15 -23 -35t19 -28.5t58 -8.5h84q85 0 127 -26 t42 -80q0 -43 -30.5 -77.5t-87 -54.5t-131.5 -20q-89 0 -141 28t-52 83q0 26 17 48.5zM300.5 339q-21.5 21 -52.5 21q-32 0 -53 -21t-21 -57q0 -37 21 -58t53 -21q31 0 52.5 21.5t21.5 57.5t-21.5 57zM366.5 -22q-19.5 8 -61.5 8h-62q-41 0 -65 7q-37 -23 -37 -51 q0 -26 31 -41.5t86 -15.5q37 0 66.5 8.5t45.5 23t16 31.5q0 22 -19.5 30zM208.5 622q21.5 20 54.5 20t54.5 -20t21.5 -52t-21 -51.5t-54.5 -19.5t-55 19.5t-21.5 51.5t21.5 52z" />
<glyph unicode="&#x122;" d="M73.5 437q33.5 67 91.5 102t132 35q93 0 163 -71l-62 -69q-21 21 -44 32.5t-57 11.5q-41 0 -74 -23.5t-51 -68t-18 -103.5q0 -94 37.5 -145.5t108.5 -51.5q21 0 39 5.5t29 15.5v113h-90v90h190v-253q-31 -29 -77 -48t-97 -19q-73 0 -130 33.5t-90.5 99t-33.5 156.5 t33.5 158zM258 -146q20 8 20 25q0 14 -14 21.5t-43 10.5l22 43q64 -7 89.5 -23t25.5 -48q0 -80 -161 -87l-9 47q50 3 70 11z" />
<glyph unicode="&#x123;" d="M67 -25.5q17 22.5 50 39.5v4q-43 24 -43 71q0 21 13.5 42.5t37.5 37.5v4q-25 16 -40 44.5t-15 64.5q0 48 24 83t65 53t89 18q38 0 67 -10h174v-82h-94q11 -13 18 -30t7 -36q0 -69 -48.5 -106t-123.5 -37q-27 0 -63 10q-23 -15 -23 -35t19 -28.5t58 -8.5h84q85 0 127 -26 t42 -80q0 -43 -30.5 -77.5t-87 -54.5t-131.5 -20q-89 0 -141 28t-52 83q0 26 17 48.5zM300.5 339q-21.5 21 -52.5 21q-32 0 -53 -21t-21 -57q0 -37 21 -58t53 -21q31 0 52.5 21.5t21.5 57.5t-21.5 57zM366.5 -22q-19.5 8 -61.5 8h-62q-41 0 -65 7q-37 -23 -37 -51 q0 -26 31 -41.5t86 -15.5q37 0 66.5 8.5t45.5 23t16 31.5q0 22 -19.5 30zM348 649l9 -47q-51 -3 -71 -11t-20 -24q0 -27 57 -32l-22 -43q-63 6 -89 22.5t-26 47.5q0 80 162 87z" />
<glyph unicode="&#x124;" d="M170 564v-223h177v223h111v-564h-111v244h-177v-244h-111v564h111zM198 721h120l81 -96l-47 -30l-92 74h-3l-91 -74l-48 30z" />
<glyph unicode="&#x125;" d="M178 608v-154l-6 -88h2q65 70 146 70q71 0 106 -44.5t35 -128.5v-263h-110v249q0 48 -17 70.5t-56 22.5q-28 0 -50 -13t-50 -41v-288h-111v608h111zM61 773h120l80 -96l-47 -30l-91 74h-4l-91 -74l-48 30z" />
<glyph unicode="&#x126;" d="M514 420h-56v-420h-111v244h-177v-244h-111v420h-55v51l55 5v88h111v-88h177v88h111v-88h56v-56zM347 420h-177v-79h177v79z" />
<glyph unicode="&#x127;" d="M426 374q35 -45 35 -128v-246h-110v232q0 48 -17 70t-56 22q-28 0 -50 -12.5t-50 -40.5v-271h-111v483h-59v51l59 4v70h111v-69h164v-56h-164v-46l-6 -88h2q65 70 146 70q71 0 106 -45z" />
<glyph unicode="&#x128;" d="M204 93v378h-134v93h378v-93h-134v-378h134v-93h-378v93h134zM177 643.5q-9 -11.5 -12 -35.5l-72 5q3 59 30.5 89t72.5 30q25 0 42.5 -8.5t39.5 -24.5q12 -10 21.5 -15t17.5 -5q29 0 35 46l72 -5q-3 -58 -30.5 -88t-72.5 -30q-24 0 -42.5 8.5t-38.5 24.5q-15 11 -23 15.5 t-17 4.5q-14 0 -23 -11.5z" />
<glyph unicode="&#x129;" d="M71 338v88h289v-426h-110v338h-179zM209 502l-71 4q3 62 28.5 94.5t73.5 32.5q20 0 37 -9.5t37 -26.5q14 -12 23 -17.5t18 -5.5q28 0 33 53l69 -5q-1 -62 -26.5 -94t-73.5 -32q-22 0 -38 9t-37 27q-15 13 -23.5 18.5t-17.5 5.5q-28 0 -32 -54z" />
<glyph unicode="&#x12a;" d="M204 93v378h-134v93h378v-93h-134v-378h134v-93h-378v93h134zM386 698v-72h-253v72h253z" />
<glyph unicode="&#x12b;" d="M71 338v88h289v-426h-110v338h-179zM421 585v-72h-247v72h247z" />
<glyph unicode="&#x12c;" d="M204 93v378h-134v93h378v-93h-134v-378h134v-93h-378v93h134zM184 730q5 -28 25 -44.5t50 -16.5t49.5 16.5t25.5 44.5l62 -11q-6 -54 -41 -84.5t-96 -30.5t-95.5 30.5t-40.5 84.5z" />
<glyph unicode="&#x12d;" d="M71 338v88h289v-426h-110v338h-179zM220 638q4 -32 23.5 -53.5t54.5 -21.5q34 0 53.5 21t25.5 54l64 -10q-3 -60 -38.5 -97.5t-104.5 -37.5t-104.5 38t-38.5 97z" />
<glyph unicode="&#x12e;" d="M188 -50q19 29 45 50h-163v93h134v378h-134v93h378v-93h-134v-378h134v-93h-131q-34 -17 -50 -39.5t-16 -46.5q0 -18 12 -27.5t29 -9.5q18 0 35 16l28 -57q-17 -14 -41 -22.5t-48 -8.5q-43 0 -70 21.5t-27 59.5q0 35 19 64z" />
<glyph unicode="&#x12f;" d="M280 0h-30v338h-179v88h289v-428q-40 -15 -59 -37.5t-19 -47.5q0 -20 13.5 -31t33.5 -11q18 0 42 14l25 -49q-17 -15 -42.5 -23t-50.5 -8q-42 0 -69.5 21.5t-27.5 61.5q0 66 74 112zM243.5 622q21.5 20 54.5 20t54.5 -20t21.5 -52t-21 -51.5t-54.5 -19.5t-55 19.5 t-21.5 51.5t21.5 52z" />
<glyph unicode="&#x130;" d="M204 93v378h-134v93h378v-93h-134v-378h134v-93h-378v93h134zM209 720.5q20 18.5 50 18.5t50 -18.5t20 -47t-20 -47t-50 -18.5t-50 18.5t-20 47t20 47z" />
<glyph unicode="&#x131;" d="M71 338v88h289v-426h-110v338h-179z" />
<glyph unicode="&#x132;" d="M185 564v-564h-111v564h111zM241 -57q27 -7 41 -7q28 0 39.5 17.5t11.5 55.5v555h111v-554q0 -74 -34.5 -118t-112.5 -44q-42 0 -75 12z" />
<glyph unicode="&#x133;" d="M82 602.5q19 17.5 49 17.5t49 -17.5t19 -44.5t-19 -45t-49 -18t-49 18t-19 45t19 44.5zM350 602.5q19 17.5 48.5 17.5t48.5 -17.5t19 -44.5t-19 -45t-48.5 -18t-48.5 18t-19 45t19 44.5zM186 426v-426h-111v426h111zM260 -81q23 -6 36 -6q27 0 37 17t10 55v441h111v-438 q0 -75 -33.5 -119t-108.5 -44q-43 0 -72 12z" />
<glyph unicode="&#x134;" d="M121 152q25 -33 53.5 -49.5t57.5 -16.5q50 0 73.5 26t23.5 86v273h-225v93h336v-375q0 -90 -48.5 -144.5t-155.5 -54.5q-52 0 -99.5 22.5t-80.5 70.5zM221 721h120l81 -96l-48 -30l-91 74h-3l-91 -74l-48 30z" />
<glyph unicode="&#x135;" d="M73 -66q45 -21 89 -21q50 0 69 23t19 74v328h-179v88h289v-411q0 -190 -192 -190q-68 0 -128 29zM241 641h113l94 -115l-42 -40l-106 85h-4l-106 -85l-43 40z" />
<glyph unicode="&#x136;" d="M386 0l-134 257l-74 -95v-162h-112v564h112v-247h3l188 247h123l-172 -221l189 -343h-123zM261 -146q20 8 20 25q0 14 -13.5 21.5t-42.5 10.5l21 43q65 -7 90.5 -23t25.5 -48q0 -80 -161 -87l-9 47q49 3 69 11z" />
<glyph unicode="&#x137;" d="M382 0l-125 186l-73 -76v-110h-111v608h111v-370h2l178 188h122l-164 -172l180 -254h-120zM260 -146q20 8 20 25q0 14 -14 21.5t-43 10.5l22 43q64 -7 89.5 -23t25.5 -48q0 -80 -161 -87l-9 47q50 3 70 11z" />
<glyph unicode="&#x138;" d="M184 426v-186l2 1l178 185h122l-163 -174l179 -252h-120l-124 180l-74 -72v-108h-111v426h111z" />
<glyph unicode="&#x139;" d="M209 564v-471h259v-93h-369v564h110zM226 764l60 -71l-151 -102l-48 56z" />
<glyph unicode="&#x13a;" d="M188 520h-130v88h240v-454q0 -39 20.5 -57t53.5 -18t70 16l26 -82q-37 -12 -62.5 -17.5t-61.5 -5.5q-75 0 -115.5 44.5t-40.5 124.5v361zM301 816l59 -72l-150 -101l-49 56z" />
<glyph unicode="&#x13b;" d="M209 564v-471h259v-93h-369v564h110zM270 -146q20 8 20 25q0 14 -13.5 21.5t-42.5 10.5l21 43q65 -7 90.5 -23t25.5 -48q0 -80 -162 -87l-8 47q49 3 69 11z" />
<glyph unicode="&#x13c;" d="M188 520h-130v88h240v-454q0 -39 20.5 -57t53.5 -18t70 16l26 -82q-37 -12 -62.5 -17.5t-61.5 -5.5q-75 0 -115.5 44.5t-40.5 124.5v361zM299 -146q20 8 20 25q0 14 -13.5 21.5t-42.5 10.5l21 43q65 -7 90.5 -23t25.5 -48q0 -80 -162 -87l-9 47q50 3 70 11z" />
<glyph unicode="&#x13d;" d="M209 564v-471h259v-93h-369v564h110zM416 676l-1 -80l-18 -155h-76l-4 235h99z" />
<glyph unicode="&#x13e;" d="M188 520h-130v88h240v-454q0 -39 20.5 -57t53.5 -18t70 16l26 -82q-37 -12 -62.5 -17.5t-61.5 -5.5q-75 0 -115.5 44.5t-40.5 124.5v361zM449 708l-1 -80l-18 -155h-76l-3 235h98z" />
<glyph unicode="&#x13f;" d="M209 564v-471h259v-93h-369v564h110zM353 359q21 20 55 20q32 0 53.5 -20t21.5 -52t-21 -51.5t-54.5 -19.5t-54.5 19.5t-21 51.5t21 52z" />
<glyph unicode="&#x140;" d="M148 520h-130v88h240v-454q0 -39 20.5 -57t53.5 -18t70 16l26 -82q-37 -12 -62.5 -17.5t-61.5 -5.5q-75 0 -115.5 44.5t-40.5 124.5v361zM427.5 358q21.5 20 54.5 20t54.5 -20t21.5 -51.5t-21 -51.5t-54.5 -20t-55 20t-21.5 51.5t21.5 51.5z" />
<glyph unicode="&#x141;" d="M468 93v-93h-369v186l-63 -36l-38 67l101 56v291h110v-241l163 89l38 -67l-201 -109v-143h259z" />
<glyph unicode="&#x142;" d="M468 13q-37 -12 -62.5 -17.5t-61.5 -5.5q-75 0 -115.5 44.5t-40.5 124.5v94l-79 -46l-38 70l117 66v177h-130v88h240v-212l112 63l37 -70l-149 -83v-152q0 -39 20.5 -57t53.5 -18t70 16z" />
<glyph unicode="&#x143;" d="M174 564l138 -303l51 -121h3l-6 59q-3 34 -6 71.5t-3 66.5v227h106v-564h-113l-138 303l-51 121h-3q1 -21 6 -58q3 -34 6 -71.5t3 -66.5v-228h-106v564h113zM329 764l59 -71l-150 -102l-49 56z" />
<glyph unicode="&#x144;" d="M158 426l8 -62h3q33 33 69.5 52.5t81.5 19.5q71 0 106 -44.5t35 -128.5v-263h-110v249q0 48 -17 70.5t-56 22.5q-28 0 -50 -13t-50 -41v-288h-111v426h91zM337 694l75 -74l-149 -134l-55 54z" />
<glyph unicode="&#x145;" d="M174 564l138 -303l51 -121h3l-6 59q-3 34 -6 71.5t-3 66.5v227h106v-564h-113l-138 303l-51 121h-3q1 -21 6 -58q3 -34 6 -71.5t3 -66.5v-228h-106v564h113zM236 -146q20 8 20 25q0 14 -13.5 21.5t-42.5 10.5l21 43q65 -7 90.5 -23t25.5 -48q0 -80 -162 -87l-9 47 q50 3 70 11z" />
<glyph unicode="&#x146;" d="M158 426l8 -62h3q33 33 69.5 52.5t81.5 19.5q71 0 106 -44.5t35 -128.5v-263h-110v249q0 48 -17 70.5t-56 22.5q-28 0 -50 -13t-50 -41v-288h-111v426h91zM243 -146q20 8 20 25q0 14 -13.5 21.5t-42.5 10.5l22 43q64 -7 89.5 -23t25.5 -48q0 -80 -161 -87l-9 47 q49 3 69 11z" />
<glyph unicode="&#x147;" d="M174 564l138 -303l51 -121h3l-6 59q-3 34 -6 71.5t-3 66.5v227h106v-564h-113l-138 303l-51 121h-3q1 -21 6 -58q3 -34 6 -71.5t3 -66.5v-228h-106v564h113zM175 733l91 -74h3l91 74l48 -31l-81 -95h-120l-80 95z" />
<glyph unicode="&#x148;" d="M158 426l8 -62h3q33 33 69.5 52.5t81.5 19.5q71 0 106 -44.5t35 -128.5v-263h-110v249q0 48 -17 70.5t-56 22.5q-28 0 -50 -13t-50 -41v-288h-111v426h91zM164 653l106 -85h4l106 85l43 -41l-95 -115h-113l-94 115z" />
<glyph unicode="&#x149;" d="M114 568q25 -34 25 -94q0 -69 -36 -122t-107 -86l-30 59q89 43 94 125q-8 -3 -19 -3q-33 0 -53.5 20t-20.5 53q0 36 22 59t55 23q45 0 70 -34zM513 392q31 -44 31 -126v-266h-111v252q0 47 -13.5 68.5t-44.5 21.5q-23 0 -40.5 -12t-42.5 -40v-290h-111v426h91l8 -59h3 q31 33 62.5 51t71.5 18q65 0 96 -44z" />
<glyph unicode="&#x14a;" d="M272 101q13 -8 31 -8q20 0 33 17t20 59t7 118q0 101 -23.5 146t-68.5 45q-25 0 -52 -19t-47 -51v-408h-111v564h108v-58q57 68 130 68q82 0 130.5 -69t48.5 -218q0 -155 -38.5 -226t-124.5 -71q-18 0 -37.5 3.5t-31.5 10.5z" />
<glyph unicode="&#x14b;" d="M251 -148l20 82q17 -7 35 -7q25 0 35 18t10 57v247q0 48 -17 70.5t-56 22.5q-28 0 -50 -13t-50 -41v-288h-111v426h91l8 -62h3q33 33 69.5 52.5t81.5 19.5q71 0 106 -44.5t35 -128.5v-258q0 -75 -33 -120t-105 -45q-42 0 -72 12z" />
<glyph unicode="&#x14c;" d="M64 441q28 65 78 99t117 34t117 -34t78 -99t28 -157q0 -93 -28 -159.5t-78 -100.5t-117 -34t-117 34t-78 100.5t-28 159.5q0 92 28 157zM339.5 427.5q-29.5 50.5 -80.5 50.5q-50 0 -80 -51t-30 -143q0 -95 29.5 -146.5t80.5 -51.5t80.5 51.5t29.5 146.5q0 93 -29.5 143.5 zM386 698v-72h-253v72h253z" />
<glyph unicode="&#x14d;" d="M73.5 331q29.5 51 79 78t106.5 27t106 -27t79 -78t30 -119t-30 -118.5t-79 -77t-106 -26.5t-106.5 26.5t-79 77t-29.5 118.5t29.5 119zM333 310q-27 36 -74 36q-48 0 -75 -36t-27 -97.5t27 -97.5t75 -36t74.5 36t26.5 97.5t-27 97.5zM382 585v-72h-247v72h247z" />
<glyph unicode="&#x14e;" d="M64 441q28 65 78 99t117 34t117 -34t78 -99t28 -157q0 -93 -28 -159.5t-78 -100.5t-117 -34t-117 34t-78 100.5t-28 159.5q0 92 28 157zM339.5 427.5q-29.5 50.5 -80.5 50.5q-50 0 -80 -51t-30 -143q0 -95 29.5 -146.5t80.5 -51.5t80.5 51.5t29.5 146.5q0 93 -29.5 143.5 zM184 730q5 -28 25 -44.5t50 -16.5t49.5 16.5t25.5 44.5l62 -11q-6 -54 -41 -84.5t-96 -30.5t-95.5 30.5t-40.5 84.5z" />
<glyph unicode="&#x14f;" d="M73.5 331q29.5 51 79 78t106.5 27t106 -27t79 -78t30 -119t-30 -118.5t-79 -77t-106 -26.5t-106.5 26.5t-79 77t-29.5 118.5t29.5 119zM333 310q-27 36 -74 36q-48 0 -75 -36t-27 -97.5t27 -97.5t75 -36t74.5 36t26.5 97.5t-27 97.5zM181 638q4 -32 23.5 -53.5 t54.5 -21.5q34 0 53.5 21t24.5 54l65 -10q-3 -60 -38.5 -97.5t-104.5 -37.5t-105 38t-38 97z" />
<glyph unicode="&#x150;" d="M64 441q28 65 78 99t117 34t117 -34t78 -99t28 -157q0 -93 -28 -159.5t-78 -100.5t-117 -34t-117 34t-78 100.5t-28 159.5q0 92 28 157zM339.5 427.5q-29.5 50.5 -80.5 50.5q-50 0 -80 -51t-30 -143q0 -95 29.5 -146.5t80.5 -51.5t80.5 51.5t29.5 146.5q0 93 -29.5 143.5 zM229 764l72 -40l-100 -123l-56 27zM384 764l72 -40l-101 -123l-55 27z" />
<glyph unicode="&#x151;" d="M73.5 331q29.5 51 79 78t106.5 27t106 -27t79 -78t30 -119t-30 -118.5t-79 -77t-106 -26.5t-106.5 26.5t-79 77t-29.5 118.5t29.5 119zM333 310q-27 36 -74 36q-48 0 -75 -36t-27 -97.5t27 -97.5t75 -36t74.5 36t26.5 97.5t-27 97.5zM229 669l74 -34l-91 -147l-59 26z M375 669l75 -34l-90 -147l-60 26z" />
<glyph unicode="&#x152;" d="M49.5 439.5q29.5 62.5 82.5 93.5t124 31h247v-93h-146v-133h111v-93h-111v-152h155v-93h-262q-69 0 -120.5 32t-80.5 96t-29 156.5t29.5 155zM258 474h-16q-53 0 -80.5 -44.5t-27.5 -145t27.5 -147.5t80.5 -47h16v384z" />
<glyph unicode="&#x153;" d="M508 182h-203q6 -52 30 -78.5t59 -26.5q33 0 67 24l39 -72q-23 -19 -53 -29t-57 -10q-37 0 -68.5 20t-48.5 62q-33 -82 -109 -82q-43 0 -78.5 26.5t-55.5 77t-20 119t20.5 119.5t56 77.5t79.5 26.5q36 0 63 -21t44 -64q16 42 45.5 63.5t63.5 21.5q41 0 70.5 -27t44.5 -73 t15 -102q0 -28 -4 -52zM328 325.5q-18 -25.5 -22 -74.5h120q-2 52 -15.5 76t-39.5 24q-25 0 -43 -25.5zM215 115.5q16 36.5 16 97t-16 97t-43 36.5q-30 0 -46 -35.5t-16 -98.5q0 -62 16 -97.5t46 -35.5q27 0 43 36.5z" />
<glyph unicode="&#x154;" d="M371 0l-115 213h-78v-213h-110v564h192q97 0 154.5 -40t57.5 -131q0 -61 -28.5 -101.5t-79.5 -60.5l132 -231h-125zM178 302h72q55 0 84 23t29 68q0 44 -28 63t-85 19h-72v-173zM322 764l59 -71l-150 -102l-49 56z" />
<glyph unicode="&#x155;" d="M198 426l9 -96h3q31 52 77.5 79t100.5 27q25 0 43.5 -4t38.5 -13l-23 -93q-21 7 -37 9.5t-39 2.5q-97 0 -153 -109v-229h-111v426h91zM366 694l74 -74l-149 -134l-55 54z" />
<glyph unicode="&#x156;" d="M371 0l-115 213h-78v-213h-110v564h192q97 0 154.5 -40t57.5 -131q0 -61 -28.5 -101.5t-79.5 -60.5l132 -231h-125zM178 302h72q55 0 84 23t29 68q0 44 -28 63t-85 19h-72v-173zM253 -146q20 8 20 25q0 14 -13.5 21.5t-42.5 10.5l21 43q65 -7 90.5 -23t25.5 -48 q0 -80 -162 -87l-8 47q49 3 69 11z" />
<glyph unicode="&#x157;" d="M198 426l9 -96h3q31 52 77.5 79t100.5 27q25 0 43.5 -4t38.5 -13l-23 -93q-21 7 -37 9.5t-39 2.5q-97 0 -153 -109v-229h-111v426h91zM146 -146q20 8 20 25q0 14 -14 21.5t-42 10.5l21 43q64 -7 89.5 -23t25.5 -48q0 -80 -161 -87l-9 47q50 3 70 11z" />
<glyph unicode="&#x158;" d="M371 0l-115 213h-78v-213h-110v564h192q97 0 154.5 -40t57.5 -131q0 -61 -28.5 -101.5t-79.5 -60.5l132 -231h-125zM178 302h72q55 0 84 23t29 68q0 44 -28 63t-85 19h-72v-173zM167 733l91 -74h4l91 74l47 -31l-80 -95h-120l-81 95z" />
<glyph unicode="&#x159;" d="M198 426l9 -96h3q31 52 77.5 79t100.5 27q25 0 43.5 -4t38.5 -13l-23 -93q-21 7 -37 9.5t-39 2.5q-97 0 -153 -109v-229h-111v426h91zM192 653l106 -85h4l106 85l43 -41l-95 -115h-113l-94 115z" />
<glyph unicode="&#x15a;" d="M112 148q33 -29 73 -45.5t81 -16.5q45 0 68.5 16.5t23.5 44.5q0 21 -10.5 34.5t-26.5 22t-54 24.5l-75 32q-53 20 -87 57t-34 94q0 46 25.5 83t71.5 58.5t104 21.5q51 0 98.5 -19t83.5 -54l-56 -70q-32 24 -62 35.5t-70 11.5q-37 0 -59.5 -16t-22.5 -44q0 -18 11.5 -31 t29 -21.5t53.5 -22.5l72 -31q58 -22 89.5 -58t31.5 -93q0 -48 -25.5 -86.5t-73.5 -61.5t-113 -23q-58 0 -113.5 21t-98.5 61zM336 764l59 -71l-150 -102l-49 56z" />
<glyph unicode="&#x15b;" d="M98 124q82 -51 175 -51q39 0 59 12.5t20 32.5q0 13 -9 22.5t-33 17.5t-70 18q-85 19 -124 50.5t-39 79.5q0 38 22.5 67.5t65.5 46t102 16.5q50 0 97 -16.5t83 -40.5l-50 -67q-32 20 -68 31t-71 11q-37 0 -54.5 -11.5t-17.5 -30.5q0 -14 10 -22.5t31.5 -15t64.5 -16.5 q66 -15 103 -33t52 -42t15 -59q0 -38 -23.5 -68.5t-69.5 -48t-111 -17.5q-54 0 -109.5 18.5t-98.5 47.5zM333 694l75 -74l-150 -134l-54 54z" />
<glyph unicode="&#x15c;" d="M112 148q33 -29 73 -45.5t81 -16.5q45 0 68.5 16.5t23.5 44.5q0 21 -10.5 34.5t-26.5 22t-54 24.5l-75 32q-53 20 -87 57t-34 94q0 46 25.5 83t71.5 58.5t104 21.5q51 0 98.5 -19t83.5 -54l-56 -70q-32 24 -62 35.5t-70 11.5q-37 0 -59.5 -16t-22.5 -44q0 -18 11.5 -31 t29 -21.5t53.5 -22.5l72 -31q58 -22 89.5 -58t31.5 -93q0 -48 -25.5 -86.5t-73.5 -61.5t-113 -23q-58 0 -113.5 21t-98.5 61zM214 721h120l80 -96l-47 -30l-91 74h-4l-91 -74l-48 30z" />
<glyph unicode="&#x15d;" d="M98 124q82 -51 175 -51q39 0 59 12.5t20 32.5q0 13 -9 22.5t-33 17.5t-70 18q-85 19 -124 50.5t-39 79.5q0 38 22.5 67.5t65.5 46t102 16.5q50 0 97 -16.5t83 -40.5l-50 -67q-32 20 -68 31t-71 11q-37 0 -54.5 -11.5t-17.5 -30.5q0 -14 10 -22.5t31.5 -15t64.5 -16.5 q66 -15 103 -33t52 -42t15 -59q0 -38 -23.5 -68.5t-69.5 -48t-111 -17.5q-54 0 -109.5 18.5t-98.5 47.5zM211 641h112l95 -115l-43 -40l-106 85h-3l-106 -85l-43 40z" />
<glyph unicode="&#x15e;" d="M451 82.5q-20 -35.5 -59.5 -59.5t-93.5 -31l-18 -45q33 -8 49 -23t16 -41q0 -80 -161 -87l-9 47q50 3 69.5 12t19.5 27q0 15 -14.5 24.5t-51.5 13.5l33 71q-51 5 -98 25.5t-86 55.5l65 76q33 -29 73 -45.5t81 -16.5q45 0 68.5 16.5t23.5 44.5q0 21 -10.5 34.5t-26.5 22 t-54 24.5l-75 32q-53 20 -87 57t-34 94q0 46 25.5 83t71.5 58.5t104 21.5q51 0 98.5 -19t83.5 -54l-56 -70q-32 24 -62 35.5t-70 11.5q-37 0 -59.5 -16t-22.5 -44q0 -18 11.5 -31t29 -21.5t53.5 -22.5l72 -31q58 -22 89.5 -58t31.5 -93q0 -43 -20 -78.5z" />
<glyph unicode="&#x15f;" d="M419.5 36.5q-42.5 -36.5 -119.5 -44.5l-17 -45q32 -8 48 -23t16 -41q0 -80 -161 -87l-9 47q50 3 69.5 12t19.5 27q0 15 -14.5 24.5t-50.5 13.5l32 70q-49 5 -97 22.5t-86 43.5l48 68q82 -51 175 -51q39 0 59 12.5t20 32.5q0 13 -9 22.5t-33 17.5t-70 18q-85 19 -124 50.5 t-39 79.5q0 38 22.5 67.5t65.5 46t102 16.5q50 0 97 -16.5t83 -40.5l-50 -67q-32 20 -68 31t-71 11q-37 0 -54.5 -11.5t-17.5 -30.5q0 -14 10 -22.5t31.5 -15t64.5 -16.5q66 -15 103 -33t52 -42t15 -59q0 -51 -42.5 -87.5z" />
<glyph unicode="&#x160;" d="M112 148q33 -29 73 -45.5t81 -16.5q45 0 68.5 16.5t23.5 44.5q0 21 -10.5 34.5t-26.5 22t-54 24.5l-75 32q-53 20 -87 57t-34 94q0 46 25.5 83t71.5 58.5t104 21.5q51 0 98.5 -19t83.5 -54l-56 -70q-32 24 -62 35.5t-70 11.5q-37 0 -59.5 -16t-22.5 -44q0 -18 11.5 -31 t29 -21.5t53.5 -22.5l72 -31q58 -22 89.5 -58t31.5 -93q0 -48 -25.5 -86.5t-73.5 -61.5t-113 -23q-58 0 -113.5 21t-98.5 61zM181 733l91 -74h4l91 74l47 -31l-80 -95h-120l-81 95z" />
<glyph unicode="&#x161;" d="M98 124q82 -51 175 -51q39 0 59 12.5t20 32.5q0 13 -9 22.5t-33 17.5t-70 18q-85 19 -124 50.5t-39 79.5q0 38 22.5 67.5t65.5 46t102 16.5q50 0 97 -16.5t83 -40.5l-50 -67q-32 20 -68 31t-71 11q-37 0 -54.5 -11.5t-17.5 -30.5q0 -14 10 -22.5t31.5 -15t64.5 -16.5 q66 -15 103 -33t52 -42t15 -59q0 -38 -23.5 -68.5t-69.5 -48t-111 -17.5q-54 0 -109.5 18.5t-98.5 47.5zM160 653l106 -85h3l106 85l43 -41l-95 -115h-112l-94 115z" />
<glyph unicode="&#x162;" d="M293 0l-21 -53q33 -8 49 -23t16 -41q0 -80 -162 -87l-9 47q51 3 70.5 12t19.5 27q0 15 -15 24.5t-51 13.5l37 80h-23v471h-175v93h459v-93h-174v-471h-21z" />
<glyph unicode="&#x163;" d="M390 -76q16 -15 16 -41q0 -80 -162 -87l-9 47q51 3 70.5 12t19.5 27q0 15 -15 24.5t-51 13.5l33 73q-70 11 -102 57.5t-32 122.5v165h-111v83l116 5l15 132h91v-132h188v-88h-188v-164q0 -51 21.5 -74t72.5 -23q45 0 90 16l21 -80q-61 -20 -116 -23l-17 -43q33 -8 49 -23 z" />
<glyph unicode="&#x164;" d="M29 471v93h459v-93h-174v-471h-110v471h-175zM166 733l91 -74h3l92 74l47 -31l-81 -95h-120l-80 95z" />
<glyph unicode="&#x165;" d="M158 338h-111v83l116 5l15 132h91v-132h188v-88h-188v-164q0 -51 21.5 -74t72.5 -23q45 0 90 16l21 -80q-34 -11 -67 -17t-71 -6q-94 0 -136 48t-42 135v165zM429 708l-1 -80l-18 -155h-76l-3 235h98z" />
<glyph unicode="&#x166;" d="M314 471v-163h117v-55h-117v-253h-110v253h-117v51l79 4h38v163h-175v93h459v-93h-174z" />
<glyph unicode="&#x167;" d="M474 13q-34 -11 -67 -17t-71 -6q-94 0 -136 48t-42 135v19h-111v51l111 4v91h-111v83l116 5l15 132h91v-132h188v-88h-188v-91h171v-55h-171v-18q0 -51 21.5 -74t72.5 -23q45 0 90 16z" />
<glyph unicode="&#x168;" d="M59 564h111v-358q0 -120 90 -120q44 0 68 30t24 90v358h106v-348q0 -112 -50.5 -169t-147.5 -57q-98 0 -149.5 57t-51.5 169v348zM177 643.5q-9 -11.5 -12 -35.5l-72 5q3 59 30.5 89t72.5 30q25 0 42.5 -8.5t39.5 -24.5q12 -10 21.5 -15t17.5 -5q29 0 35 46l72 -5 q-3 -58 -30.5 -88t-72.5 -30q-24 0 -42.5 8.5t-38.5 24.5q-15 11 -23 15.5t-17 4.5q-14 0 -23 -11.5z" />
<glyph unicode="&#x169;" d="M57 426h110v-249q0 -49 17 -71t56 -22q27 0 49.5 13t47.5 44v285h110v-426h-90l-8 65h-3q-32 -36 -67.5 -55.5t-80.5 -19.5q-141 0 -141 173v263zM165 502l-70 4q2 62 27.5 94.5t73.5 32.5q21 0 37.5 -9.5t36.5 -26.5q14 -12 23.5 -17.5t18.5 -5.5q28 0 32 53l70 -5 q-2 -62 -27.5 -94t-73.5 -32q-21 0 -37.5 9t-37.5 27q-15 13 -23.5 18.5t-16.5 5.5q-29 0 -33 -54z" />
<glyph unicode="&#x16a;" d="M59 564h111v-358q0 -120 90 -120q44 0 68 30t24 90v358h106v-348q0 -112 -50.5 -169t-147.5 -57q-98 0 -149.5 57t-51.5 169v348zM386 698v-72h-253v72h253z" />
<glyph unicode="&#x16b;" d="M57 426h110v-249q0 -49 17 -71t56 -22q27 0 49.5 13t47.5 44v285h110v-426h-90l-8 65h-3q-32 -36 -67.5 -55.5t-80.5 -19.5q-141 0 -141 173v263zM377 585v-72h-247v72h247z" />
<glyph unicode="&#x16c;" d="M59 564h111v-358q0 -120 90 -120q44 0 68 30t24 90v358h106v-348q0 -112 -50.5 -169t-147.5 -57q-98 0 -149.5 57t-51.5 169v348zM184 730q5 -28 25 -44.5t50 -16.5t49.5 16.5t25.5 44.5l62 -11q-6 -54 -41 -84.5t-96 -30.5t-95.5 30.5t-40.5 84.5z" />
<glyph unicode="&#x16d;" d="M57 426h110v-249q0 -49 17 -71t56 -22q27 0 49.5 13t47.5 44v285h110v-426h-90l-8 65h-3q-32 -36 -67.5 -55.5t-80.5 -19.5q-141 0 -141 173v263zM176 638q5 -32 24.5 -53.5t54.5 -21.5q34 0 53.5 21t24.5 54l64 -10q-3 -60 -38.5 -97.5t-104 -37.5t-104.5 38t-38 97z " />
<glyph unicode="&#x16e;" d="M59 564h111v-358q0 -120 90 -120q44 0 68 30t24 90v358h106v-348q0 -112 -50.5 -169t-147.5 -57q-98 0 -149.5 57t-51.5 169v348zM191 745q26 23 68 23q41 0 67.5 -23t26.5 -60.5t-26.5 -60t-67.5 -22.5q-42 0 -68 22.5t-26 60t26 60.5zM286 714q-11 11 -27 11 q-17 0 -28 -11t-11 -29.5t11 -29t28 -10.5q16 0 27 10.5t11 29t-11 29.5z" />
<glyph unicode="&#x16f;" d="M57 426h110v-249q0 -49 17 -71t56 -22q27 0 49.5 13t47.5 44v285h110v-426h-90l-8 65h-3q-32 -36 -67.5 -55.5t-80.5 -19.5q-141 0 -141 173v263zM175 640.5q28 24.5 80 24.5q50 0 78.5 -24.5t28.5 -62.5t-28.5 -62.5t-78.5 -24.5q-52 0 -80 24t-28 62.5t28 63z M283.5 609q-11.5 13 -28.5 13q-18 0 -30 -12.5t-12 -31.5t12 -31.5t30 -12.5q17 0 28.5 12.5t11.5 31.5q0 18 -11.5 31z" />
<glyph unicode="&#x170;" d="M59 564h111v-358q0 -120 90 -120q44 0 68 30t24 90v358h106v-348q0 -112 -50.5 -169t-147.5 -57q-98 0 -149.5 57t-51.5 169v348zM229 764l72 -40l-100 -123l-56 27zM384 764l72 -40l-101 -123l-55 27z" />
<glyph unicode="&#x171;" d="M57 426h110v-249q0 -49 17 -71t56 -22q27 0 49.5 13t47.5 44v285h110v-426h-90l-8 65h-3q-32 -36 -67.5 -55.5t-80.5 -19.5q-141 0 -141 173v263zM224 669l75 -34l-91 -147l-59 26zM371 669l74 -34l-90 -147l-59 26z" />
<glyph unicode="&#x172;" d="M236 -10q-86 7 -131.5 64.5t-45.5 161.5v348h111v-358q0 -120 90 -120q44 0 68 30t24 90v358h106v-348q0 -84 -27.5 -135t-84.5 -77q-48 -21 -66.5 -43t-18.5 -47q0 -18 12 -27.5t30 -9.5q17 0 35 16l28 -57q-17 -14 -41.5 -22.5t-47.5 -8.5q-43 0 -70 21.5t-27 59.5 q0 55 56 104z" />
<glyph unicode="&#x173;" d="M358 -2l-9 67h-3q-32 -36 -67.5 -55.5t-80.5 -19.5q-141 0 -141 173v263h110v-249q0 -49 17 -71t56 -22q27 0 49.5 13t47.5 44v285h110v-428q-46 -16 -68 -38t-22 -47q0 -20 14 -31t33 -11q12 0 22.5 4t18.5 10l26 -49q-17 -15 -42.5 -23t-50.5 -8q-42 0 -69.5 21.5 t-27.5 61.5q0 64 77 110z" />
<glyph unicode="&#x174;" d="M118 564l26 -317l3 -70q1 -24 2 -71h4q8 43 18 80l13 61l45 173h69l45 -173q4 -24 16 -76q10 -39 15 -65h3q2 52 6 141l25 317h105l-73 -564h-118l-44 195q-12 51 -18 106h-2q-7 -57 -18 -106l-42 -195h-114l-79 564h113zM198 721h120l81 -96l-47 -30l-92 74h-3l-91 -74 l-48 30z" />
<glyph unicode="&#x175;" d="M112 426l35 -211l17 -125h2l3 18q9 62 19 107l33 163h81l35 -163q6 -31 17 -91l6 -34h3q4 28 10 83q2 16 5 42l32 211h104l-74 -426h-129l-31 164q-7 40 -20 124h-3l-5 -33q-5 -46 -12 -92l-31 -163h-127l-78 426h108zM202 641h112l95 -115l-43 -40l-106 85h-3l-106 -85 l-43 40z" />
<glyph unicode="&#x176;" d="M19 564h119l65 -146l55 -129h3l28 64l29 66l65 145h114l-183 -370v-194h-110v194zM198 721h120l81 -96l-47 -30l-92 74h-3l-91 -74l-48 30z" />
<glyph unicode="&#x177;" d="M78 -78q18 -6 35 -6q69 0 98 66l9 25l-188 419h109l82 -199q15 -39 45 -126h3q9 33 32 100l9 26l71 199h105l-174 -439q-30 -80 -74.5 -119t-119.5 -39q-34 0 -62 8zM208 641h112l95 -115l-43 -40l-106 85h-3l-106 -85l-43 40z" />
<glyph unicode="&#x178;" d="M19 564h119l65 -146l55 -129h3l28 64l29 66l65 145h114l-183 -370v-194h-110v194zM127 706q16 16 41 16t41.5 -16t16.5 -41q0 -24 -16.5 -40.5t-41.5 -16.5q-24 0 -40.5 16.5t-16.5 40.5q0 25 16 41zM308 706q16 16 41 16t41.5 -16t16.5 -41q0 -24 -16.5 -40.5 t-41.5 -16.5q-24 0 -40.5 16.5t-16.5 40.5q0 25 16 41z" />
<glyph unicode="&#x179;" d="M329 471h-253v93h390v-67l-279 -404h283v-93h-419v67zM337 764l59 -71l-150 -102l-49 56z" />
<glyph unicode="&#x17a;" d="M303 338h-214v88h368v-59l-242 -280h249v-87h-403v59zM347 694l75 -74l-150 -134l-54 54z" />
<glyph unicode="&#x17b;" d="M329 471h-253v93h390v-67l-279 -404h283v-93h-419v67zM225.5 720.5q19.5 18.5 50 18.5t50.5 -18.5t20 -47t-20 -47t-50.5 -18.5t-50 18.5t-19.5 47t19.5 47z" />
<glyph unicode="&#x17c;" d="M303 338h-214v88h368v-59l-242 -280h249v-87h-403v59zM227.5 622q21.5 20 54.5 20q32 0 53.5 -20t21.5 -52t-21 -51.5t-54 -19.5t-54.5 19.5t-21.5 51.5t21.5 52z" />
<glyph unicode="&#x17d;" d="M329 471h-253v93h390v-67l-279 -404h283v-93h-419v67zM182 733l91 -74h4l91 74l47 -31l-81 -95h-119l-81 95z" />
<glyph unicode="&#x17e;" d="M303 338h-214v88h368v-59l-242 -280h249v-87h-403v59zM174 653l106 -85h3l106 85l43 -41l-95 -115h-112l-94 115z" />
<glyph unicode="&#x17f;" d="M503 594l-22 -81q-44 18 -92 18q-45 0 -66.5 -21.5t-21.5 -64.5v-445h-109v338h-116v83l116 5v18q0 78 46 126t138 48q61 0 127 -24z" />
<glyph unicode="&#x180;" d="M393 393.5q39 -25.5 60 -72.5t21 -110q0 -67 -26 -117.5t-69 -77t-92 -26.5q-30 0 -62 14.5t-59 42.5h-3l-9 -47h-87v483h-59v51l59 4v70h111l-1 -69h165v-56h-166l-1 -50l-2 -68h3q26 25 59 39.5t65 14.5q54 0 93 -25.5zM333 114q27 33 27 95q0 119 -90 119 q-47 0 -92 -47v-166q20 -18 42.5 -26t42.5 -8q43 0 70 33z" />
<glyph unicode="&#x18a;" d="M431.5 502.5q65.5 -71.5 65.5 -213.5t-61.5 -215.5t-169.5 -73.5h-97v480q-38 -9 -57 -35.5t-19 -63.5q0 -32 12.5 -53t38.5 -36l-40 -71q-47 22 -70.5 60t-23.5 95q0 92 56.5 145t171.5 53q128 0 193.5 -71.5zM395 289q0 99 -30.5 145t-96.5 50v-394h15q112 0 112 199z " />
<glyph unicode="&#x18f;" d="M376 539.5q50 -34.5 77.5 -100.5t27.5 -156t-27.5 -156.5t-77.5 -101.5t-116 -35q-63 0 -112 35t-76 100.5t-27 154.5q0 17 2 35h323q-10 163 -120 163q-56 0 -99 -43l-51 76q64 63 159 63q67 0 117 -34.5zM369 233h-214q6 -78 33 -112.5t72 -34.5q95 0 109 147z" />
<glyph unicode="&#x192;" d="M345.5 463.5q-18.5 -21.5 -23.5 -58.5l-6 -49h106v-82h-116l-20 -175q-11 -87 -48 -135t-118 -48q-53 1 -79 15l16 82q24 -9 48 -9q25 0 40.5 11.5t24 38.5t15.5 76l16 144h-79v77l63 5h25l5 40q9 63 28.5 101.5t55 57.5t90.5 19q20 0 44.5 -4.5t37.5 -12.5l-22 -82 q-28 10 -52 10q-33 0 -51.5 -21.5z" />
<glyph unicode="&#x193;" d="M520 690l-20 -81q-3 1 -10.5 4t-15.5 3q-20 0 -32 -12t-12 -32q0 -19 7 -33.5t23 -35.5v0l-62 -69q-21 21 -44 32.5t-57 11.5q-41 0 -74 -23.5t-51 -68t-18 -103.5q0 -94 37.5 -145.5t108.5 -51.5q21 0 39 5.5t29 15.5v113h-90v90h190v-253q-31 -29 -77 -48t-97 -19 q-73 0 -130 33.5t-90.5 99t-33.5 156.5t33.5 158t91.5 102t132 35q23 0 43 -4q-2 13 -2 25q0 46 31.5 76.5t83.5 30.5q38 0 67 -12z" />
<glyph unicode="&#x1a0;" d="M409 512q36 -38 54.5 -95.5t18.5 -132.5q0 -93 -28 -159.5t-78 -100.5t-117 -34t-117 34t-78 100.5t-28 159.5q0 92 28 157t78 99t117 34q54 0 98 -23q29 8 41.5 25.5t12.5 47.5q0 28 -12 55l83 33q10 -15 16.5 -36.5t6.5 -43.5q0 -93 -96 -120zM339.5 137.5 q29.5 51.5 29.5 146.5q0 93 -29.5 143.5t-80.5 50.5q-50 0 -80 -51t-30 -143q0 -95 29.5 -146.5t80.5 -51.5t80.5 51.5z" />
<glyph unicode="&#x1a1;" d="M455.5 309q18.5 -43 18.5 -97q0 -68 -30 -118.5t-79 -77t-106 -26.5t-106.5 26.5t-79 77t-29.5 118.5t29.5 119t79 78t106.5 27q47 0 88 -18q30 8 46.5 28.5t16.5 56.5q0 16 -3.5 30.5t-9.5 23.5l82 37q10 -16 17 -38t7 -45q0 -49 -26.5 -81.5t-71.5 -48.5 q32 -29 50.5 -72zM333.5 115q26.5 36 26.5 97.5t-27 97.5t-74 36q-48 0 -75 -36t-27 -97.5t27 -97.5t75 -36t74.5 36z" />
<glyph unicode="&#x1af;" d="M555 680.5q7 -21.5 7 -43.5q0 -95 -104 -115v-306q0 -112 -50.5 -169t-147.5 -57q-98 0 -149.5 57t-51.5 169v348h111v-358q0 -120 90 -120q44 0 68 30t24 90v358h50q32 2 49 15.5t17 50.5q0 26 -13 54l83 34q10 -16 17 -37.5z" />
<glyph unicode="&#x1b0;" d="M508 438.5q-23 -29.5 -61 -44.5v-394h-90l-8 65h-3q-32 -36 -67.5 -55.5t-80.5 -19.5q-141 0 -141 173v263h110v-249q0 -49 17 -71t56 -22q27 0 49.5 13t47.5 44v285h25q34 2 55 19.5t21 60.5q0 16 -3.5 30.5t-9.5 23.5l83 36q11 -15 17 -37t6 -45q0 -46 -23 -75.5z" />
<glyph unicode="&#x1c2;" d="M314 286v-108h142v-55h-142v-287h-110v287h-141v50l141 5v108h-141v50l141 4v268h110v-268h142v-54h-142z" />
<glyph unicode="&#x1cd;" d="M347 145h-181l-39 -145h-114l180 564h131l181 -564h-118zM323 232l-17 62l-9 32q-26 101 -39 153h-3q-27 -111 -48 -185l-17 -62h133zM166 733l91 -74h3l92 74l47 -31l-81 -95h-120l-80 95z" />
<glyph unicode="&#x1ce;" d="M87 196q29 32 92.5 51t166.5 25q-3 35 -27 55t-70 20q-31 0 -64 -11t-71 -32l-40 73q99 59 196 59q90 0 138.5 -48t48.5 -140v-248h-91l-8 51h-3q-82 -61 -156 -61q-41 0 -73.5 16t-50 45t-17.5 65q0 48 29 80zM346 205q-101 -7 -141.5 -27t-40.5 -54q0 -23 18.5 -36 t49.5 -13q30 0 57.5 12.5t56.5 35.5v82zM168 653l106 -85h4l105 85l43 -41l-94 -115h-113l-94 115z" />
<glyph unicode="&#x1cf;" d="M204 93v378h-134v93h378v-93h-134v-378h134v-93h-378v93h134zM166 733l91 -74h3l92 74l47 -31l-81 -95h-120l-80 95z" />
<glyph unicode="&#x1d0;" d="M71 338v88h289v-426h-110v338h-179zM190 653l106 -85h4l106 85l42 -41l-94 -115h-113l-94 115z" />
<glyph unicode="&#x1d1;" d="M64 441q28 65 78 99t117 34t117 -34t78 -99t28 -157q0 -93 -28 -159.5t-78 -100.5t-117 -34t-117 34t-78 100.5t-28 159.5q0 92 28 157zM339.5 427.5q-29.5 50.5 -80.5 50.5q-50 0 -80 -51t-30 -143q0 -95 29.5 -146.5t80.5 -51.5t80.5 51.5t29.5 146.5q0 93 -29.5 143.5 zM166 733l91 -74h3l92 74l47 -31l-81 -95h-120l-80 95z" />
<glyph unicode="&#x1d2;" d="M73.5 331q29.5 51 79 78t106.5 27t106 -27t79 -78t30 -119t-30 -118.5t-79 -77t-106 -26.5t-106.5 26.5t-79 77t-29.5 118.5t29.5 119zM333 310q-27 36 -74 36q-48 0 -75 -36t-27 -97.5t27 -97.5t75 -36t74.5 36t26.5 97.5t-27 97.5zM151 653l106 -85h3l106 85l43 -41 l-95 -115h-112l-94 115z" />
<glyph unicode="&#x1d3;" d="M59 564h111v-358q0 -120 90 -120q44 0 68 30t24 90v358h106v-348q0 -112 -50.5 -169t-147.5 -57q-98 0 -149.5 57t-51.5 169v348zM166 733l91 -74h3l92 74l47 -31l-81 -95h-120l-80 95z" />
<glyph unicode="&#x1d4;" d="M57 426h110v-249q0 -49 17 -71t56 -22q27 0 49.5 13t47.5 44v285h110v-426h-90l-8 65h-3q-32 -36 -67.5 -55.5t-80.5 -19.5q-141 0 -141 173v263zM147 653l105 -85h4l106 85l43 -41l-95 -115h-112l-94 115z" />
<glyph unicode="&#x1d5;" d="M59 564h111v-358q0 -120 90 -120q44 0 68 30t24 90v358h106v-348q0 -112 -50.5 -169t-147.5 -57q-98 0 -149.5 57t-51.5 169v348zM386 803v-54h-253v54h253zM130.5 692q13.5 14 35 14t35.5 -14t14 -36q0 -20 -14 -34t-35.5 -14t-35 14t-13.5 34q0 22 13.5 36zM317.5 692 q14.5 14 35.5 14t35 -14t14 -36q0 -20 -14 -34t-35 -14t-35.5 14t-14.5 34q0 22 14.5 36z" />
<glyph unicode="&#x1d6;" d="M57 426h110v-249q0 -49 17 -71t56 -22q27 0 49.5 13t47.5 44v285h110v-426h-90l-8 65h-3q-32 -36 -67.5 -55.5t-80.5 -19.5q-141 0 -141 173v263zM378 704v-53h-248v53h248zM128.5 581q13.5 14 35 14t35 -14t13.5 -35t-13.5 -35t-35 -14t-35 14t-13.5 35t13.5 35z M310 580.5q14 14.5 36 14.5q20 0 34 -14.5t14 -34.5q0 -21 -14 -35t-34 -14q-22 0 -36 14t-14 35q0 20 14 34.5z" />
<glyph unicode="&#x1d7;" d="M59 564h111v-358q0 -120 90 -120q44 0 68 30t24 90v358h106v-348q0 -112 -50.5 -169t-147.5 -57q-98 0 -149.5 57t-51.5 169v348zM297 860l70 -44l-103 -105l-48 30zM130.5 692q13.5 14 35 14t35.5 -14t14 -36q0 -20 -14 -34t-35.5 -14t-35 14t-13.5 34q0 22 13.5 36z M317.5 692q14.5 14 35.5 14t35 -14t14 -36q0 -20 -14 -34t-35 -14t-35.5 14t-14.5 34q0 22 14.5 36z" />
<glyph unicode="&#x1d8;" d="M57 426h110v-249q0 -49 17 -71t56 -22q27 0 49.5 13t47.5 44v285h110v-426h-90l-8 65h-3q-32 -36 -67.5 -55.5t-80.5 -19.5q-141 0 -141 173v263zM282 751l61 -40l-86 -98l-43 28zM128.5 581q13.5 14 35 14t35 -14t13.5 -35t-13.5 -35t-35 -14t-35 14t-13.5 35t13.5 35z M310 580.5q14 14.5 36 14.5q20 0 34 -14.5t14 -34.5q0 -21 -14 -35t-34 -14q-22 0 -36 14t-14 35q0 20 14 34.5z" />
<glyph unicode="&#x1d9;" d="M59 564h111v-358q0 -120 90 -120q44 0 68 30t24 90v358h106v-348q0 -112 -50.5 -169t-147.5 -57q-98 0 -149.5 57t-51.5 169v348zM174 850l83 -63h3l83 63l45 -31l-82 -86h-95l-81 86zM130.5 692q13.5 14 35 14t35.5 -14t14 -36q0 -20 -14 -34t-35.5 -14t-35 14t-13.5 34 q0 22 13.5 36zM317.5 692q14.5 14 35.5 14t35 -14t14 -36q0 -20 -14 -34t-35 -14t-35.5 14t-14.5 34q0 22 14.5 36z" />
<glyph unicode="&#x1da;" d="M57 426h110v-249q0 -49 17 -71t56 -22q27 0 49.5 13t47.5 44v285h110v-426h-90l-8 65h-3q-32 -36 -67.5 -55.5t-80.5 -19.5q-141 0 -141 173v263zM167 745l85 -58h4l85 58l36 -34l-79 -79h-88l-79 79zM128.5 581q13.5 14 35 14t35 -14t13.5 -35t-13.5 -35t-35 -14t-35 14 t-13.5 35t13.5 35zM310 580.5q14 14.5 36 14.5q20 0 34 -14.5t14 -34.5q0 -21 -14 -35t-34 -14q-22 0 -36 14t-14 35q0 20 14 34.5z" />
<glyph unicode="&#x1db;" d="M59 564h111v-358q0 -120 90 -120q44 0 68 30t24 90v358h106v-348q0 -112 -50.5 -169t-147.5 -57q-98 0 -149.5 57t-51.5 169v348zM220 860l82 -119l-48 -30l-103 105zM130.5 692q13.5 14 35 14t35.5 -14t14 -36q0 -20 -14 -34t-35.5 -14t-35 14t-13.5 34q0 22 13.5 36z M317.5 692q14.5 14 35.5 14t35 -14t14 -36q0 -20 -14 -34t-35 -14t-35.5 14t-14.5 34q0 22 14.5 36z" />
<glyph unicode="&#x1dc;" d="M57 426h110v-249q0 -49 17 -71t56 -22q27 0 49.5 13t47.5 44v285h110v-426h-90l-8 65h-3q-32 -36 -67.5 -55.5t-80.5 -19.5q-141 0 -141 173v263zM227 751l68 -110l-43 -28l-85 98zM128.5 581q13.5 14 35 14t35 -14t13.5 -35t-13.5 -35t-35 -14t-35 14t-13.5 35t13.5 35z M310 580.5q14 14.5 36 14.5q20 0 34 -14.5t14 -34.5q0 -21 -14 -35t-34 -14q-22 0 -36 14t-14 35q0 20 14 34.5z" />
<glyph unicode="&#x1e2;" d="M512 93v-93h-243v139h-112l-45 -139h-115l201 564h307v-93h-137v-131h109v-94h-109v-153h144zM269 226v254h-2l-27 -85q-12 -36 -26 -83l-28 -86h83zM471 698v-72h-252v72h252z" />
<glyph unicode="&#x1e3;" d="M508 182h-208q6 -50 30 -77.5t60 -27.5q38 0 72 24l38 -72q-24 -19 -54.5 -29t-59.5 -10q-42 0 -75 17t-56 49q-61 -66 -127 -66q-50 0 -81.5 33t-31.5 87q0 66 48.5 105t151.5 53q-2 44 -17.5 61.5t-42.5 17.5q-40 0 -89 -31l-39 73q76 47 137 47q34 0 59.5 -16.5 t43.5 -53.5q42 70 113 70q43 0 72.5 -27.5t45 -73.5t15.5 -101q0 -25 -5 -52zM325.5 326.5q-19.5 -24.5 -25.5 -75.5h126q-1 52 -15 76t-41 24q-25 0 -44.5 -24.5zM227 112q-12 40 -12 81v8q-55 -8 -78 -28.5t-23 -49.5q0 -23 13 -35.5t34 -12.5q34 0 66 37zM391 585v-72 h-247v72h247z" />
<glyph unicode="&#x1e6;" d="M73.5 437q33.5 67 91.5 102t132 35q93 0 163 -71l-62 -69q-21 21 -44 32.5t-57 11.5q-41 0 -74 -23.5t-51 -68t-18 -103.5q0 -94 37.5 -145.5t108.5 -51.5q21 0 39 5.5t29 15.5v113h-90v90h190v-253q-31 -29 -77 -48t-97 -19q-73 0 -130 33.5t-90.5 99t-33.5 156.5 t33.5 158zM192 733l91 -74h3l91 74l48 -31l-81 -95h-120l-80 95z" />
<glyph unicode="&#x1e7;" d="M67 -25.5q17 22.5 50 39.5v4q-43 24 -43 71q0 21 13.5 42.5t37.5 37.5v4q-25 16 -40 44.5t-15 64.5q0 48 24 83t65 53t89 18q38 0 67 -10h174v-82h-94q11 -13 18 -30t7 -36q0 -69 -48.5 -106t-123.5 -37q-27 0 -63 10q-23 -15 -23 -35t19 -28.5t58 -8.5h84q85 0 127 -26 t42 -80q0 -43 -30.5 -77.5t-87 -54.5t-131.5 -20q-89 0 -141 28t-52 83q0 26 17 48.5zM300.5 339q-21.5 21 -52.5 21q-32 0 -53 -21t-21 -57q0 -37 21 -58t53 -21q31 0 52.5 21.5t21.5 57.5t-21.5 57zM366.5 -22q-19.5 8 -61.5 8h-62q-41 0 -65 7q-37 -23 -37 -51 q0 -26 31 -41.5t86 -15.5q37 0 66.5 8.5t45.5 23t16 31.5q0 22 -19.5 30zM155 653l106 -85h4l106 85l43 -41l-95 -115h-113l-94 115z" />
<glyph unicode="&#x1ea;" d="M238 -10q-66 8 -111.5 48t-68 103.5t-22.5 142.5q0 90 28 155.5t78.5 100t116.5 34.5t116.5 -34.5t78.5 -100t28 -155.5q0 -110 -39.5 -180.5t-113.5 -102.5q-33 -15 -50 -38.5t-17 -48.5q0 -18 12 -27.5t29 -9.5t35 16l28 -57q-17 -14 -41 -22.5t-47 -8.5 q-43 0 -70.5 21.5t-27.5 59.5q0 57 58 104zM339.5 427.5q-29.5 50.5 -80.5 50.5q-50 0 -80 -51t-30 -143q0 -98 29.5 -149t80.5 -51q52 0 81 51t29 149q0 93 -29.5 143.5z" />
<glyph unicode="&#x1eb;" d="M238 -8q-54 5 -98.5 33t-70 76t-25.5 111q0 68 29.5 119t79 78t106.5 27t106.5 -27t79 -78t29.5 -119q0 -80 -38.5 -130.5t-110.5 -82.5q-32 -14 -49.5 -38t-17.5 -48q0 -20 13.5 -31t31.5 -11q26 0 43 14l25 -49q-16 -14 -41.5 -22.5t-52.5 -8.5q-42 0 -68.5 21.5 t-26.5 61.5q0 56 56 104zM333 310q-27 36 -74 36q-48 0 -75 -36t-27 -98q0 -63 27 -99t75 -36t74.5 36t26.5 99q0 62 -27 98z" />
<glyph unicode="&#x1f4;" d="M73.5 437q33.5 67 91.5 102t132 35q93 0 163 -71l-62 -69q-21 21 -44 32.5t-57 11.5q-41 0 -74 -23.5t-51 -68t-18 -103.5q0 -94 37.5 -145.5t108.5 -51.5q21 0 39 5.5t29 15.5v113h-90v90h190v-253q-31 -29 -77 -48t-97 -19q-73 0 -130 33.5t-90.5 99t-33.5 156.5 t33.5 158zM346 764l60 -71l-151 -102l-49 56z" />
<glyph unicode="&#x1f5;" d="M67 -25.5q17 22.5 50 39.5v4q-43 24 -43 71q0 21 13.5 42.5t37.5 37.5v4q-25 16 -40 44.5t-15 64.5q0 48 24 83t65 53t89 18q38 0 67 -10h174v-82h-94q11 -13 18 -30t7 -36q0 -69 -48.5 -106t-123.5 -37q-27 0 -63 10q-23 -15 -23 -35t19 -28.5t58 -8.5h84q85 0 127 -26 t42 -80q0 -43 -30.5 -77.5t-87 -54.5t-131.5 -20q-89 0 -141 28t-52 83q0 26 17 48.5zM300.5 339q-21.5 21 -52.5 21q-32 0 -53 -21t-21 -57q0 -37 21 -58t53 -21q31 0 52.5 21.5t21.5 57.5t-21.5 57zM366.5 -22q-19.5 8 -61.5 8h-62q-41 0 -65 7q-37 -23 -37 -51 q0 -26 31 -41.5t86 -15.5q37 0 66.5 8.5t45.5 23t16 31.5q0 22 -19.5 30zM329 694l74 -74l-149 -134l-55 54z" />
<glyph unicode="&#x1f8;" d="M174 564l138 -303l51 -121h3l-6 59q-3 34 -6 71.5t-3 66.5v227h106v-564h-113l-138 303l-51 121h-3q1 -21 6 -58q3 -34 6 -71.5t3 -66.5v-228h-106v564h113zM206 764l140 -117l-49 -56l-150 102z" />
<glyph unicode="&#x1f9;" d="M158 426l8 -62h3q33 33 69.5 52.5t81.5 19.5q71 0 106 -44.5t35 -128.5v-263h-110v249q0 48 -17 70.5t-56 22.5q-28 0 -50 -13t-50 -41v-288h-111v426h91zM206 694l130 -154l-55 -54l-150 134z" />
<glyph unicode="&#x1fa;" d="M191 624.5q-26 22.5 -26 59.5q0 43 33 67l124 108l46 -63l-71 -34q26 -9 41 -29t15 -49q0 -37 -26.5 -59.5t-67.5 -22.5q-42 0 -68 22.5zM286 655.5q11 10.5 11 29t-11 29.5t-27 11q-17 0 -28 -11t-11 -29.5t11 -29t28 -10.5q16 0 27 10.5zM347 145h-181l-39 -145h-114 l180 564h131l181 -564h-118zM323 232l-17 62l-9 32q-26 101 -39 153h-3q-27 -111 -48 -185l-17 -62h133z" />
<glyph unicode="&#x1fb;" d="M196 515q-28 24 -28 63q0 22 10 40t28 30l128 101l46 -59l-66 -30q33 -8 51 -30t18 -52q0 -38 -28.5 -62.5t-78.5 -24.5q-52 0 -80 24zM304.5 546.5q11.5 12.5 11.5 31.5q0 18 -11.5 31t-28.5 13q-18 0 -29.5 -12.5t-11.5 -31.5t11.5 -31.5t29.5 -12.5q17 0 28.5 12.5z M408.5 388q48.5 -48 48.5 -140v-248h-91l-8 51h-3q-82 -61 -156 -61q-41 0 -73.5 16t-50 45t-17.5 65q0 48 29 80t92.5 51t166.5 25q-3 35 -27 55t-70 20q-31 0 -64 -11t-71 -32l-40 73q99 59 196 59q90 0 138.5 -48zM346 205q-101 -7 -141.5 -27t-40.5 -54q0 -23 18.5 -36 t49.5 -13q30 0 57.5 12.5t56.5 35.5v82z" />
<glyph unicode="&#x1fc;" d="M512 93v-93h-243v139h-112l-45 -139h-115l201 564h307v-93h-137v-131h109v-94h-109v-153h144zM269 226v254h-2l-27 -85q-12 -36 -26 -83l-28 -86h83zM406 764l59 -71l-150 -102l-49 56z" />
<glyph unicode="&#x1fd;" d="M508 182h-208q6 -50 30 -77.5t60 -27.5q38 0 72 24l38 -72q-24 -19 -54.5 -29t-59.5 -10q-42 0 -75 17t-56 49q-61 -66 -127 -66q-50 0 -81.5 33t-31.5 87q0 66 48.5 105t151.5 53q-2 44 -17.5 61.5t-42.5 17.5q-40 0 -89 -31l-39 73q76 47 137 47q34 0 59.5 -16.5 t43.5 -53.5q42 70 113 70q43 0 72.5 -27.5t45 -73.5t15.5 -101q0 -25 -5 -52zM325.5 326.5q-19.5 -24.5 -25.5 -75.5h126q-1 52 -15 76t-41 24q-25 0 -44.5 -24.5zM227 112q-12 40 -12 81v8q-55 -8 -78 -28.5t-23 -49.5q0 -23 13 -35.5t34 -12.5q34 0 66 37zM334 694l74 -74 l-149 -134l-55 54z" />
<glyph unicode="&#x1fe;" d="M437 475q45 -73 45 -191q0 -93 -28 -159.5t-78 -100.5t-117 -34q-77 0 -130 44l-47 -67l-59 39l58 84q-45 74 -45 194q0 92 28 157t78 99t117 34q76 0 130 -43l46 65l59 -39zM158 198l171 246q-29 34 -70 34q-50 0 -80 -51t-30 -143q0 -46 9 -86zM361 367l-172 -246 q29 -35 70 -35q51 0 80.5 51.5t29.5 146.5q0 46 -8 83zM320 764l60 -71l-151 -102l-48 56z" />
<glyph unicode="&#x1ff;" d="M474 212q0 -68 -30 -118.5t-79 -77t-106 -26.5q-67 0 -122 36l-40 -47l-42 33l41 49q-52 60 -52 151q0 68 29.5 119t79 78t106.5 27q67 0 121 -36l40 48l44 -34l-43 -50q53 -61 53 -152zM167 146l153 182q-26 22 -61 22q-48 0 -75 -37.5t-27 -100.5q0 -37 10 -66z M333 113q27 38 27 99q0 37 -10 67l-152 -181q25 -23 61 -23q47 0 74 38zM324 694l75 -74l-150 -134l-54 54z" />
<glyph unicode="&#x218;" d="M112 148q33 -29 73 -45.5t81 -16.5q45 0 68.5 16.5t23.5 44.5q0 21 -10.5 34.5t-26.5 22t-54 24.5l-75 32q-53 20 -87 57t-34 94q0 46 25.5 83t71.5 58.5t104 21.5q51 0 98.5 -19t83.5 -54l-56 -70q-32 24 -62 35.5t-70 11.5q-37 0 -59.5 -16t-22.5 -44q0 -18 11.5 -31 t29 -21.5t53.5 -22.5l72 -31q58 -22 89.5 -58t31.5 -93q0 -48 -25.5 -86.5t-73.5 -61.5t-113 -23q-58 0 -113.5 21t-98.5 61zM241 -146q20 8 20 25q0 14 -13.5 21.5t-42.5 10.5l21 43q65 -7 90.5 -23t25.5 -48q0 -80 -161 -87l-9 47q49 3 69 11z" />
<glyph unicode="&#x219;" d="M98 124q82 -51 175 -51q39 0 59 12.5t20 32.5q0 13 -9 22.5t-33 17.5t-70 18q-85 19 -124 50.5t-39 79.5q0 38 22.5 67.5t65.5 46t102 16.5q50 0 97 -16.5t83 -40.5l-50 -67q-32 20 -68 31t-71 11q-37 0 -54.5 -11.5t-17.5 -30.5q0 -14 10 -22.5t31.5 -15t64.5 -16.5 q66 -15 103 -33t52 -42t15 -59q0 -38 -23.5 -68.5t-69.5 -48t-111 -17.5q-54 0 -109.5 18.5t-98.5 47.5zM243 -146q20 8 20 25q0 14 -14 21.5t-43 10.5l22 43q64 -7 89.5 -23t25.5 -48q0 -80 -161 -87l-9 47q50 3 70 11z" />
<glyph unicode="&#x21a;" d="M29 471v93h459v-93h-174v-471h-110v471h-175zM236 -146q20 8 20 25q0 14 -13.5 21.5t-42.5 10.5l21 43q65 -7 90.5 -23t25.5 -48q0 -80 -162 -87l-9 47q50 3 70 11z" />
<glyph unicode="&#x21b;" d="M158 338h-111v83l116 5l15 132h91v-132h188v-88h-188v-164q0 -51 21.5 -74t72.5 -23q45 0 90 16l21 -80q-34 -11 -67 -17t-71 -6q-94 0 -136 48t-42 135v165zM298 -146q20 8 20 25q0 14 -13.5 21.5t-42.5 10.5l21 43q65 -7 90.5 -23t25.5 -48q0 -80 -161 -87l-9 47 q49 3 69 11z" />
<glyph unicode="&#x237;" d="M73 -66q45 -21 89 -21q50 0 69 23t19 74v328h-179v88h289v-411q0 -190 -192 -190q-68 0 -128 29z" />
<glyph unicode="&#x243;" d="M481 172q0 -85 -58.5 -128.5t-156.5 -43.5h-188v152h-65v50l65 4v358h173q201 0 201 -136q0 -40 -24.5 -71t-71.5 -43v-3q125 -23 125 -139zM188 338h55q53 0 78 19.5t25 56.5t-24.5 53.5t-77.5 16.5h-56v-146zM371 180q0 47 -28.5 69t-87.5 22h-67v-65h101v-54h-101v-72 h67q116 0 116 100z" />
<glyph unicode="&#x250;" d="M68 426h90l8 -52h3q36 28 76 45t80 17q41 0 73.5 -16.5t50.5 -45t18 -65.5q0 -71 -67.5 -108.5t-221.5 -47.5q3 -35 27 -55t70 -20q31 0 64 11.5t72 31.5l40 -73q-101 -58 -197 -58q-90 0 -138 47.5t-48 139.5v249zM341 338q-19 12 -50 12q-53 0 -113 -47v-82 q101 6 141.5 26t40.5 54q0 25 -19 37z" />
<glyph unicode="&#x251;" d="M69.5 330.5q25.5 50.5 68.5 78t93 27.5q67 0 120 -55h3l9 45h87v-426h-90l-8 47h-3q-26 -25 -59 -41t-66 -16q-53 0 -94 26.5t-63.5 77t-22.5 118.5t25.5 118.5zM340 311q-38 35 -84 35q-27 0 -49.5 -16t-36 -45.5t-13.5 -70.5q0 -66 24.5 -99.5t70.5 -33.5q49 0 88 46 v184z" />
<glyph unicode="&#x252;" d="M163 47l-9 -47h-87v426h91l8 -48h3q25 26 60 42t72 16q53 0 92 -26.5t60 -75.5t21 -113q0 -72 -26 -124t-69 -79.5t-93 -27.5q-30 0 -61.5 14.5t-58.5 42.5h-3zM267 346q-51 0 -89 -48v-183q39 -34 84 -34q42 0 70 34.5t28 97.5q0 133 -93 133z" />
<glyph unicode="&#x253;" d="M163 47l-9 -47h-87v441q0 79 44 128t133 49q46 0 93 -18l-22 -82q-32 13 -56 13q-40 0 -59 -20.5t-22 -62.5l-5 -77h3q27 25 59.5 39t64.5 14q54 0 92.5 -26t59 -73t20.5 -111q0 -69 -25.5 -119.5t-68 -77.5t-91.5 -27q-30 0 -62 14.5t-59 42.5h-3zM270 333 q-49 0 -92 -47v-171q20 -18 42.5 -26t42.5 -8q43 0 70 34t27 97q0 121 -90 121z" />
<glyph unicode="&#x254;" d="M93 124q57 -45 113 -45q62 0 99.5 36.5t37.5 96.5q0 40 -16.5 70.5t-45.5 47t-64 16.5q-59 0 -110 -38l-52 69q29 26 73 42.5t97 16.5q63 0 116 -27t84.5 -78t31.5 -119t-31.5 -118.5t-85.5 -77t-120 -26.5q-48 0 -93 15.5t-80 47.5z" />
<glyph unicode="&#x255;" d="M443.5 192q32.5 -28 32.5 -77q0 -35 -19.5 -63.5t-56.5 -45t-88 -16.5q-59 0 -110 18q-22 -41 -38 -92l-86 37q19 53 49 101q-32 29 -49 69t-17 89q0 68 33 119t88 78t120 27q51 0 91.5 -15.5t68.5 -43.5l-49 -67q-45 41 -104 41q-40 0 -72.5 -17t-50.5 -48.5t-18 -73.5 q0 -46 21 -77q40 41 84 63t83 22q55 0 87.5 -28zM372 86.5q20 11.5 20 28.5q0 31 -45 31q-19 0 -43.5 -16t-49.5 -45q29 -10 61 -10q37 0 57 11.5z" />
<glyph unicode="&#x256;" d="M342 42h-4q-22 -24 -52.5 -38t-62.5 -14q-54 0 -94.5 26.5t-62.5 77t-22 118.5q0 67 25.5 118t68 78.5t89.5 27.5q35 0 61 -12.5t50 -35.5h4l-6 69v151h110v-604q0 -34 9 -49.5t30 -15.5q9 0 17 2.5t10 3.5l20 -82q-27 -11 -63 -11q-63 0 -96 35t-33 92zM336 311 q-38 35 -84 35q-26 0 -47.5 -16t-34.5 -45.5t-13 -70.5q0 -65 24.5 -99t69.5 -34q48 0 85 46v184z" />
<glyph unicode="&#x257;" d="M69.5 330q25.5 51 67 78.5t89.5 27.5q33 0 60 -12.5t51 -35.5h3l-2 69v27q0 61 34 98t104 37q32 0 57 -9l-20 -82q-11 3 -21 3q-25 0 -36 -16t-11 -50v-465h-91l-8 47h-2q-25 -26 -57.5 -41.5t-64.5 -15.5q-54 0 -94.5 26.5t-62 77t-21.5 118.5q0 67 25.5 118zM335 311 q-38 35 -84 35q-26 0 -47.5 -16t-34 -45.5t-12.5 -70.5q0 -66 24.5 -99.5t67.5 -33.5q49 0 86 46v184z" />
<glyph unicode="&#x258;" d="M360.5 409q48.5 -27 77 -78t28.5 -119t-30.5 -118.5t-84 -77t-118.5 -26.5q-44 0 -88 13t-79 36l36 68q30 -16 57.5 -24t58.5 -8q59 0 95 26.5t44 80.5h-304q-5 29 -5 51q0 59 25 105t72 72t110 26q57 0 105.5 -27zM178 326.5q-26 -24.5 -31 -71.5h208q-9 47 -37.5 71.5 t-71 24.5t-68.5 -24.5z" />
<glyph unicode="&#x259;" d="M360 409.5q51 -26.5 80 -77t29 -119.5q0 -68 -29.5 -118.5t-79 -77.5t-108.5 -27q-63 0 -108.5 26.5t-69 73t-23.5 106.5q0 20 5 51h304q-17 104 -130 104q-30 0 -58 -8.5t-57 -24.5l-37 68q35 23 78.5 36.5t87.5 13.5q65 0 116 -26.5zM322.5 99.5q28.5 24.5 36.5 73.5 h-210q5 -48 30.5 -73t69.5 -25q45 0 73.5 24.5z" />
<glyph unicode="&#x25a;" d="M538 218q-16 -11 -29 -16.5t-29 -5.5q-72 0 -92 81l-34 -17q3 -28 3 -54q0 -63 -22 -112.5t-62.5 -76.5t-93.5 -27q-80 0 -123.5 53.5t-48.5 138.5l232 107q-24 63 -84 63q-24 0 -44.5 -7.5t-43.5 -22.5l-37 71q64 43 135 43q59 0 101.5 -26.5t66.5 -76.5l63 29l52 -20 q2 -47 11 -64.5t29 -17.5q12 0 26 12zM253 214l-153 -71q10 -38 29.5 -54t48.5 -16q34 0 55 28.5t21 78.5q0 24 -1 34z" />
<glyph unicode="&#x25b;" d="M91.5 187.5q25.5 24.5 73.5 35.5v3q-37 13 -58 38t-21 53q0 60 54 89.5t146 29.5q47 0 92 -13.5t82 -37.5l-40 -70q-58 36 -128 36q-98 0 -98 -49q0 -47 99 -47h54v-73h-67q-54 0 -79.5 -12t-25.5 -38q0 -57 119 -57q77 0 130 44l44 -70q-39 -32 -85 -45.5t-110 -13.5 q-92 0 -149.5 34t-57.5 97q0 42 25.5 66.5z" />
<glyph unicode="&#x25c;" d="M89 123q65 -48 140 -48q121 0 121 56q0 51 -93 51h-94v73h85q42 0 64 12.5t22 35.5q0 24 -24 36t-78 12q-40 0 -71.5 -9.5t-65.5 -32.5l-42 71q81 56 186 56q93 0 147 -30t54 -89q0 -31 -18 -55t-56 -36v-4q46 -11 69.5 -35t23.5 -67q0 -62 -60.5 -96t-158.5 -34 q-55 0 -102 13.5t-94 49.5z" />
<glyph unicode="&#x25e;" d="M75.5 333.5q31.5 50.5 83 76.5t113.5 26q78 0 128 -30t50 -89q0 -32 -19 -56.5t-56 -34.5v-4q45 -8 69.5 -33.5t24.5 -68.5q0 -62 -53 -96t-141 -34q-68 0 -120 24.5t-81.5 74.5t-29.5 122t31.5 122.5zM338.5 169q-21.5 13 -58.5 13h-28v73h26q31 0 49 12.5t18 35.5 t-18 35.5t-50 12.5q-57 0 -90.5 -36t-33.5 -104q0 -71 32 -103.5t93 -32.5q38 0 60 14.5t22 41.5q0 25 -21.5 38z" />
<glyph unicode="&#x25f;" d="M483 171h-123v-156q0 -190 -192 -190q-68 0 -128 29l33 80q45 -21 89 -21q50 0 69 23t19 74v161h-155v50l155 5v112h-179v88h289v-200h123v-55z" />
<glyph unicode="&#x260;" d="M111 -53q29 -17 61.5 -25.5t62.5 -8.5q49 0 74 22.5t27 60.5l4 62h-3q-22 -22 -52 -35.5t-62 -13.5q-53 0 -93 26t-62.5 74.5t-22.5 110.5q0 63 26.5 112.5t69 76.5t89.5 27q32 0 58 -12.5t49 -35.5h3l-1 33q0 59 34 97.5t105 38.5q32 0 56 -9l-20 -82q-9 5 -20 5 q-25 0 -36 -17t-11 -51v-406q0 -81 -56 -125.5t-156 -44.5q-40 0 -83 12t-79 34zM336 311q-38 35 -84 35q-26 0 -47.5 -15.5t-34.5 -43.5t-13 -66q0 -57 25 -90t69 -33q47 0 85 49v164z" />
<glyph unicode="&#x262;" d="M91 331q33 51 87 78t117 27q54 0 91.5 -15t70.5 -43l-51 -67q-29 21 -50.5 30.5t-54.5 9.5q-35 0 -65 -16t-48 -47.5t-18 -76.5q0 -64 34.5 -100t90.5 -36q39 0 67 19v79h-90v74h185v-199q-29 -26 -73 -42t-93 -16q-65 0 -117.5 24.5t-84 74.5t-31.5 122q0 69 33 120z " />
<glyph unicode="&#x263;" d="M333 66l11 -19q25 -43 34.5 -65.5t9.5 -48.5q0 -53 -34 -85.5t-92.5 -32.5t-93 32.5t-34.5 85.5q0 26 10.5 50t36.5 68l8 14l-157 361h112l77 -205q8 -24 20 -52q12 -31 19 -51h3q8 22 21 57q8 21 17 46l78 205h107zM288 -102.5q10 12.5 10 33.5q0 17 -8.5 36.5 t-26.5 50.5h-4q-18 -32 -26 -51.5t-8 -35.5q0 -21 10 -33.5t26 -12.5q17 0 27 12.5z" />
<glyph unicode="&#x264;" d="M184 304q-20 22 -38.5 32t-38.5 10q-25 0 -41 -12l-32 80q14 10 38.5 16t48.5 6q74 0 138 -70q63 70 137 70q24 0 48.5 -6t38.5 -16l-32 -80q-17 12 -40 12q-20 0 -39 -10t-38 -32q94 -84 94 -161q0 -73 -46 -113t-123 -40q-78 0 -123.5 40t-45.5 113q0 78 94 161z M259 254q-66 -57 -66 -107q0 -32 17.5 -50t48.5 -18q30 0 47.5 18t17.5 50q0 51 -65 107z" />
<glyph unicode="&#x265;" d="M346 59q-32 -32 -68.5 -50.5t-80.5 -18.5q-71 0 -106 44t-35 129v263h110v-249q0 -49 17.5 -71t56.5 -22q26 0 48.5 13t51.5 41v288h110v-590h-110v136z" />
<glyph unicode="&#x266;" d="M111 569q44 49 133 49q46 0 93 -18l-22 -82q-32 13 -56 13q-40 0 -59 -20.5t-22 -62.5l-7 -93h3q66 69 146 69q71 0 106 -45t35 -128v-251h-110v237q0 48 -17 70t-56 22q-28 0 -50 -12.5t-50 -40.5v-276h-111v441q0 79 44 128z" />
<glyph unicode="&#x267;" d="M263 -66q17 -7 37 -7q29 0 40 18t11 57v235q0 48 -17 70t-56 22q-28 0 -50 -12.5t-50 -40.5v-276h-111v441q0 79 44 128t133 49q46 0 93 -18l-22 -82q-36 13 -56 13q-40 0 -59 -20.5t-22 -62.5l-7 -93h3q66 69 146 69q71 0 106 -45t35 -128v-246q0 -76 -33.5 -120.5 t-110.5 -44.5q-44 0 -74 12z" />
<glyph unicode="&#x268;" d="M483 171h-123v-171h-110v171h-146v50l146 5v112h-179v88h289v-200h123v-55zM243.5 622q21.5 20 54.5 20t54.5 -20t21.5 -52t-21 -51.5t-54.5 -19.5t-55 19.5t-21.5 51.5t21.5 52z" />
<glyph unicode="&#x26a;" d="M204 87v251h-134v88h378v-88h-134v-251h134v-87h-378v87h134z" />
<glyph unicode="&#x26b;" d="M468 13q-37 -12 -62.5 -17.5t-61.5 -5.5q-75 0 -115.5 44.5t-40.5 124.5v149q-16 6 -28 6q-29 0 -33 -51l-70 12q3 57 26 86.5t66 29.5q21 0 39 -5v134h-130v88h240v-272q16 -5 28 -5q14 0 22 12.5t10 38.5l70 -14q-2 -56 -25 -85.5t-66 -29.5q-21 0 -39 5v-104 q0 -39 20.5 -57t53.5 -18t70 16z" />
<glyph unicode="&#x26c;" d="M468 13q-37 -12 -62.5 -17.5t-61.5 -5.5q-75 0 -115.5 44.5t-40.5 124.5v87h-13q-63 0 -94.5 24.5t-31.5 62.5q0 35 24 57t62 22q31 0 53 -17v125h-130v88h240v-306h116v-56h-116v-92q0 -39 20.5 -57t53.5 -18t70 16zM188 302v15q-2 17 -14.5 29t-34.5 12q-15 0 -22 -6.5 t-7 -18.5q0 -14 12.5 -22.5t41.5 -8.5h24z" />
<glyph unicode="&#x26d;" d="M189 520h-131v88h241v-604q0 -39 20.5 -56.5t52.5 -17.5q31 0 71 15l25 -82q-40 -12 -64.5 -17.5t-59.5 -5.5q-75 0 -115 44.5t-40 125.5v510z" />
<glyph unicode="&#x26e;" d="M438 159.5q36 -22.5 54 -59t18 -80.5q0 -60 -26.5 -104t-70.5 -67.5t-97 -23.5q-105 0 -178 69l51 69q52 -48 114 -48q42 0 69 28t27 75q0 42 -25 66t-68 24q-17 0 -28 -2t-26 -9l-37 54l142 187h-202v-338h-111v608h111v-182h335v-59l-139 -183q51 -2 87 -24.5z" />
<glyph unicode="&#x26f;" d="M397 0l-8 53h-3q-31 -63 -92 -63q-30 0 -49.5 18t-26.5 52q-32 -70 -97 -70q-45 0 -69.5 35.5t-24.5 99.5v301h105v-293q0 -25 7.5 -37t22.5 -12t26.5 11.5t23.5 36.5v294h85v-293q0 -49 32 -49q14 0 25 11.5t23 36.5v294h104v-426h-84z" />
<glyph unicode="&#x270;" d="M384 55h-4q-14 -31 -34.5 -48t-51.5 -17q-30 0 -49.5 18t-26.5 52q-33 -70 -96 -70q-45 0 -70 35.5t-25 99.5v301h105v-293q0 -49 30 -49q15 0 27 11.5t23 36.5v294h85v-293q0 -49 32 -49q14 0 25 11.5t22 36.5v294h104v-590h-104v135z" />
<glyph unicode="&#x271;" d="M326 -68q12 -5 27 -5q19 0 26 14.5t7 46.5v304q0 25 -7.5 37.5t-22.5 12.5t-26.5 -12t-23.5 -37v-293h-85v292q0 50 -32 50q-14 0 -25 -12t-23 -37v-293h-104v426h84l8 -55h3q15 31 36.5 48t55.5 17q30 0 49.5 -18t26.5 -52q32 70 97 70q44 0 69 -36t25 -100v-316 q0 -144 -122 -144q-39 0 -63 11z" />
<glyph unicode="&#x272;" d="M9 -67q14 -6 27 -6q21 0 30 16t9 50v433h90l8 -62h4q33 33 68 52.5t77 19.5q71 0 105.5 -44.5t34.5 -128.5v-263h-111v249q0 51 -16 72t-52 21q-27 0 -48 -12.5t-50 -41.5v-292q0 -156 -133 -156q-35 0 -63 11z" />
<glyph unicode="&#x273;" d="M343 249q0 51 -15.5 72t-52.5 21q-26 0 -47.5 -12.5t-49.5 -41.5v-288h-111v426h91l8 -62h3q34 33 68.5 52.5t76.5 19.5q72 0 106 -44.5t34 -128.5v-270q0 -34 8.5 -50t30.5 -16q12 0 26 6l20 -82q-27 -11 -62 -11q-134 0 -134 156v253z" />
<glyph unicode="&#x274;" d="M172 426l128 -198q9 -13 35 -62q5 -9 9.5 -16t6.5 -12h3l-2 17q0 11 -4 57t-4 78v136h104v-426h-103l-128 198q-18 28 -51 89h-3l3 -34q7 -84 7 -118v-135h-103v426h102z" />
<glyph unicode="&#x275;" d="M366.5 410q49.5 -26 78.5 -76.5t29 -121t-29 -121t-78.5 -76t-107.5 -25.5t-107.5 25.5t-78.5 76t-29 121t29 121t78.5 76.5t107.5 26t107.5 -26zM187.5 328q-27.5 -25 -36.5 -73h216q-9 48 -36.5 73t-71.5 25t-71.5 -25zM334 101.5q29 28.5 35 80.5h-220q6 -52 35 -80.5 t75 -28.5t75 28.5z" />
<glyph unicode="&#x276;" d="M46 334q26 51 69 76.5t92 25.5q23 0 42.5 -2.5t46.5 -7.5h206v-88h-145v-83h117v-73h-117v-95h154v-87h-215q-44 -10 -89 -10q-49 0 -92 24.5t-69 75t-26 122.5q0 71 26 122zM258 340q-21 6 -40 6q-37 0 -60.5 -33.5t-23.5 -100.5q0 -70 23.5 -102.5t60.5 -32.5 q14 0 40 7v256z" />
<glyph unicode="&#x278;" d="M466.5 98q-25.5 -49 -68 -75.5t-94.5 -29.5v-157h-91v157q-51 3 -93.5 30t-67.5 75.5t-25 114.5t25 114t67.5 74.5t93.5 30.5v176h91v-176q52 -3 94.5 -29.5t68 -75t25.5 -114.5t-25.5 -115zM371.5 113.5q24.5 35.5 24.5 99.5q0 63 -24.5 99t-67.5 38v-275 q43 3 67.5 38.5zM146.5 114q24.5 -36 66.5 -39v275q-42 -3 -66.5 -39t-24.5 -98q0 -63 24.5 -99z" />
<glyph unicode="&#x279;" d="M320 0l-9 95h-3q-31 -51 -77.5 -78t-100.5 -27q-25 0 -43.5 4t-38.5 13l23 93q21 -8 37 -10.5t39 -2.5q97 0 153 109v230h111v-426h-91z" />
<glyph unicode="&#x27a;" d="M71 100q24 -7 39 -10t37 -3q45 0 85 26t68 83v412h110v-608h-90l-9 95h-3q-32 -51 -78 -78t-99 -27q-26 0 -44.5 4t-38.5 13z" />
<glyph unicode="&#x27b;" d="M263 81h-3q-25 -44 -60.5 -67.5t-78.5 -23.5q-37 0 -73 17l23 93q16 -7 30 -10t32 -3q33 0 65.5 23t52.5 73v243h110v-428q0 -39 11 -55t38 -16q18 0 41 10l23 -81q-36 -16 -80 -16q-131 0 -131 144v97z" />
<glyph unicode="&#x27d;" d="M107 426h91l9 -96h3q31 52 77.5 79t100.5 27q25 0 43.5 -4t38.5 -13l-23 -93q-21 7 -37 9.5t-39 2.5q-97 0 -153 -109v-205q0 -51 21.5 -74t72.5 -23q45 0 90 17l21 -81q-35 -11 -67.5 -17t-70.5 -6q-94 0 -136 48t-42 136v402z" />
<glyph unicode="&#x27e;" d="M165 377q58 59 170 59q79 0 135 -17l-23 -93q-30 8 -49 11t-48 3q-33 0 -63.5 -15t-49.5 -47t-19 -82v-196h-111v219q0 99 58 158z" />
<glyph unicode="&#x280;" d="M359 0l-101 147h-77v-147h-111v426h214q79 0 126 -32.5t47 -104.5q0 -49 -25.5 -80.5t-65.5 -47.5l116 -161h-123zM181 223h88q38 0 58.5 16.5t20.5 46.5q0 58 -79 58h-88v-121z" />
<glyph unicode="&#x281;" d="M448 426v-426h-214q-79 0 -126 32t-47 105q0 48 25.5 80t65.5 47l-116 162h123l101 -148h77v148h111zM337 203h-88q-38 0 -58.5 -17t-20.5 -47q0 -58 79 -58h88v122z" />
<glyph unicode="&#x282;" d="M395 225q37 -18 52 -42t15 -59q0 -38 -23.5 -68.5t-69.5 -48t-111 -17.5q-52 0 -110 18v-24q0 -29 11 -44t37 -15q12 0 36 5l20 -79q-32 -11 -71 -11q-69 0 -100 41t-31 121v54l48 68q82 -51 175 -51q39 0 59 12.5t20 32.5q0 13 -9 22.5t-33 17.5t-70 18 q-85 19 -124 50.5t-39 79.5q0 38 22.5 67.5t65.5 46t102 16.5q50 0 97 -16.5t83 -40.5l-50 -67q-32 20 -68 31t-71 11q-37 0 -54.5 -11.5t-17.5 -30.5q0 -14 10 -22.5t31.5 -15t64.5 -16.5q66 -15 103 -33z" />
<glyph unicode="&#x283;" d="M73 -69q40 -18 71 -18q34 0 47.5 20t13.5 63v449q0 174 164 174q33 0 57 -6.5t53 -19.5l-29 -79q-19 8 -34 12.5t-30 4.5q-40 0 -55.5 -20t-15.5 -63v-449q0 -174 -155 -174q-36 0 -63.5 7.5t-56.5 20.5z" />
<glyph unicode="&#x284;" d="M330.5 511q-15.5 -20 -15.5 -63v-198h135v-55h-135v-196q0 -174 -155 -174q-36 0 -63.5 7.5t-56.5 20.5l33 78q40 -18 71 -18q34 0 47.5 20t13.5 63v199h-134v50l134 5v195q0 174 164 174q33 0 57 -6.5t53 -19.5l-29 -79q-19 8 -34 12.5t-30 4.5q-40 0 -55.5 -20z" />
<glyph unicode="&#x287;" d="M360 87h111v-83l-116 -4l-15 -132h-91v132h-188v87h188v165q0 51 -21.5 74t-72.5 23q-45 0 -90 -17l-21 80q34 11 67 17.5t71 6.5q94 0 136 -48t42 -136v-165z" />
<glyph unicode="&#x288;" d="M158 338h-111v83l116 5l15 132h91v-132h188v-88h-188v-314q0 -51 21.5 -74t72.5 -23q45 0 90 17l21 -81q-74 -23 -138 -23q-94 0 -136 48t-42 136v314z" />
<glyph unicode="&#x289;" d="M514 230h-78v-230h-90l-9 61h-3q-28 -34 -60.5 -52.5t-73.5 -18.5q-132 0 -132 170v70h-75v50l75 5v141h110v-141h148v141h110v-141h78v-55zM326 230h-148v-56q0 -50 14.5 -70t46.5 -20q26 0 45 12.5t42 41.5v92z" />
<glyph unicode="&#x28a;" d="M66.5 266q19.5 40 49.5 70v2h-80v88h185v-72q-32 -35 -48 -70.5t-16 -84.5q0 -52 26 -86t76 -34q49 0 75 34t26 86q0 50 -15.5 85.5t-47.5 69.5v72h184v-88h-79v-2q29 -30 49 -70t20 -90q0 -48 -25.5 -91t-74 -69t-112.5 -26q-65 0 -113 26t-73.5 69t-25.5 91 q0 50 19.5 90z" />
<glyph unicode="&#x28b;" d="M57 426h110v-231q0 -59 25.5 -87.5t68.5 -28.5q48 0 73.5 43.5t25.5 118.5q0 56 -13.5 82.5t-43.5 26.5q-8 0 -22 -4l-13 83q12 4 25 5.5t34 1.5q67 0 107 -45t40 -134q0 -80 -25 -140.5t-74 -93.5t-119 -33q-92 0 -145.5 51.5t-53.5 150.5v234z" />
<glyph unicode="&#x28c;" d="M375 0l-76 212q-10 31 -30 94l-11 36h-3l-12 -36q-19 -63 -29 -94l-76 -212h-106l163 426h125l166 -426h-111z" />
<glyph unicode="&#x28d;" d="M406 0l-35 211l-17 124h-2l-3 -18q-9 -62 -19 -106l-33 -164h-81l-35 164q-6 30 -17 91l-6 33h-3q-4 -28 -10 -83q-2 -15 -5 -41l-32 -211h-104l74 426h129l31 -164q7 -40 20 -124h3l5 32q5 46 12 93l31 163h127l78 -426h-108z" />
<glyph unicode="&#x28e;" d="M286 578.5q43 39.5 114 39.5q31 0 62 -9l-21 -84q-18 5 -33 5q-65 0 -93 -69l-17 -43l188 -418h-110l-81 198q-15 40 -45 127h-3q-12 -39 -27 -85q-3 -7 -14 -42l-71 -198h-105l182 457q31 82 74 121.5z" />
<glyph unicode="&#x28f;" d="M35 426h117l54 -101q8 -19 24 -53q19 -38 29 -60h3q26 57 54 113l53 101h116l-170 -294v-132h-110v132z" />
<glyph unicode="&#x290;" d="M348 0h-287v59l239 279h-211v88h365v-59l-239 -280h243v-94q0 -34 9 -50t30 -16q14 0 27 6l20 -82q-27 -11 -63 -11q-70 0 -101.5 40t-31.5 103v17z" />
<glyph unicode="&#x291;" d="M482 186q23 -23 23 -68q0 -51 -37.5 -84.5t-110.5 -33.5h-29q-13 -49 -21 -99l-55 11q11 54 20 88h-211v59l228 279h-200v88h339v-59l-227 -280q49 -3 96 -4q49 126 120 126q42 0 65 -23zM429.5 93q15.5 12 15.5 28q0 28 -29 28q-15 0 -31 -17t-31 -51h33q27 0 42.5 12z " />
<glyph unicode="&#x292;" d="M373.5 165.5q40.5 -21.5 63 -58.5t22.5 -83q0 -62 -29.5 -107t-78 -68.5t-107.5 -23.5q-63 0 -110.5 22t-86.5 58l51 70q29 -28 61.5 -44t72.5 -16q51 0 83 29t32 77q0 44 -30.5 69t-84.5 25q-23 0 -34.5 -3t-39.5 -15l-37 55l183 186h-227v88h362v-59l-169 -181 q3 1 10 1q53 0 93.5 -21.5z" />
<glyph unicode="&#x294;" d="M278.5 330.5q32.5 24.5 47 49t14.5 55.5q0 44 -30 68.5t-81 24.5q-38 0 -70 -17.5t-55 -45.5l-55 70q33 37 81 60t110 23q58 0 106 -20.5t76.5 -60.5t28.5 -98q0 -46 -18.5 -81.5t-50.5 -64t-86 -66.5v-227h-110v269q60 37 92.5 61.5z" />
<glyph unicode="&#x295;" d="M133.5 293.5q-32.5 28.5 -51 64t-18.5 81.5q0 58 28.5 98t77 60.5t106.5 20.5q61 0 109 -23t82 -60l-56 -70q-24 28 -55.5 45.5t-68.5 17.5q-52 0 -82 -24.5t-30 -68.5q0 -31 15 -55.5t47 -49t92 -61.5v-269h-109v227q-54 38 -86.5 66.5z" />
<glyph unicode="&#x298;" d="M71 478q27 70 75.5 105t112.5 35t112.5 -35t75.5 -105t27 -172q0 -105 -27 -175.5t-75.5 -105.5t-112.5 -35t-112.5 35t-75.5 105.5t-27 175.5q0 102 27 172zM340.5 474q-31.5 54 -81.5 54t-81 -54t-31 -168q0 -121 31 -174t81 -53t81.5 53.5t31.5 173.5q0 114 -31.5 168 zM217 349.5q18 17.5 42 17.5t41.5 -17.5t17.5 -43.5t-17.5 -43t-41.5 -17t-42 17t-18 43t18 43.5z" />
<glyph unicode="&#x299;" d="M296 426q81 0 128 -26.5t47 -85.5q0 -31 -18 -54.5t-54 -33.5v-3q89 -22 89 -101q0 -61 -50.5 -91.5t-132.5 -30.5h-209v426h200zM366 303.5q0 48.5 -77 48.5h-85v-97h83q79 0 79 48.5zM360.5 89.5q20.5 14.5 20.5 40.5q0 24 -21.5 38t-63.5 14h-92v-107h94 q42 0 62.5 14.5z" />
<glyph unicode="&#x29c;" d="M178 426v-160h161v160h111v-426h-111v170h-161v-170h-111v426h111z" />
<glyph unicode="&#x29d;" d="M358 -203q-18 40 -44 82q-51 -54 -139 -54q-44 0 -77.5 15.5t-50.5 42.5t-17 61q0 49 35.5 77.5t98.5 28.5q45 0 86 -15v303h-179v88h289v-419q0 -19 -4 -41q51 -50 87 -130zM244 -50q-39 26 -81 26q-25 0 -37.5 -8.5t-12.5 -22.5q0 -15 15.5 -25t43.5 -10q54 0 72 40z M243.5 622q21.5 20 54.5 20t54.5 -20t21.5 -52t-21 -51.5t-54.5 -19.5t-55 19.5t-21.5 51.5t21.5 52z" />
<glyph unicode="&#x29e;" d="M445 426v-590h-111v351h-3l-186 -187h-129l182 180l-165 246h112l118 -181l71 71v110h111z" />
<glyph unicode="&#x29f;" d="M221 426v-339h241v-87h-351v426h110z" />
<glyph unicode="&#x2a1;" d="M52 216v50l65 5h84q139 82 139 164q0 44 -28.5 68.5t-77.5 24.5q-71 0 -130 -63l-55 70q35 37 83.5 60t113.5 23q57 0 103.5 -20.5t74 -60.5t27.5 -98q0 -87 -110 -168h119v-55h-164v-216h-110v216h-134z" />
<glyph unicode="&#x2a2;" d="M56 216v50l66 5h53q-109 81 -109 168q0 58 27.5 98t74 60.5t103.5 20.5q118 0 197 -83l-56 -70q-58 63 -130 63q-50 0 -77.5 -24.5t-27.5 -68.5q0 -83 139 -164h149v-55h-134v-216h-110v216h-165z" />
<glyph unicode="&#x2a4;" d="M501.5 134.5q32.5 -45.5 32.5 -118.5q0 -55 -18.5 -98.5t-53 -68t-79.5 -24.5q-40 0 -69 12.5t-54 35.5l43 72q16 -15 32.5 -22.5t36.5 -7.5q29 0 47 26t18 77q0 43 -17.5 66.5t-45.5 23.5q-9 0 -15.5 -2t-15.5 -7l-35 62l104 177h-124v-338h-66l-10 42h-3 q-34 -52 -80 -52q-39 0 -69 27t-46.5 77.5t-16.5 117.5q0 66 18 117t48.5 79t67.5 28q22 0 41.5 -11.5t33.5 -32.5h2l-5 80v136h85v-182h226v-59l-101 -181q56 -6 88.5 -51.5zM203 311q-21 35 -48 35t-45 -35.5t-18 -96.5q0 -64 17 -98.5t45 -34.5q15 0 28 13.5t21 35.5v181 z" />
<glyph unicode="&#x2a6;" d="M366 296.5q12 -11.5 39 -28.5q30 -19 50.5 -36t35 -44t14.5 -65q0 -65 -51 -99t-169 -34q-112 0 -163.5 43.5t-51.5 125.5v179h-59v83l64 5l15 132h91v-132h139q29 10 63 10q68 0 119 -44l-38 -60q-19 14 -35.5 20t-34.5 6q-19 0 -29.5 -9t-10.5 -26q0 -15 12 -26.5z M381 86q25 13 25 40q0 24 -16 40.5t-50 39.5q-28 17 -46 32t-30.5 37t-12.5 51q0 8 1 12h-71v-177q0 -48 27 -68t87 -20q61 0 86 13z" />
<glyph unicode="&#x2a7;" d="M550 607l-20 -82q-15 6 -27 6q-28 0 -38.5 -17t-10.5 -56v-470q0 -74 -33.5 -118.5t-106.5 -44.5q-39 0 -68 12l20 82q23 -6 35 -6q23 0 32.5 17t9.5 55v353h-157v-189q0 -37 12 -54.5t37 -17.5q22 0 46 9l19 -81q-24 -7 -43.5 -11t-44.5 -4q-71 0 -104 41.5t-33 116.5 v190h-59v83l65 5l14 132h91v-132h157v34q0 72 35 115.5t112 43.5q33 0 60 -12z" />
<glyph unicode="&#x2b9;" d="M334 593l-19 -113l-37 -154h-72l18 267h110z" />
<glyph unicode="&#x2bb;" d="M315.5 400q20.5 -20 20.5 -53q0 -37 -21.5 -59t-55.5 -22q-44 0 -69 33.5t-25 93.5q0 69 36.5 122t106.5 87l30 -60q-89 -44 -94 -125q8 3 19 3q32 0 52.5 -20z" />
<glyph unicode="&#x2bc;" d="M326.5 568q25.5 -34 25.5 -94q0 -69 -36.5 -122t-106.5 -86l-31 59q89 43 94 125q-8 -3 -18 -3q-33 0 -53.5 20t-20.5 53q0 36 21.5 59t55.5 23q44 0 69.5 -34z" />
<glyph unicode="&#x2be;" d="M257.5 542q21.5 17 21.5 48.5t-22 48.5t-65 17v60q86 3 127 -31t41 -94q0 -62 -41 -95.5t-127 -31.5v61q44 0 65.5 17z" />
<glyph unicode="&#x2bf;" d="M198.5 685q41.5 34 126.5 31v-60q-43 0 -65 -17t-22 -48.5t21.5 -48.5t65.5 -17v-61q-85 -2 -126.5 31.5t-41.5 95.5q0 60 41.5 94z" />
<glyph unicode="&#x2c1;" d="M155 525q-25 31 -25 75q0 56 41 86.5t101 30.5q76 0 125 -52l-40 -49q-35 37 -78 37q-30 0 -49.5 -14.5t-19.5 -40.5q0 -31 22.5 -56t77.5 -55v-101h-80v72q-50 36 -75 67z" />
<glyph unicode="&#x2c6;" d="M202 641h112l95 -115l-43 -40l-106 85h-3l-106 -85l-43 40z" />
<glyph unicode="&#x2c7;" d="M151 653l106 -85h3l106 85l43 -41l-95 -115h-112l-94 115z" />
<glyph unicode="&#x2c8;" d="M318 633l-25 -303h-69l-24 303h118z" />
<glyph unicode="&#x2c9;" d="M382 585v-72h-247v72h247z" />
<glyph unicode="&#x2ca;" d="M324 694l75 -74l-150 -134l-54 54z" />
<glyph unicode="&#x2cb;" d="M193 694l130 -154l-55 -54l-150 134z" />
<glyph unicode="&#x2cc;" d="M293 76l25 -302h-118l24 302h69z" />
<glyph unicode="&#x2d0;" d="M366 453l-101 -173h-12l-101 173h214zM265 174l101 -174h-214l101 174h12z" />
<glyph unicode="&#x2d1;" d="M366 453l-101 -173h-12l-101 173h214z" />
<glyph unicode="&#x2d8;" d="M181 638q4 -32 23.5 -53.5t54.5 -21.5q34 0 53.5 21t24.5 54l65 -10q-3 -60 -38.5 -97.5t-104.5 -37.5t-105 38t-38 97z" />
<glyph unicode="&#x2d9;" d="M204.5 622q21.5 20 54.5 20t54 -20t21 -52t-21 -51.5t-54 -19.5t-54.5 19.5t-21.5 51.5t21.5 52z" />
<glyph unicode="&#x2da;" d="M179 640.5q28 24.5 80 24.5q50 0 78.5 -24.5t28.5 -62.5t-28.5 -62.5t-78.5 -24.5q-52 0 -80 24t-28 62.5t28 63zM287.5 609q-11.5 13 -28.5 13q-18 0 -29.5 -12.5t-11.5 -31.5t11.5 -31.5t29.5 -12.5q17 0 28.5 12.5t11.5 31.5q0 18 -11.5 31z" />
<glyph unicode="&#x2db;" d="M193.5 -46q21.5 29 47.5 48h65q-58 -44 -58 -89q0 -20 13.5 -31t30.5 -11q15 0 26.5 4t18.5 10l25 -49q-16 -14 -41.5 -22.5t-53.5 -8.5q-42 0 -68.5 21.5t-26.5 61.5q0 37 21.5 66z" />
<glyph unicode="&#x2dc;" d="M169 502l-70 4q2 62 27.5 94.5t74.5 32.5q20 0 37 -9.5t37 -26.5q14 -12 23 -17.5t18 -5.5q28 0 33 53l69 -5q-1 -62 -26.5 -94t-74.5 -32q-21 0 -37.5 9t-36.5 27q-15 13 -23.5 18.5t-17.5 5.5q-28 0 -33 -54z" />
<glyph unicode="&#x2dd;" d="M229 669l74 -34l-91 -147l-59 26zM375 669l75 -34l-90 -147l-60 26z" />
<glyph unicode="&#x2de;" d="M88 235v80l151 64q10 -67 24 -93t32 -26q17 0 34 10l24 -53q-30 -21 -65 -21q-69 0 -96 83z" />
<glyph unicode="&#x2e0;" d="M312 376q18 -32 26 -50.5t8 -38.5q0 -36 -23 -57.5t-62 -21.5q-40 0 -63 21.5t-23 57.5q0 19 8 37.5t26 50.5l-92 235h80l40 -123l11 -33q1 -5 4.5 -14t7.5 -21h3q3 12 7.5 24.5t6.5 18.5l9 25l40 123h76zM276.5 264.5q5.5 6.5 5.5 17.5q0 24 -21 60h-2q-19 -39 -19 -60 q0 -11 6 -17.5t15.5 -6.5t15 6.5z" />
<glyph unicode="&#x2e4;" d="M155 543.5q-25 30.5 -25 75.5q0 55 41 86t101 31q77 0 125 -52l-40 -50q-35 38 -78 38q-31 0 -50 -15t-19 -41q0 -30 23 -55t77 -56v-176h-80v148q-50 36 -75 66.5z" />
<glyph unicode="&#x300;" horiz-adv-x="0" d="M-325 694l130 -154l-55 -54l-150 134z" />
<glyph unicode="&#x301;" horiz-adv-x="0" d="M-194 694l75 -74l-150 -134l-54 54z" />
<glyph unicode="&#x302;" horiz-adv-x="0" d="M-316 641h112l95 -115l-43 -40l-106 85h-3l-106 -85l-43 40z" />
<glyph unicode="&#x303;" horiz-adv-x="0" d="M-349 502l-70 4q2 62 27.5 94.5t74.5 32.5q20 0 37 -9.5t37 -26.5q14 -12 23 -17.5t18 -5.5q28 0 33 53l69 -5q-1 -62 -26.5 -94t-74.5 -32q-21 0 -37.5 9t-36.5 27q-15 13 -23.5 18.5t-17.5 5.5q-28 0 -33 -54z" />
<glyph unicode="&#x304;" horiz-adv-x="0" d="M-136 585v-72h-247v72h247z" />
<glyph unicode="&#x305;" horiz-adv-x="0" d="M-136 585v-72h-247v72h247z" />
<glyph unicode="&#x306;" horiz-adv-x="0" d="M-337 638q4 -32 23.5 -53.5t54.5 -21.5q34 0 53.5 21t24.5 54l65 -10q-3 -60 -38.5 -97.5t-104.5 -37.5t-105 38t-38 97z" />
<glyph unicode="&#x307;" horiz-adv-x="0" d="M-313.5 622q21.5 20 54.5 20t54 -20t21 -52t-21 -51.5t-54 -19.5t-54.5 19.5t-21.5 51.5t21.5 52z" />
<glyph unicode="&#x308;" horiz-adv-x="0" d="M-396 605.5q18 18.5 45 18.5t44.5 -18.5t17.5 -45t-17.5 -45t-44.5 -18.5t-45 18.5t-18 45t18 45zM-212.5 605.5q17.5 18.5 45 18.5t45.5 -18.5t18 -45t-18 -45t-45.5 -18.5t-45 18.5t-17.5 45t17.5 45z" />
<glyph unicode="&#x309;" horiz-adv-x="0" d="M-262 570q0 17 -16.5 26t-52.5 12l7 68q74 -2 109 -27.5t35 -69.5q0 -40 -31.5 -61t-82.5 -27l-9 46q41 8 41 33z" />
<glyph unicode="&#x30a;" horiz-adv-x="0" d="M-339 640.5q28 24.5 80 24.5q50 0 78.5 -24.5t28.5 -62.5t-28.5 -62.5t-78.5 -24.5q-52 0 -80 24t-28 62.5t28 63zM-230.5 609q-11.5 13 -28.5 13q-18 0 -29.5 -12.5t-11.5 -31.5t11.5 -31.5t29.5 -12.5q17 0 28.5 12.5t11.5 31.5q0 18 -11.5 31z" />
<glyph unicode="&#x30b;" horiz-adv-x="0" d="M-289 669l74 -34l-91 -147l-59 26zM-143 669l75 -34l-90 -147l-60 26z" />
<glyph unicode="&#x30c;" horiz-adv-x="0" d="M-367 653l106 -85h3l106 85l43 -41l-95 -115h-112l-94 115z" />
<glyph unicode="&#x30f;" horiz-adv-x="0" d="M-376 669l76 -155l-59 -26l-92 147zM-229 669l76 -155l-59 -26l-91 147z" />
<glyph unicode="&#x310;" horiz-adv-x="0" d="M-303 707q17 17 44 17t44 -17t17 -43.5t-17 -42.5t-44 -16t-44 16t-17 42.5t17 43.5zM-352 638q5 -35 29.5 -58t63.5 -23q38 0 63 23.5t30 57.5l58 -10q-4 -59 -42.5 -97t-108.5 -38q-71 0 -109 38t-42 97z" />
<glyph unicode="&#x311;" horiz-adv-x="0" d="M-364.5 595.5q35.5 37.5 105.5 37.5q68 0 104 -38t39 -96l-65 -11q-5 33 -24.5 54t-53.5 21q-35 0 -54.5 -21.5t-23.5 -53.5l-65 11q2 59 37.5 96.5z" />
<glyph unicode="&#x312;" horiz-adv-x="0" d="M-215 570q14 -13 14 -36t-14.5 -37t-37.5 -14q-30 0 -47 20t-17 56q0 39 23.5 68t70.5 43l18 -37q-55 -20 -60 -54q7 4 15 4q21 0 35 -13z" />
<glyph unicode="&#x313;" horiz-adv-x="0" d="M-218.5 650q17.5 -20 17.5 -56q0 -38 -24 -67t-71 -44l-18 38q54 18 61 53q-7 -4 -15 -4q-21 0 -35 13t-14 36q0 24 14 37.5t37 13.5q30 0 47.5 -20z" />
<glyph unicode="&#x318;" horiz-adv-x="0" d="M-332 -161v55h100v59h65v-172h-65v58h-100z" />
<glyph unicode="&#x319;" horiz-adv-x="0" d="M-288 -47v-59h101v-55h-101v-58h-64v172h64z" />
<glyph unicode="&#x31a;" horiz-adv-x="0" d="M-332 568v54h154v-128h-60v74h-94z" />
<glyph unicode="&#x31b;" horiz-adv-x="0" d="M-221 441q16 18 16 53q0 25 -13 49l82 36q24 -35 24 -77q0 -61 -41.5 -94t-104.5 -38l-9 46q30 7 46 25z" />
<glyph unicode="&#x31c;" horiz-adv-x="0" d="M-305 -71q33 23 102 21v-42q-30 0 -45 -11.5t-15 -32.5t15 -32.5t45 -11.5v-42q-69 -2 -102 21t-33 65t33 65z" />
<glyph unicode="&#x31d;" horiz-adv-x="0" d="M-292 -138v91h65v-91h75v-55h-214v55h74z" />
<glyph unicode="&#x31e;" horiz-adv-x="0" d="M-366 -130v56h214v-56h-75v-89h-65v89h-74z" />
<glyph unicode="&#x31f;" horiz-adv-x="0" d="M-366 -161v55h74v59h65v-59h75v-55h-75v-58h-65v58h-74z" />
<glyph unicode="&#x320;" horiz-adv-x="0" d="M-152 -77v-55h-214v55h214z" />
<glyph unicode="&#x323;" horiz-adv-x="0" d="M-313.5 -81q21.5 20 54.5 20t54 -20t21 -52t-21 -51.5t-54 -19.5t-54.5 19.5t-21.5 51.5t21.5 52z" />
<glyph unicode="&#x324;" horiz-adv-x="0" d="M-396 -85.5q18 18.5 45 18.5t44.5 -18.5t17.5 -45.5t-17.5 -45t-44.5 -18t-45 18t-18 45t18 45.5zM-212.5 -85.5q17.5 18.5 45 18.5t45.5 -18.5t18 -45.5t-18 -45t-45.5 -18t-45 18t-17.5 45t17.5 45.5z" />
<glyph unicode="&#x325;" horiz-adv-x="0" d="M-339 -67q28 24 80 24q50 0 78.5 -24.5t28.5 -62t-28.5 -62.5t-78.5 -25q-52 0 -80 24.5t-28 63t28 62.5zM-230.5 -98q-11.5 13 -28.5 13q-18 0 -29.5 -12.5t-11.5 -32t11.5 -32t29.5 -12.5q17 0 28.5 12.5t11.5 31.5t-11.5 32z" />
<glyph unicode="&#x326;" horiz-adv-x="0" d="M-282 -146q20 8 20 25q0 14 -13.5 21.5t-42.5 10.5l21 43q65 -7 90.5 -23t25.5 -48q0 -80 -162 -87l-9 47q50 3 70 11z" />
<glyph unicode="&#x327;" horiz-adv-x="0" d="M-281.5 -145q19.5 9 19.5 27q0 15 -15 24.5t-51 13.5l41 89h66l-25 -62q33 -8 49 -23t16 -41q0 -80 -162 -87l-9 47q51 3 70.5 12z" />
<glyph unicode="&#x328;" horiz-adv-x="0" d="M-324.5 -46q21.5 29 47.5 48h65q-58 -44 -58 -89q0 -20 13.5 -31t30.5 -11q15 0 26.5 4t18.5 10l25 -49q-16 -14 -41.5 -22.5t-53.5 -8.5q-42 0 -68.5 21.5t-26.5 61.5q0 37 21.5 66z" />
<glyph unicode="&#x329;" horiz-adv-x="0" d="M-220 -57l5 -175h-88l5 175h78z" />
<glyph unicode="&#x32a;" horiz-adv-x="0" d="M-148 -68v-123h-58v67h-106v-67h-57v123h221z" />
<glyph unicode="&#x32c;" horiz-adv-x="0" d="M-367 -38l106 -86h3l106 86l43 -41l-95 -115h-112l-94 115z" />
<glyph unicode="&#x32e;" horiz-adv-x="0" d="M-337 -56q4 -32 23.5 -53.5t54.5 -21.5q34 0 53.5 21t24.5 54l65 -11q-3 -59 -38.5 -96.5t-104.5 -37.5t-105 38t-38 96z" />
<glyph unicode="&#x32f;" horiz-adv-x="0" d="M-364.5 -103q35.5 38 105.5 38q68 0 104 -38t39 -97l-65 -10q-5 32 -24.5 53.5t-53.5 21.5q-35 0 -54.5 -21.5t-23.5 -53.5l-65 10q2 59 37.5 97z" />
<glyph unicode="&#x330;" horiz-adv-x="0" d="M-349 -188l-70 4q2 62 27.5 94t74.5 32q20 0 37 -9t37 -26q14 -12 23 -18t18 -6q28 0 33 53l69 -4q-1 -62 -26.5 -94.5t-74.5 -32.5q-21 0 -37.5 9.5t-36.5 27.5q-15 12 -23.5 17.5t-17.5 5.5q-28 0 -33 -53z" />
<glyph unicode="&#x331;" horiz-adv-x="0" d="M-136 -87v-71h-247v71h247z" />
<glyph unicode="&#x334;" horiz-adv-x="0" d="M-374 155l-71 12q3 56 26 86t66 30q31 0 55 -9.5t56 -26.5q21 -12 36 -18t30 -6t22.5 12.5t9.5 38.5l71 -14q-3 -56 -26 -85.5t-66 -29.5q-31 0 -56 9.5t-55 26.5q-25 14 -38.5 19.5t-27.5 5.5q-29 0 -32 -51z" />
<glyph unicode="&#x339;" horiz-adv-x="0" d="M-270.5 -168.5q15.5 11.5 15.5 32.5t-15.5 32.5t-46.5 11.5v42q70 2 103 -21t33 -65t-33 -65t-103 -21v42q31 0 46.5 11.5z" />
<glyph unicode="&#x33a;" horiz-adv-x="0" d="M-312 -64v-68h106v68h58v-124h-221v124h57z" />
<glyph unicode="&#x33b;" horiz-adv-x="0" d="M-148 -60v-151h-221v151h221zM-206 -102h-106v-67h106v67z" />
<glyph unicode="&#x33c;" horiz-adv-x="0" d="M-397 -99.5q23 32.5 72 32.5q50 0 64 -47h3q6 24 23 35.5t41 11.5q48 0 71.5 -32.5t23.5 -101.5l-65 -8q0 42 -8.5 58t-25.5 16t-25.5 -14.5t-8.5 -39.5v-18h-55v18q0 54 -34 54q-18 0 -26.5 -16t-8.5 -58l-64 8q0 69 23 101.5z" />
<glyph unicode="&#x33d;" horiz-adv-x="0" d="M-298 571l-54 49l38 35l55 -49l55 49l38 -35l-54 -49l54 -49l-38 -34l-55 48l-55 -48l-38 34z" />
<glyph unicode="&#x342;" horiz-adv-x="0" d="M-349 502l-70 4q2 62 27.5 94.5t74.5 32.5q20 0 37 -9.5t37 -26.5q14 -12 23 -17.5t18 -5.5q28 0 33 53l69 -5q-1 -62 -26.5 -94t-74.5 -32q-21 0 -37.5 9t-36.5 27q-15 13 -23.5 18.5t-17.5 5.5q-28 0 -33 -54z" />
<glyph unicode="&#x345;" horiz-adv-x="0" d="M-302 -50h81q-2 -12 -2 -37q0 -28 30 -28q8 0 16 2l11 -61q-21 -9 -49 -9q-45 0 -66 26t-21 75v32z" />
<glyph unicode="&#x35f;" horiz-adv-x="0" d="M175 -87v-71h-868v71h868z" />
<glyph unicode="&#x361;" horiz-adv-x="0" d="M-465.5 598q99.5 27 206.5 27t206.5 -27t187.5 -80l-30 -53q-78 46 -174.5 67.5t-189.5 21.5q-94 0 -190 -21.5t-174 -67.5l-30 53q88 53 187.5 80z" />
<glyph unicode="&#x374;" d="M333 593l-17 -101l-38 -142h-72l17 243h110z" />
<glyph unicode="&#x375;" d="M239 243h73l-17 -243h-111l18 101z" />
<glyph unicode="&#x37a;" d="M216 -50h81q-2 -12 -2 -37q0 -28 30 -28q8 0 16 2l11 -61q-21 -9 -49 -9q-45 0 -66 26t-21 75v32z" />
<glyph unicode="&#x37e;" d="M283 282q-8 0 -17 8l-47 49q-7 7 -7 16q0 8 6 15l48 50q8 8 17 8q10 0 17 -8l46 -50q6 -6 6 -15t-6 -15l-47 -50q-7 -8 -16 -8zM336 134q25 -36 25 -101q0 -80 -44.5 -136t-127.5 -83l-28 65q108 41 111 128h-12q-35 0 -60 21.5t-25 60.5q0 36 25.5 58.5t62.5 22.5 q48 0 73 -36z" />
<glyph unicode="&#x384;" d="M250 708l109 -17l-68 -209l-74 11z" />
<glyph unicode="&#x385;" d="M333 695l-66 -204l-50 8l35 209zM112.5 589q14.5 13 35 13t34 -13t13.5 -34.5t-13.5 -34.5t-34 -13t-35 13t-14.5 34.5t14.5 34.5zM337 589q14 13 34.5 13t34.5 -13t14 -34.5t-14 -34.5t-34.5 -13t-34.5 13t-14 34.5t14 34.5z" />
<glyph unicode="&#x386;" d="M82 310l-71 13l36 273l97 -14zM352 145h-155l-35 -145h-113l162 564h131l162 -564h-118zM332 232l-15 62l-7.5 30t-6.5 28l-28 114h-3l-39 -172l-15 -62h114z" />
<glyph unicode="&#x387;" d="M283 269q-8 0 -17 8l-47 49q-7 6 -7 16q0 7 6 15l48 50q8 8 17 8q10 0 17 -8l46 -50q6 -6 6 -15q0 -10 -6 -16l-47 -49q-7 -8 -16 -8z" />
<glyph unicode="&#x388;" d="M41 596l97 -14l-62 -272l-71 13zM451 564v-93h-173v-133h134v-93h-134v-152h182v-93h-281v564h272z" />
<glyph unicode="&#x389;" d="M41 596l97 -14l-62 -272l-71 13zM269 564v-223h102v223h100v-564h-100v244h-102v-244h-100v564h100z" />
<glyph unicode="&#x38a;" d="M41 596l97 -14l-62 -272l-71 13zM253 93v378h-84v93h279v-93h-84v-378h84v-93h-279v93h84z" />
<glyph unicode="&#x38c;" d="M41 596l97 -14l-62 -272l-71 13zM147.5 442.5q22.5 65.5 63 98.5t92.5 33q54 0 94 -33t62.5 -98t22.5 -159t-22.5 -160t-62.5 -100t-94 -34q-52 0 -92.5 35t-63 101.5t-22.5 157.5q0 93 22.5 158.5zM358 432q-19 46 -54 46q-73 0 -73 -194q0 -102 19 -150t54 -48 q73 0 73 198q0 102 -19 148z" />
<glyph unicode="&#x38e;" d="M53 596l97 -14l-62 -272l-71 13zM171 564h101l42 -146q6 -18 23 -79q4 -14 7.5 -26.5t7.5 -23.5h2q5 18 11 40.5t9 31.5q8 25 17 57l44 146h97l-131 -370v-194h-99v194z" />
<glyph unicode="&#x38f;" d="M41 596l97 -14l-62 -272l-71 13zM193 90v3q-32 49 -49 103.5t-17 124.5q0 74 22 131.5t62 89.5t92 32q54 0 94 -32t61.5 -89.5t21.5 -131.5q0 -70 -17 -124.5t-49 -103.5v-3h75v-90h-160v81q25 55 36 103t11 116q0 86 -19 132t-53.5 46t-53.5 -46t-19 -132 q0 -68 10.5 -116t36.5 -103v-81h-160v90h75z" />
<glyph unicode="&#x390;" d="M188 338h-130v88h241l-3 -107q-4 -123 -4 -165q0 -40 18.5 -57.5t58.5 -17.5q14 0 32.5 4t35.5 12l25 -82q-56 -23 -122 -23q-82 0 -117 42.5t-35 126.5v179zM315 695l-66 -204l-50 8l36 209zM95 589q14 13 34.5 13t34.5 -13t14 -34.5t-14 -34.5t-34.5 -13t-34.5 13 t-14 34.5t14 34.5zM319 589q14 13 34.5 13t34.5 -13t14 -34.5t-14 -34.5t-34.5 -13t-34.5 13t-14 34.5t14 34.5z" />
<glyph unicode="&#x391;" d="M347 145h-181l-39 -145h-114l180 564h131l181 -564h-118zM323 232l-17 62l-9 32q-26 101 -39 153h-3q-27 -111 -48 -185l-17 -62h133z" />
<glyph unicode="&#x392;" d="M251 564q202 0 202 -140q0 -41 -25 -75.5t-72 -45.5v-4q125 -23 125 -133q0 -82 -59 -124t-156 -42h-196v564h181zM345 409q0 36 -24 52t-76 16h-64v-145h62q102 0 102 77zM343 108q29 22 29 65q0 42 -28.5 61t-87.5 19h-75v-167h75q58 0 87 22z" />
<glyph unicode="&#x393;" d="M463 564v-93h-252v-471h-111v564h363z" />
<glyph unicode="&#x394;" d="M193 564h132l163 -497v-67h-458v67zM307 293q-21 76 -49 184h-3q-14 -51 -23 -89q-4 -14 -26 -95l-57 -200h217z" />
<glyph unicode="&#x395;" d="M451 564v-93h-256v-133h217v-93h-217v-152h265v-93h-375v564h366z" />
<glyph unicode="&#x396;" d="M329 471h-253v93h390v-67l-279 -404h283v-93h-419v67z" />
<glyph unicode="&#x397;" d="M170 564v-223h177v223h111v-564h-111v244h-177v-244h-111v564h111z" />
<glyph unicode="&#x398;" d="M63.5 439.5q27.5 65.5 78 100t117.5 34.5t117 -34.5t78 -100t28 -155.5t-28 -156.5t-78.5 -102t-116.5 -35.5q-67 0 -117 35.5t-78 102t-28 156.5t27.5 155.5zM339.5 426q-29.5 52 -80.5 52q-50 0 -80 -52t-30 -142q0 -60 13.5 -104.5t38.5 -69t58 -24.5q50 0 80 53.5 t30 144.5q0 90 -29.5 142zM325 341v-97h-133v97h133z" />
<glyph unicode="&#x399;" d="M204 93v378h-134v93h378v-93h-134v-378h134v-93h-378v93h134z" />
<glyph unicode="&#x39a;" d="M386 0l-134 257l-74 -95v-162h-112v564h112v-247h3l188 247h123l-172 -221l189 -343h-123z" />
<glyph unicode="&#x39b;" d="M325 564l173 -564h-118l-74 275q-8 25 -13 46.5t-10 37.5q-18 75 -25 98h-3q-8 -23 -26 -98q-5 -16 -10 -37.5t-13 -46.5l-73 -275h-113l172 564h133z" />
<glyph unicode="&#x39c;" d="M169 564l65 -212l23 -82h3l22 82l66 212h116v-564h-93v223q0 39 4.5 108.5t9.5 122.5h-2l-43 -143l-57 -162h-52l-58 162l-40 143h-3q5 -48 10 -119.5t5 -111.5v-223h-92v564h116z" />
<glyph unicode="&#x39d;" d="M174 564l138 -303l51 -121h3l-6 59q-3 34 -6 71.5t-3 66.5v227h106v-564h-113l-138 303l-51 121h-3q1 -21 6 -58q3 -34 6 -71.5t3 -66.5v-228h-106v564h113z" />
<glyph unicode="&#x39e;" d="M451 564v-93h-384v93h384zM400 338v-93h-281v93h281zM460 93v-93h-402v93h402z" />
<glyph unicode="&#x39f;" d="M64 441q28 65 78 99t117 34t117 -34t78 -99t28 -157q0 -93 -28 -159.5t-78 -100.5t-117 -34t-117 34t-78 100.5t-28 159.5q0 92 28 157zM339.5 427.5q-29.5 50.5 -80.5 50.5q-50 0 -80 -51t-30 -143q0 -95 29.5 -146.5t80.5 -51.5t80.5 51.5t29.5 146.5q0 93 -29.5 143.5 z" />
<glyph unicode="&#x3a0;" d="M458 564v-564h-111v471h-177v-471h-111v564h399z" />
<glyph unicode="&#x3a1;" d="M263 564q100 0 158.5 -41.5t58.5 -135.5q0 -62 -28.5 -104t-77.5 -62t-111 -20h-81v-201h-110v564h191zM341.5 313.5q28.5 24.5 28.5 73.5q0 48 -28 68t-87 20h-73v-186h73q58 0 86.5 24.5z" />
<glyph unicode="&#x3a3;" d="M238 285l-177 212v67h379v-93h-241l150 -183l-152 -195h267v-93h-406v67z" />
<glyph unicode="&#x3a4;" d="M29 471v93h459v-93h-174v-471h-110v471h-175z" />
<glyph unicode="&#x3a5;" d="M19 564h119l65 -146l55 -129h3l28 64l29 66l65 145h114l-183 -370v-194h-110v194z" />
<glyph unicode="&#x3a6;" d="M448 123.5q-54 -60.5 -146 -68.5v-74h-86v74q-92 8 -145.5 68t-53.5 161.5t53.5 159.5t145.5 66v72h86v-72q92 -8 146 -66.5t54 -159t-54 -161zM375.5 184.5q27.5 38.5 27.5 99.5q0 60 -27 98t-74 44v-287q46 7 73.5 45.5zM142 185.5q27 -38.5 74 -46.5v287 q-47 -7 -74 -44.5t-27 -97.5t27 -98.5z" />
<glyph unicode="&#x3a7;" d="M35 564h123l63 -119q11 -22 43 -88h4q13 34 38 88l60 119h117l-154 -279l165 -285h-124l-68 126q-13 22 -36 72l-6 10l-5 10h-3q-21 -49 -43 -92l-66 -126h-118l165 290z" />
<glyph unicode="&#x3a8;" d="M494 564v-167q0 -95 -49.5 -145.5t-139.5 -56.5v-195h-92v195q-91 6 -140 56.5t-49 145.5v167h103v-161q0 -111 86 -121v282h92v-282q86 11 86 121v161h103z" />
<glyph unicode="&#x3a9;" d="M121 90v3q-36 36 -60.5 90.5t-24.5 123.5q0 78 27 138.5t78 94.5t118 34t118 -34t78 -94t27 -139q0 -69 -24.5 -124t-59.5 -90v-3h92v-90h-193v81q37 49 54.5 97.5t17.5 118.5q0 80 -29 130.5t-81 50.5t-81 -50t-29 -131q0 -70 17.5 -118.5t54.5 -97.5v-81h-192v90h92z " />
<glyph unicode="&#x3aa;" d="M204 93v378h-134v93h378v-93h-134v-378h134v-93h-378v93h134zM127 706q16 16 41 16t41.5 -16t16.5 -41q0 -24 -16.5 -40.5t-41.5 -16.5q-24 0 -40.5 16.5t-16.5 40.5q0 25 16 41zM308 706q16 16 41 16t41.5 -16t16.5 -41q0 -24 -16.5 -40.5t-41.5 -16.5q-24 0 -40.5 16.5 t-16.5 40.5q0 25 16 41z" />
<glyph unicode="&#x3ab;" d="M19 564h119l65 -146l55 -129h3l28 64l29 66l65 145h114l-183 -370v-194h-110v194zM127 706q16 16 41 16t41.5 -16t16.5 -41q0 -24 -16.5 -40.5t-41.5 -16.5q-24 0 -40.5 16.5t-16.5 40.5q0 25 16 41zM308 706q16 16 41 16t41.5 -16t16.5 -41q0 -24 -16.5 -40.5 t-41.5 -16.5q-24 0 -40.5 16.5t-16.5 40.5q0 25 16 41z" />
<glyph unicode="&#x3ac;" d="M65.5 329.5q25.5 51.5 67 79t89.5 27.5q90 0 127 -93h3l15 83h109q-2 -12 -11 -48q-21 -96 -32.5 -158t-11.5 -100q0 -21 11.5 -31t29.5 -10q14 0 29 6l14 -82q-25 -13 -69 -13t-69 17.5t-33 57.5h-3q-24 -38 -54 -56.5t-68 -18.5q-51 0 -89 25.5t-59 75.5t-21 118 q0 69 25.5 120.5zM329 259q-13 44 -36.5 65.5t-48.5 21.5q-23 0 -44 -15.5t-34 -45.5t-13 -75q0 -64 21.5 -96.5t60.5 -32.5q21 0 40.5 14t32.5 37.5t15 51.5zM273 708l109 -17l-68 -209l-74 11z" />
<glyph unicode="&#x3ad;" d="M91 185q25 24 73 37v4q-38 12 -58.5 37.5t-20.5 53.5q0 59 54.5 89t146.5 30q46 0 90.5 -13.5t81.5 -38.5l-41 -72q-55 39 -127 39q-48 0 -72.5 -13t-24.5 -36q0 -22 24.5 -34.5t71.5 -12.5q18 0 60 3v-80q-43 4 -72 4q-53 0 -77.5 -12t-24.5 -39q0 -56 118 -56 q75 0 131 43l44 -71q-45 -33 -88.5 -45t-97.5 -12q-100 0 -158 33.5t-58 96.5q0 41 25 65zM279 708l109 -17l-68 -209l-74 11z" />
<glyph unicode="&#x3ae;" d="M334.5 321.5q-14.5 20.5 -49.5 20.5q-29 0 -52.5 -16t-50.5 -54v-272h-111v298q0 77 -8 128h98l8 -76h3q34 43 69 64.5t81 21.5q69 0 100.5 -43.5t31.5 -126.5v-419h-112q7 224 7 405q0 49 -14.5 69.5zM270 708l109 -17l-68 -209l-74 11z" />
<glyph unicode="&#x3af;" d="M188 338h-130v88h241l-3 -107q-4 -123 -4 -165q0 -40 18.5 -57.5t58.5 -17.5q14 0 32.5 4t35.5 12l25 -82q-56 -23 -122 -23q-82 0 -117 42.5t-35 126.5v179zM232 708l109 -17l-68 -209l-74 11z" />
<glyph unicode="&#x3b0;" d="M65.5 239q1.5 40 1.5 59q0 73 -9 128h107q7 -38 7 -104q0 -27 -2 -64q-3 -57 -3 -88q0 -44 24.5 -67.5t63.5 -23.5q45 0 70 36.5t25 110.5q0 86 -30 186l107 24q34 -113 34 -204q0 -115 -54.5 -178.5t-152.5 -63.5q-95 0 -142.5 50t-47.5 139q0 20 1.5 60zM327 695 l-66 -204l-50 8l35 209zM106.5 589q14.5 13 35 13t34 -13t13.5 -34.5t-13.5 -34.5t-34 -13t-35 13t-14.5 34.5t14.5 34.5zM331 589q14 13 34.5 13t34.5 -13t14 -34.5t-14 -34.5t-34.5 -13t-34.5 13t-14 34.5t14 34.5z" />
<glyph unicode="&#x3b1;" d="M65.5 329.5q25.5 51.5 67 79t89.5 27.5q90 0 127 -93h3l15 83h109q-2 -12 -11 -48q-21 -96 -32.5 -158t-11.5 -100q0 -21 11.5 -31t29.5 -10q14 0 29 6l14 -82q-25 -13 -69 -13t-69 17.5t-33 57.5h-3q-24 -38 -54 -56.5t-68 -18.5q-51 0 -89 25.5t-59 75.5t-21 118 q0 69 25.5 120.5zM329 259q-13 44 -36.5 65.5t-48.5 21.5q-23 0 -44 -15.5t-34 -45.5t-13 -75q0 -64 21.5 -96.5t60.5 -32.5q21 0 40.5 14t32.5 37.5t15 51.5z" />
<glyph unicode="&#x3b2;" d="M114 561.5q47 56.5 138 56.5q48 0 88.5 -17t65.5 -52t25 -86q0 -87 -79 -133v-4q55 -10 90.5 -52t35.5 -103q0 -59 -24.5 -100t-63 -61t-82.5 -20q-82 0 -136 60q3 -126 7 -203h-112v567q0 91 47 147.5zM347 243.5q-23 25.5 -65 25.5q-21 0 -37 -5l-14 82q49 8 71.5 37 t22.5 70q0 38 -20.5 58t-51.5 20q-37 0 -57 -33.5t-21 -97.5l-2 -67q-1 -33 -1.5 -82t-0.5 -115q44 -55 107 -55q39 0 65.5 25t26.5 72q0 40 -23 65.5z" />
<glyph unicode="&#x3b3;" d="M178.5 98q-24.5 82 -65.5 166.5t-88 146.5l112 25q36 -50 73 -134t60 -176h3q41 76 65 149.5t31 150.5h110q-14 -76 -33.5 -136.5t-54 -127t-90.5 -153.5q11 -62 11 -162h-114q3 26 4 48.5t1 64.5q0 56 -24.5 138z" />
<glyph unicode="&#x3b4;" d="M435.5 303.5q33.5 -45.5 33.5 -112.5q0 -60 -25.5 -105.5t-73 -70.5t-112.5 -25q-57 0 -104.5 23.5t-76 67.5t-28.5 103q0 66 40.5 112.5t106.5 72.5q-49 34 -76.5 68t-27.5 80q0 28 17.5 51t53 36.5t86.5 13.5q94 0 206 -37l-25 -83q-115 38 -181 38q-26 0 -38.5 -8.5 t-12.5 -21.5q0 -21 25 -42t86 -58l22 -13q71 -44 104.5 -89.5zM335 108q27 29 27 84q0 39 -22.5 68t-64.5 59q-58 -14 -89.5 -47.5t-31.5 -85.5q0 -33 14.5 -57.5t39 -37t52.5 -12.5q48 0 75 29z" />
<glyph unicode="&#x3b5;" d="M91 185q25 24 73 37v4q-38 12 -58.5 37.5t-20.5 53.5q0 59 54.5 89t146.5 30q46 0 90.5 -13.5t81.5 -38.5l-41 -72q-55 39 -127 39q-48 0 -72.5 -13t-24.5 -36q0 -22 24.5 -34.5t71.5 -12.5q18 0 60 3v-80q-43 4 -72 4q-53 0 -77.5 -12t-24.5 -39q0 -56 118 -56 q75 0 131 43l44 -71q-45 -33 -88.5 -45t-97.5 -12q-100 0 -158 33.5t-58 96.5q0 41 25 65z" />
<glyph unicode="&#x3b6;" d="M353 -84q8 14 8 28q0 12 -9 20t-30.5 14t-64.5 15q-80 17 -128 61.5t-48 140.5q0 85 68.5 172.5t180.5 159.5q-163 -2 -221 -7v88h345v-88h-5q-69 -35 -127.5 -91t-92.5 -116.5t-34 -111.5q0 -39 13 -62.5t40 -36.5t74 -22q50 -10 79.5 -23t43 -33t13.5 -51 q0 -23 -13 -60t-38 -74l-87 30q25 33 33 47z" />
<glyph unicode="&#x3b7;" d="M334.5 321.5q-14.5 20.5 -49.5 20.5q-29 0 -52.5 -16t-50.5 -54v-272h-111v298q0 77 -8 128h98l8 -76h3q34 43 69 64.5t81 21.5q69 0 100.5 -43.5t31.5 -126.5v-419h-112q7 224 7 405q0 49 -14.5 69.5z" />
<glyph unicode="&#x3b8;" d="M369 583q46 -35 71.5 -105t25.5 -172q0 -157 -55 -236.5t-152 -79.5t-152 79.5t-55 236.5q0 153 55.5 232.5t151.5 79.5q64 0 110 -35zM190 486.5q-26 -41.5 -30 -143.5h198q-4 102 -30 143.5t-69 41.5t-69 -41.5zM328.5 122q25.5 43 29.5 147h-198q4 -104 29.5 -147 t69.5 -43t69.5 43z" />
<glyph unicode="&#x3b9;" d="M188 338h-130v88h241l-3 -107q-4 -123 -4 -165q0 -40 18.5 -57.5t58.5 -17.5q14 0 32.5 4t35.5 12l25 -82q-56 -23 -122 -23q-82 0 -117 42.5t-35 126.5v179z" />
<glyph unicode="&#x3ba;" d="M379 -9q-79 95 -130 196q-21 -22 -31 -35q-35 -42 -35 -128v-24h-104v298q0 76 -9 128h109q8 -36 8 -104v-96h3q52 84 120.5 140.5t144.5 69.5l10 -104q-37 -8 -71.5 -26t-72.5 -49q33 -62 83.5 -133t98.5 -124z" />
<glyph unicode="&#x3bb;" d="M224 429l-5 16q-22 80 -88 80q-18 0 -31 -3.5t-27 -10.5l-26 89q22 10 42.5 14t54.5 4q71 0 113.5 -41.5t73.5 -136.5l160 -440h-119l-97 306h-4l-117 -315l-119 9z" />
<glyph unicode="&#x3bc;" d="M170 426v-249q0 -49 17 -71t51 -22q28 0 51 16t45 56v270h112q-7 -208 -7 -313q0 -34 28 -34q8 0 15 2l14 -82q-21 -9 -57 -9q-39 0 -62 20t-31 63h-3q-19 -39 -48 -59.5t-62 -20.5q-24 0 -41 6t-28 22q0 -51 2 -97.5t6 -90.5h-112v593h110z" />
<glyph unicode="&#x3bd;" d="M139 436q42 -64 80 -156.5t52 -167.5h3q83 176 94 314h109q-17 -111 -57 -208t-114 -218h-105q-20 113 -66 217t-108 194z" />
<glyph unicode="&#x3be;" d="M353.5 -86q8.5 15 8.5 30q0 12 -9 20t-30.5 14t-64.5 15q-85 17 -131.5 54t-46.5 113q0 55 37 97.5t92 61.5v3q-42 16 -65.5 47t-23.5 71q0 26 13 49.5t36 37.5q-46 -1 -110 -7v88h395v-88h-122q-45 0 -73.5 -23t-28.5 -61q0 -23 13 -42.5t35.5 -31.5t50 -12t42.5 1t33 6 v-88q-19 5 -35.5 6t-45.5 1q-36 0 -65.5 -12.5t-47 -35t-17.5 -52.5q0 -32 15 -50t42.5 -27t77.5 -19q52 -10 80 -23t39.5 -32.5t11.5 -51.5q0 -24 -12.5 -60.5t-38.5 -73.5l-87 30q24 30 32.5 45z" />
<glyph unicode="&#x3bf;" d="M76 331q29 51 77.5 78t105.5 27t105.5 -27t77.5 -78t29 -119t-29 -118.5t-77.5 -77t-105.5 -26.5t-105.5 26.5t-77.5 77t-29 118.5t29 119zM331.5 310q-25.5 36 -72.5 36t-72.5 -36t-25.5 -97.5t25.5 -97.5t72.5 -36t72.5 36t25.5 97.5t-25.5 97.5z" />
<glyph unicode="&#x3c0;" d="M323 187q3 133 3 151h-125q0 -146 -12 -345l-111 7q20 169 20 338h-85v83l63 5h429v-88h-74q-5 -93 -5 -220q0 -20 9.5 -29.5t28.5 -9.5q6 0 21 5l14 -83q-28 -11 -61 -11q-62 0 -89 34t-27 100z" />
<glyph unicode="&#x3c1;" d="M94 334.5q27 51.5 73 76.5t105 25q96 0 149 -57t53 -159q0 -71 -25.5 -123t-68 -79.5t-89.5 -27.5q-76 0 -119 51q3 -100 7 -194h-112v361q0 75 27 126.5zM269 346q-42 0 -69.5 -35.5t-27.5 -95.5v-94q22 -24 44.5 -32t49.5 -8q42 0 68.5 35.5t26.5 101.5q0 128 -92 128z " />
<glyph unicode="&#x3c2;" d="M338 -81q10 17 10 32q0 22 -17 34t-66 23q-87 20 -142.5 68.5t-55.5 144.5q0 66 33 114.5t88 74.5t118 26q48 0 87.5 -15t67.5 -43l-52 -69q-24 20 -46.5 28.5t-49.5 8.5q-38 0 -68 -15.5t-47 -44t-17 -65.5q0 -55 32 -82t99 -42q53 -12 81.5 -26.5t40 -36t11.5 -55.5 q0 -25 -13.5 -62.5t-39.5 -75.5l-88 30q24 31 34 48z" />
<glyph unicode="&#x3c3;" d="M72.5 328q28.5 49 76 73.5t103.5 24.5h244v-92q-61 6 -127 9v-3q35 -20 54.5 -58.5t19.5 -89.5q0 -62 -25.5 -108t-70 -70t-101.5 -24q-56 0 -102 25.5t-73 75t-27 117.5q0 71 28.5 120zM313 297.5q-24 38.5 -65 38.5q-42 0 -66.5 -32t-24.5 -96q0 -60 24.5 -94.5 t66.5 -34.5q41 0 65 33t24 90t-24 95.5z" />
<glyph unicode="&#x3c4;" d="M204 338h-157v83l63 5h361v-88h-159q-4 -126 -4 -208q0 -27 12.5 -39t37.5 -12q13 0 24.5 2.5t30.5 8.5l15 -83q-48 -17 -99 -17q-67 0 -96 37t-29 108v203z" />
<glyph unicode="&#x3c5;" d="M65.5 239q1.5 40 1.5 59q0 73 -9 128h107q7 -38 7 -104q0 -27 -2 -64q-3 -57 -3 -88q0 -44 24.5 -67.5t63.5 -23.5q45 0 70 36.5t25 110.5q0 86 -30 186l107 24q34 -113 34 -204q0 -115 -54.5 -178.5t-152.5 -63.5q-95 0 -142.5 50t-47.5 139q0 20 1.5 60z" />
<glyph unicode="&#x3c6;" d="M466.5 98q-25.5 -49 -68.5 -75.5t-94 -29.5v-146h-91v146q-51 3 -93.5 30t-67.5 75.5t-25 114.5t25 114t67.5 74.5t93.5 30.5v109h91v-109q51 -3 94 -29.5t68.5 -75t25.5 -114.5t-25.5 -115zM371.5 113.5q24.5 35.5 24.5 99.5q0 63 -24.5 99t-67.5 38v-275 q43 3 67.5 38.5zM146.5 114q24.5 -36 66.5 -39v275q-41 -3 -66 -39t-25 -98q0 -63 24.5 -99z" />
</font>
</defs>
</svg>
